<?xml version="1.0" encoding="UTF-8"?>
<svg version="1.1" xmlns="http://www.w3.org/2000/svg" width="426" height="236">
<path d="M0 0 C140.58 0 281.16 0 426 0 C426 77.88 426 155.76 426 236 C285.42 236 144.84 236 0 236 C0 158.12 0 80.24 0 0 Z " fill="#FDFDFD" transform="translate(0,0)"/>
<path d="M0 0 C0.33 0 0.66 0 1 0 C1 14.85 1 29.7 1 45 C7.27 44.67 13.54 44.34 20 44 C24.84031768 43.91534424 29.66136891 43.85839143 34.5 43.875 C35.65757812 43.87113281 36.81515625 43.86726563 38.0078125 43.86328125 C45.13121606 43.87132121 51.83445784 44.34858708 59 45 C58.67 35.43 58.34 25.86 58 16 C55.525 15.505 55.525 15.505 53 15 C53 23.91 53 32.82 53 42 C47.72 42 42.44 42 37 42 C36.93941406 40.09734375 36.87882812 38.1946875 36.81640625 36.234375 C36.73199575 33.73957571 36.647348 31.24478445 36.5625 28.75 C36.52318359 27.49574219 36.48386719 26.24148437 36.44335938 24.94921875 C36.40146484 23.74394531 36.35957031 22.53867188 36.31640625 21.296875 C36.26141968 19.63156738 36.26141968 19.63156738 36.20532227 17.93261719 C36.03289096 15.46978151 35.70404561 13.35517035 35 11 C38.23846852 8.47241481 40.38286749 7.07714156 44.5 6.5625 C48.30914954 7.03864369 50.67707535 8.1218252 54 10 C55.65910004 10.68528045 57.32332564 11.35891863 59 12 C58.505 8.535 58.505 8.535 58 5 C58.96099609 4.81824219 58.96099609 4.81824219 59.94140625 4.6328125 C60.80636719 4.46523437 61.67132813 4.29765625 62.5625 4.125 C63.47773438 3.94839844 64.39296875 3.77179688 65.3359375 3.58984375 C68.20849447 3.01147259 68.20849447 3.01147259 71.6875 1.6875 C76.04428422 0.78326177 78.08460801 2.04230401 82 4 C84.77888613 4.69140522 84.77888613 4.69140522 87 5 C87 3.35 87 1.7 87 0 C87.66 0 88.32 0 89 0 C89 19.14 89 38.28 89 58 C89.66 58 90.32 58 91 58 C91 57.01 91 56.02 91 55 C92.62463842 54.94604522 94.24978541 54.90722805 95.875 54.875 C97.23238281 54.84019531 97.23238281 54.84019531 98.6171875 54.8046875 C101 55 101 55 103 57 C103 57.99 103 58.98 103 60 C69.01 60 35.02 60 0 60 C0 40.2 0 20.4 0 0 Z " fill="#969696" transform="translate(297,128)"/>
<path d="M0 0 C4.02009457 -0.07455949 8.03991733 -0.12879358 12.06054688 -0.16479492 C13.42617816 -0.17981428 14.79176176 -0.20023608 16.15722656 -0.22631836 C18.12803905 -0.26300137 20.09921408 -0.27818551 22.0703125 -0.29296875 C23.25383301 -0.3086792 24.43735352 -0.32438965 25.65673828 -0.34057617 C30.31052533 0.13350247 33.52219992 2.0277631 37.375 4.5625 C40.01989785 8.52984677 39.24662199 12.31418227 39 17 C43.29 17 47.58 17 52 17 C51.505 18.485 51.505 18.485 51 20 C49.68 20 48.36 20 47 20 C47.495 29.405 47.495 29.405 48 39 C51.20143056 33.8698205 51.20143056 33.8698205 54.40185547 28.73901367 C55.00344482 27.77572144 55.00344482 27.77572144 55.6171875 26.79296875 C56.02565918 26.1383667 56.43413086 25.48376465 56.85498047 24.80932617 C57.8792831 23.1907533 58.93749584 21.59375623 60 20 C59.01 20 58.02 20 57 20 C57 19.01 57 18.02 57 17 C61.29 17 65.58 17 70 17 C70 17.66 70 18.32 70 19 C72.97 18.34 75.94 17.68 79 17 C79 18.32 79 19.64 79 21 C79.680625 20.34 80.36125 19.68 81.0625 19 C84.65967285 16.55086104 86.73296158 16.58970784 91 17 C92 18 92 18 92.1875 20.4375 C92 23 92 23 90 25 C87.125 25.125 87.125 25.125 84 25 C80.10544322 24.60436229 80.10544322 24.60436229 77.91796875 26.53515625 C75.52904214 29.6052432 74.42815421 32.76767922 73.3125 36.4375 C73.10044922 37.09298828 72.88839844 37.74847656 72.66992188 38.42382812 C71.55865039 41.91889963 70.63339364 45.38756812 70 49 C71.32 49 72.64 49 74 49 C74 49.99 74 50.98 74 52 C68.06 52 62.12 52 56 52 C56.33 51.01 56.66 50.02 57 49 C57.64026123 48.86480957 58.28052246 48.72961914 58.94018555 48.59033203 C61.17859929 48.20710813 61.17859929 48.20710813 62.11254883 46.06982422 C62.39122803 45.2398291 62.66990723 44.40983398 62.95703125 43.5546875 C63.26447266 42.64203125 63.57191406 41.729375 63.88867188 40.7890625 C64.19353516 39.82742187 64.49839844 38.86578125 64.8125 37.875 C65.13669922 36.9365625 65.46089844 35.998125 65.79492188 35.03125 C67.58805066 29.54819238 68.3964732 25.63270196 67 20 C66.01 20 65.02 20 64 20 C63.72929688 20.56460938 63.45859375 21.12921875 63.1796875 21.7109375 C57.93928048 31.87940939 50.8518768 41.32363474 44.47363281 50.80371094 C43.09661095 52.85601191 41.73111111 54.91554557 40.3671875 56.9765625 C39.57875993 58.15146799 38.78973772 59.32597476 38 60.5 C37.319375 61.5209375 36.63875 62.541875 35.9375 63.59375 C34.02175607 65.97298036 32.8744972 67.05351921 30 68 C27.25 67.625 27.25 67.625 25 67 C24.875 64.625 24.875 64.625 25 62 C25.66 61.34 26.32 60.68 27 60 C28.11375 60.0825 29.2275 60.165 30.375 60.25 C34.15669404 60.41723358 34.15669404 60.41723358 36.20214844 57.48583984 C38.26490998 53.48636818 38.51761642 50.36074006 38.390625 45.9765625 C38.38213531 44.85729874 38.38213531 44.85729874 38.37347412 43.71542358 C38.35122898 41.35127363 38.30105984 38.98868541 38.25 36.625 C38.22991944 35.01434493 38.2116714 33.40366591 38.1953125 31.79296875 C38.15140381 27.86138493 38.08246318 23.93095648 38 20 C37.39236816 20.48428467 36.78473633 20.96856934 36.15869141 21.4675293 C35.35608887 22.10086182 34.55348633 22.73419434 33.7265625 23.38671875 C32.93330566 24.01537842 32.14004883 24.64403809 31.32275391 25.29174805 C23.92800353 30.73016179 14.8534777 31.02012291 6 32 C3.89424625 37.52760359 2.62148791 42.06997733 3 48 C4.32 48.33 5.64 48.66 7 49 C7 49.99 7 50.98 7 52 C-0.92 52 -8.84 52 -17 52 C-17 51.01 -17 50.02 -17 49 C-15.9275 48.690625 -14.855 48.38125 -13.75 48.0625 C-10.6047984 46.67305351 -9.31525471 45.43106806 -7.875 42.3125 C-7.20848493 40.55687095 -6.58950853 38.78296253 -6 37 C-5.41798828 35.24236328 -5.41798828 35.24236328 -4.82421875 33.44921875 C-3.49049795 29.31692187 -2.23731265 25.16203548 -1 21 C-0.76571289 20.21238281 -0.53142578 19.42476562 -0.29003906 18.61328125 C1.154006 13.74624198 2.58221978 8.8747507 4 4 C1.525 3.505 1.525 3.505 -1 3 C-0.67 2.01 -0.34 1.02 0 0 Z " fill="#111111" transform="translate(37,129)"/>
<path d="M0 0 C4.58978038 -0.0992963 9.17892788 -0.17166748 13.76953125 -0.21972656 C15.32921244 -0.23977222 16.88881913 -0.26701657 18.44824219 -0.30175781 C20.69745314 -0.35059126 22.9456659 -0.37303815 25.1953125 -0.390625 C26.23161301 -0.42159271 26.23161301 -0.42159271 27.28884888 -0.45318604 C32.31564925 -0.45548631 35.13424138 0.846104 39 4 C40.5547669 7.10953379 40.28644437 9.56266761 40 13 C37.38513784 17.93918408 34.02530244 21.48734878 29 24 C29.804375 24.61875 30.60875 25.2375 31.4375 25.875 C34.3215257 28.26663106 34.85557407 28.98901849 35.375 32.625 C34.74075916 38.33316752 31.67746292 42.36668084 27.625 46.3125 C21.44293438 50.28668504 16.65990867 51.44173253 9.44140625 51.29296875 C8.25767677 51.28660149 8.25767677 51.28660149 7.05003357 51.28010559 C4.55382739 51.26344452 2.05845808 51.22581779 -0.4375 51.1875 C-2.13996222 51.17243683 -3.84243721 51.15875129 -5.54492188 51.14648438 C-9.6969322 51.1135825 -13.8483247 51.06188951 -18 51 C-17.67 50.01 -17.34 49.02 -17 48 C-15.33130859 47.37158203 -15.33130859 47.37158203 -13.62890625 46.73046875 C-10.4656526 45.48018044 -10.07148467 45.12060106 -8.21484375 41.98828125 C-7.79332031 40.77527344 -7.37179688 39.56226563 -6.9375 38.3125 C-6.45312656 36.95963486 -5.9687515 35.6067703 -5.484375 34.25390625 C-5.24396484 33.55410645 -5.00355469 32.85430664 -4.75585938 32.13330078 C-4.00302324 30.00853265 -3.18066815 27.92640866 -2.328125 25.83984375 C0.7296386 18.27760373 2.9649892 11.26254948 3 3 C2.01 2.67 1.02 2.34 0 2 C0 1.34 0 0.68 0 0 Z " fill="#0E0E0E" transform="translate(170,48)"/>
<path d="M0 0 C0 1.32 0 2.64 0 4 C0.68707031 3.71125 1.37414062 3.4225 2.08203125 3.125 C2.98308594 2.75375 3.88414063 2.3825 4.8125 2 C5.70582031 1.62875 6.59914062 1.2575 7.51953125 0.875 C10 0 10 0 13 0 C11.11380178 7.03645577 9.13072305 14.03359344 7 21 C8.010625 20.34 9.02125 19.68 10.0625 19 C13.82923291 16.85738472 16.63527928 16.42352745 21 17 C23.4375 18.0625 23.4375 18.0625 25 20 C25.82170551 25.86932506 24.03173841 30.60186658 22 36 C21.26889071 37.97844988 20.53974737 39.95762728 19.8125 41.9375 C19.46832031 42.85402344 19.12414062 43.77054688 18.76953125 44.71484375 C17.89361924 46.91402759 17.89361924 46.91402759 18 49 C18.66 49.33 19.32 49.66 20 50 C20 50.66 20 51.32 20 52 C14.72 52 9.44 52 4 52 C4 51.01 4 50.02 4 49 C5.65 49 7.3 49 9 49 C9.18175781 48.29875 9.36351563 47.5975 9.55078125 46.875 C10.74054575 42.38440167 11.9317939 37.9931602 13.6875 33.6875 C14.94691996 30.14912965 15.27830865 27.71078199 15 24 C11.27774014 23.56717909 9.56446076 23.57129563 6.53125 25.875 C2.98028552 29.65112471 1.7376744 34.47034375 0.1875 39.3125 C-0.27946289 40.70952148 -0.27946289 40.70952148 -0.75585938 42.13476562 C-1.51731212 44.41912386 -2.26480134 46.70708523 -3 49 C-2.01 49 -1.02 49 0 49 C0 49.99 0 50.98 0 52 C-5.28 52 -10.56 52 -16 52 C-15.67 51.01 -15.34 50.02 -15 49 C-12.9375 48.3125 -12.9375 48.3125 -11 48 C-10.81566406 47.30261719 -10.63132813 46.60523438 -10.44140625 45.88671875 C-6.83369443 32.75464773 -2.35951272 19.89712439 2 7 C1.34 7 0.68 7 0 7 C-0.99 9.97 -1.98 12.94 -3 16 C-3.66 16 -4.32 16 -5 16 C-5.19335938 15.28972656 -5.38671875 14.57945313 -5.5859375 13.84765625 C-5.84632812 12.92855469 -6.10671875 12.00945313 -6.375 11.0625 C-6.63023438 10.14597656 -6.88546875 9.22945312 -7.1484375 8.28515625 C-7.76660104 5.83254913 -7.76660104 5.83254913 -10 5 C-12.0374763 4.77141886 -14.08040303 4.58975722 -16.125 4.4375 C-17.76855469 4.31181641 -17.76855469 4.31181641 -19.4453125 4.18359375 C-20.70988281 4.09271484 -20.70988281 4.09271484 -22 4 C-22.10884521 4.82741699 -22.21769043 5.65483398 -22.32983398 6.50732422 C-23.08822636 10.4598056 -24.33909132 14.11805824 -25.72265625 17.8828125 C-26.26631489 19.39451728 -26.8099335 20.90623646 -27.35351562 22.41796875 C-28.20983551 24.77980588 -29.06827503 27.1408573 -29.92797852 29.50146484 C-30.76064607 31.7933805 -31.58568323 34.08793883 -32.41015625 36.3828125 C-32.66950455 37.08705353 -32.92885284 37.79129456 -33.19606018 38.51687622 C-34.41707556 41.9222098 -35 44.33015642 -35 48 C-33.35 48.33 -31.7 48.66 -30 49 C-30 49.99 -30 50.98 -30 52 C-38.25 52 -46.5 52 -55 52 C-54.67 51.01 -54.34 50.02 -54 49 C-52.37771484 48.50693359 -52.37771484 48.50693359 -50.72265625 48.00390625 C-48.09121517 46.96247601 -47.15725284 46.26142921 -45.67919922 43.80419922 C-44.47202878 40.88016417 -43.43101661 37.94090787 -42.4375 34.9375 C-41.87397827 33.33648437 -41.87397827 33.33648437 -41.29907227 31.703125 C-40.17159651 28.477499 -39.08189018 25.24116267 -38 22 C-37.36528818 20.13647853 -36.72992093 18.27318011 -36.09375 16.41015625 C-34.69526068 12.28399536 -33.33522252 8.14704405 -32 4 C-41.23014216 4.32169245 -41.23014216 4.32169245 -49 9 C-49.91247818 10.06935122 -50.80838753 11.15305436 -51.6875 12.25 C-52.450625 13.1575 -53.21375 14.065 -54 15 C-54.99 15 -55.98 15 -57 15 C-56.57045619 13.6016978 -56.13092966 12.20646093 -55.6875 10.8125 C-55.32205078 9.64654297 -55.32205078 9.64654297 -54.94921875 8.45703125 C-54.63597656 7.64621094 -54.32273437 6.83539063 -54 6 C-53.55092285 4.70835938 -53.55092285 4.70835938 -53.09277344 3.390625 C-50.61668884 0.56213452 -50.02149689 0.60229473 -46.40844727 0.34057617 C-44.46147187 0.29935709 -42.51380286 0.2853106 -40.56640625 0.29296875 C-39.53692368 0.27784744 -38.5074411 0.26272614 -37.44676208 0.24714661 C-34.15178863 0.20412738 -30.85772665 0.1954241 -27.5625 0.1875 C-25.34567846 0.1643626 -23.12887896 0.13899886 -20.91210938 0.11132812 C-13.9413578 0.03123641 -6.97117941 0 0 0 Z " fill="#0F0F0F" transform="translate(86,47)"/>
<path d="M0 0 C0.33 0.33 0.66 0.66 1 1 C1.86625 0.67 2.7325 0.34 3.625 0 C7.01076391 -1.00318931 9.49638964 -1.31143203 13 -1 C13.99 -0.34 14.98 0.32 16 1 C16 2.32 16 3.64 16 5 C16.47050781 4.65066406 16.94101563 4.30132812 17.42578125 3.94140625 C18.04839844 3.48636719 18.67101562 3.03132812 19.3125 2.5625 C19.92738281 2.11003906 20.54226562 1.65757812 21.17578125 1.19140625 C25.01129729 -1.31358817 28.5350319 -1.31892629 33 -1 C34.9375 0.0625 34.9375 0.0625 36 2 C36.7354153 8.75492575 34.40318481 14.19815026 32 20.4375 C31.42765625 21.96407227 31.42765625 21.96407227 30.84375 23.52148438 C29.90595809 26.01835535 28.95785999 28.51077408 28 31 C31.96 30.505 31.96 30.505 36 30 C41.42118202 17.2859464 41.42118202 17.2859464 45 4 C44.01 4 43.02 4 42 4 C42.33 3.01 42.66 2.02 43 1 C44.70703125 0.234375 44.70703125 0.234375 46.8125 -0.25 C47.49957031 -0.42015625 48.18664062 -0.5903125 48.89453125 -0.765625 C51 -1 51 -1 55 0 C51.7 10.23 48.4 20.46 45 31 C45.99 31 46.98 31 48 31 C48 31.99 48 32.98 48 34 C37.11 34 26.22 34 15 34 C15.33 33.01 15.66 32.02 16 31 C17.32 31 18.64 31 20 31 C20.18175781 30.29875 20.36351562 29.5975 20.55078125 28.875 C21.73196033 24.41680615 22.91209019 20.03649352 24.625 15.75 C25.9959616 12.01101383 26.59085957 8.9277481 27 5 C22.40121857 5.44219052 19.39979201 5.7978396 16 9 C14.82683788 11.37801154 14.82683788 11.37801154 14.078125 14.10546875 C13.77519531 15.08837891 13.47226563 16.07128906 13.16015625 17.08398438 C12.85980469 18.10814453 12.55945313 19.13230469 12.25 20.1875 C11.93417969 21.22326172 11.61835938 22.25902344 11.29296875 23.32617188 C10.51604544 25.88060156 9.75232141 28.43823776 9 31 C9.99 31 10.98 31 12 31 C12 31.99 12 32.98 12 34 C6.72 34 1.44 34 -4 34 C-4 33.01 -4 32.02 -4 31 C-2.35 31 -0.7 31 1 31 C1.18175781 30.31035156 1.36351562 29.62070313 1.55078125 28.91015625 C2.79534097 24.25741761 4.07926336 19.66635393 5.6875 15.125 C6.77404017 11.97290171 7.32629554 9.37172063 7 6 C2.43530743 5.51841747 2.43530743 5.51841747 -1.6027832 7.19262695 C-3.30967088 9.40057549 -4.11486912 11.47331733 -5.04296875 14.10546875 C-5.56987305 15.57983398 -5.56987305 15.57983398 -6.10742188 17.08398438 C-6.46384766 18.10814453 -6.82027344 19.13230469 -7.1875 20.1875 C-7.55552734 21.22326172 -7.92355469 22.25902344 -8.30273438 23.32617188 C-9.20947156 25.88152212 -10.10821315 28.43940192 -11 31 C-10.01 31 -9.02 31 -8 31 C-8 31.99 -8 32.98 -8 34 C-12.95 34 -17.9 34 -23 34 C-22.67 33.01 -22.34 32.02 -22 31 C-21.01 30.67 -20.02 30.34 -19 30 C-17.34107515 26.7948534 -16.36625848 23.3018676 -15.25 19.875 C-14.75693359 18.46734375 -14.75693359 18.46734375 -14.25390625 17.03125 C-12.43099307 11.53943561 -11.59112975 7.6511351 -13 2 C-11.5882217 1.46605821 -10.17029756 0.94834896 -8.75 0.4375 C-7.96109375 0.14746094 -7.1721875 -0.14257812 -6.359375 -0.44140625 C-3.7889303 -1.0499718 -2.45365761 -0.90655049 0 0 Z " fill="#0F0F0F" transform="translate(173,147)"/>
<path d="M0 0 C-2.385974 9.4496806 -5.55987284 18.58687893 -8.81689453 27.76147461 C-9.48880798 29.65854369 -10.15463147 31.55776625 -10.8203125 33.45703125 C-11.21492676 34.57053955 -11.60954102 35.68404785 -12.01611328 36.83129883 C-12.96533798 39.88836764 -13.55549702 42.83388585 -14 46 C-13.01 46.33 -12.02 46.66 -11 47 C-11 47.66 -11 48.32 -11 49 C-20.41002278 52.44419134 -20.41002278 52.44419134 -25 52 C-25 51.01 -25 50.02 -25 49 C-25.99 49.495 -26.98 49.99 -28 50.5 C-32.28329827 52.30349401 -35.36502243 52.59806162 -40 52 C-44.01917593 48.75045351 -45.82538024 46.62978444 -46.375 41.5 C-46.24323701 34.88789368 -43.25298655 29.48491163 -38.875 24.65625 C-32.65592334 18.85738122 -27.73756814 16.6992333 -19.125 16.875 C-17.97257812 16.89304688 -16.82015625 16.91109375 -15.6328125 16.9296875 C-14.76398438 16.95289063 -13.89515625 16.97609375 -13 17 C-12.855625 15.906875 -12.71125 14.81375 -12.5625 13.6875 C-12 10 -12 10 -11 7 C-12.32 6.34 -13.64 5.68 -15 5 C-15 4.34 -15 3.68 -15 3 C-13.44033782 2.491217 -11.87710759 1.99336531 -10.3125 1.5 C-9.44238281 1.2215625 -8.57226562 0.943125 -7.67578125 0.65625 C-4.9969773 -0.00074133 -2.74322861 -0.04823259 0 0 Z " fill="#0E0E0E" transform="translate(272,129)"/>
<path d="M0 0 C0.33 0 0.66 0 1 0 C1 3.3 1 6.6 1 10 C5.29 10 9.58 10 14 10 C13.67 10.99 13.34 11.98 13 13 C11.68 13 10.36 13 9 13 C9.33 19.27 9.66 25.54 10 32 C13.20143056 26.8698205 13.20143056 26.8698205 16.40185547 21.73901367 C16.80291504 21.09681885 17.20397461 20.45462402 17.6171875 19.79296875 C18.02565918 19.1383667 18.43413086 18.48376465 18.85498047 17.80932617 C19.8792831 16.1907533 20.93749584 14.59375623 22 13 C21.01 13 20.02 13 19 13 C19 12.01 19 11.02 19 10 C23.29 10 27.58 10 32 10 C32 10.66 32 11.32 32 12 C34.97 11.34 37.94 10.68 41 10 C41 11.32 41 12.64 41 14 C41.680625 13.34 42.36125 12.68 43.0625 12 C46.65967285 9.55086104 48.73296158 9.58970784 53 10 C54 11 54 11 54.1875 13.4375 C54 16 54 16 52 18 C49.125 18.125 49.125 18.125 46 18 C42.10544322 17.60436229 42.10544322 17.60436229 39.91796875 19.53515625 C37.52904214 22.6052432 36.42815421 25.76767922 35.3125 29.4375 C35.10044922 30.09298828 34.88839844 30.74847656 34.66992188 31.42382812 C33.55865039 34.91889963 32.63339364 38.38756812 32 42 C33.32 42 34.64 42 36 42 C36 42.99 36 43.98 36 45 C30.06 45 24.12 45 18 45 C18.33 44.01 18.66 43.02 19 42 C19.64026123 41.86480957 20.28052246 41.72961914 20.94018555 41.59033203 C23.17859929 41.20710813 23.17859929 41.20710813 24.11254883 39.06982422 C24.39122803 38.2398291 24.66990723 37.40983398 24.95703125 36.5546875 C25.26447266 35.64203125 25.57191406 34.729375 25.88867188 33.7890625 C26.19353516 32.82742187 26.49839844 31.86578125 26.8125 30.875 C27.13669922 29.9365625 27.46089844 28.998125 27.79492188 28.03125 C29.58805066 22.54819238 30.3964732 18.63270196 29 13 C28.01 13 27.02 13 26 13 C25.72929688 13.56460938 25.45859375 14.12921875 25.1796875 14.7109375 C19.93928048 24.87940939 12.8518768 34.32363474 6.47363281 43.80371094 C5.09661095 45.85601191 3.73111111 47.91554557 2.3671875 49.9765625 C1.57875993 51.15146799 0.78973772 52.32597476 0 53.5 C-0.680625 54.5209375 -1.36125 55.541875 -2.0625 56.59375 C-3.97824393 58.97298036 -5.1255028 60.05351921 -8 61 C-10.75 60.625 -10.75 60.625 -13 60 C-13.125 57.625 -13.125 57.625 -13 55 C-12.34 54.34 -11.68 53.68 -11 53 C-9.88625 53.0825 -8.7725 53.165 -7.625 53.25 C-3.88153186 53.40388495 -3.88153186 53.40388495 -1.79785156 50.66357422 C0.9472972 46.1283784 0.4971313 41.27675495 0.390625 36.1328125 C0.38496521 35.09808807 0.37930542 34.06336365 0.37347412 32.99728394 C0.35115852 29.70604371 0.30096966 26.41590886 0.25 23.125 C0.22992884 20.8880366 0.21167915 18.65105607 0.1953125 16.4140625 C0.15130965 10.94233386 0.08444551 5.47124592 0 0 Z " fill="#181818" transform="translate(75,136)"/>
<path d="M0 0 C0.33 0 0.66 0 1 0 C1 14.85 1 29.7 1 45 C7.27 44.67 13.54 44.34 20 44 C24.96516408 43.91550772 29.91150232 43.85836258 34.875 43.875 C36.08285156 43.87113281 37.29070312 43.86726563 38.53515625 43.86328125 C39.69660156 43.86457031 40.85804688 43.86585938 42.0546875 43.8671875 C43.08062012 43.86831543 44.10655273 43.86944336 45.16357422 43.87060547 C47.87926599 43.99449225 50.35535807 44.38904464 53 45 C53 45.99 53 46.98 53 48 C50.03 48 47.06 48 44 48 C44 47.34 44 46.68 44 46 C43.34 46 42.68 46 42 46 C42 48.97 42 51.94 42 55 C47.61 55 53.22 55 59 55 C58.34 55.66 57.68 56.32 57 57 C57.33 57.99 57.66 58.98 58 60 C38.86 60 19.72 60 0 60 C0 40.2 0 20.4 0 0 Z " fill="#686869" transform="translate(297,128)"/>
<path d="M0 0 C-1.90359331 7.30484586 -4.058228 14.50833713 -6.3737793 21.69140625 C-7.58090987 25.27396253 -7.58090987 25.27396253 -8 29 C-4.37 26.36 -0.74 23.72 3 21 C2.01 20.67 1.02 20.34 0 20 C0 19.01 0 18.02 0 17 C6.27 17 12.54 17 19 17 C19 17.66 19 18.32 19 19 C18.39414062 19.13535156 17.78828125 19.27070312 17.1640625 19.41015625 C10.80135588 21.04488241 6.24316428 23.59106274 1.03125 27.57421875 C-1 29 -1 29 -3 29 C-2.02216461 31.62550296 -1.0427937 34.25041505 -0.0625 36.875 C0.35418945 37.99455078 0.35418945 37.99455078 0.77929688 39.13671875 C2.25099194 43.12724515 2.25099194 43.12724515 4 47 C6.52733235 47.65555119 6.52733235 47.65555119 9 48 C9 48.99 9 49.98 9 51 C2.73 51 -3.54 51 -10 51 C-10 50.01 -10 49.02 -10 48 C-8.68 48 -7.36 48 -6 48 C-6.474375 46.948125 -6.94875 45.89625 -7.4375 44.8125 C-8.4382622 42.50700576 -9.07505686 40.61637607 -9.5625 38.125 C-9.7790625 37.073125 -9.7790625 37.073125 -10 36 C-10.66 35.67 -11.32 35.34 -12 35 C-12.12375 35.845625 -12.2475 36.69125 -12.375 37.5625 C-13.02770327 41.15236798 -13.95247463 44.50824875 -15 48 C-14.34 48 -13.68 48 -13 48 C-13 48.99 -13 49.98 -13 51 C-18.28 51 -23.56 51 -29 51 C-26 48 -26 48 -24.43139648 46.61889648 C-22.62045847 44.57074196 -21.97057524 42.68531442 -21.09765625 40.09765625 C-20.76636719 39.12989258 -20.43507812 38.16212891 -20.09375 37.16503906 C-19.7534375 36.14120117 -19.413125 35.11736328 -19.0625 34.0625 C-18.53462891 32.50547363 -18.53462891 32.50547363 -17.99609375 30.91699219 C-17.30237881 28.86732147 -16.6123312 26.81640524 -15.92626953 24.76416016 C-15.15998337 22.47742007 -14.38123157 20.19609862 -13.58984375 17.91796875 C-11.64543077 12.57538763 -11.64543077 12.57538763 -11 7 C-11.66 6.67 -12.32 6.34 -13 6 C-12 3 -12 3 -8.75 1.3125 C-5.38011516 0.13304031 -3.46274405 -0.12537522 0 0 Z " fill="#0C0C0C" transform="translate(263,48)"/>
<path d="M0 0 C0.99 0.66 1.98 1.32 3 2 C3.74202807 7.23325063 1.98914079 11.37232547 0.0625 16.125 C-2.26518386 21.96522203 -2.26518386 21.96522203 -4 28 C-1.69 27.34 0.62 26.68 3 26 C1.6537371 30.40595131 -0.06103995 32.58291088 -4 35 C-7.3125 35.25 -7.3125 35.25 -10 35 C-10.66 33.68 -11.32 32.36 -12 31 C-13.010625 31.66 -14.02125 32.32 -15.0625 33 C-18.81624235 35.139557 -21.64942963 35.5856537 -26 35 C-27.9375 33.875 -27.9375 33.875 -29 32 C-29.625 29.1875 -29.625 29.1875 -29 26 C-24.01915324 20.42619529 -17.77706733 17.87252908 -11.01171875 15.00390625 C-7.66185716 13.19563854 -7.66185716 13.19563854 -6.58203125 9.27734375 C-6.38996094 8.19582031 -6.19789063 7.11429688 -6 6 C-8.64 6 -11.28 6 -14 6 C-14.268125 6.94875 -14.53625 7.8975 -14.8125 8.875 C-16 12 -16 12 -19 14 C-21.1875 13.625 -21.1875 13.625 -23 13 C-23 9 -23 9 -20.6875 6.5 C-15.12057239 2.22893678 -7.05301477 -1.05795222 0 0 Z " fill="#0D0D0D" transform="translate(150,146)"/>
<path d="M0 0 C0.99 0.66 1.98 1.32 3 2 C2.6637164 11.24779887 -0.7824329 19.42966072 -4 28 C-0.535 27.505 -0.535 27.505 3 27 C1.50150567 30.81434921 -0.55528439 32.80790825 -4 35 C-7.3125 35.25 -7.3125 35.25 -10 35 C-10.66 33.68 -11.32 32.36 -12 31 C-13.010625 31.66 -14.02125 32.32 -15.0625 33 C-18.81624235 35.139557 -21.64942963 35.5856537 -26 35 C-27.9375 33.8125 -27.9375 33.8125 -29 32 C-29.60978541 28.68973635 -29.25502892 27.38223611 -27.37890625 24.5703125 C-24.65204262 21.62404605 -22.05690191 20.09371521 -18.5 18.25 C-16.81390625 17.36054687 -16.81390625 17.36054687 -15.09375 16.453125 C-12 15 -12 15 -8 14 C-7.34 11.36 -6.68 8.72 -6 6 C-9.3634269 6.02649222 -9.3634269 6.02649222 -13 7 C-14.38938077 8.96147874 -15.7260411 10.96166576 -17 13 C-19.75 13.875 -19.75 13.875 -22 14 C-22.33 12.35 -22.66 10.7 -23 9 C-19.53271349 6.022587 -16.27791878 4.0077808 -12.0625 2.25 C-11.06347656 1.82203125 -10.06445312 1.3940625 -9.03515625 0.953125 C-5.79316954 -0.06495062 -3.3760854 -0.31929598 0 0 Z " fill="#0B0B0B" transform="translate(235,64)"/>
<path d="M0 0 C2.5 1.625 2.5 1.625 3.5 3.625 C3.5 6.265 3.5 8.905 3.5 11.625 C-4.09 11.625 -11.68 11.625 -19.5 11.625 C-19.54125 13.56375 -19.5825 15.5025 -19.625 17.5 C-19.65980469 19.13582031 -19.65980469 19.13582031 -19.6953125 20.8046875 C-19.80060534 23.7621051 -19.80060534 23.7621051 -17.5 25.625 C-12.70978268 26.44891738 -9.27354936 26.07506508 -5.0625 23.625 C-4.216875 22.965 -3.37125 22.305 -2.5 21.625 C-1.84 21.625 -1.18 21.625 -0.5 21.625 C-1.82084447 27.23858901 -5.93687627 29.62094354 -10.5 32.625 C-14.22466849 34.48733425 -18.44495313 34.19630829 -22.5 33.625 C-25.62578143 31.9529253 -27.89281175 29.8393765 -29.5 26.625 C-30.27189959 19.8170987 -29.68406438 14.174157 -25.5 8.625 C-17.92264865 0.78348411 -10.95492124 -4.30371906 0 0 Z " fill="#141414" transform="translate(302.5,65.375)"/>
<path d="M0 0 C2.5 1.5625 2.5 1.5625 3.5 2.5625 C3.5 5.5325 3.5 8.5025 3.5 11.5625 C-4.09 11.8925 -11.68 12.2225 -19.5 12.5625 C-21.05774936 15.67799872 -21.06480622 19.1669388 -20.5 22.5625 C-18.95360183 24.70515828 -18.04588365 25.4470846 -15.44921875 25.99609375 C-9.90230048 26.00567392 -7.00009763 25.07477132 -2.5 21.5625 C-1.84 21.5625 -1.18 21.5625 -0.5 21.5625 C-1.06373887 25.03513143 -2.10850967 26.47567065 -4.8125 28.6875 C-5.40675781 29.18507813 -6.00101563 29.68265625 -6.61328125 30.1953125 C-11.77374555 33.93477938 -16.24146395 34.23197063 -22.5 33.5625 C-26.18623011 31.94977433 -27.25355 30.932175 -29.5 27.5625 C-30.37797736 21.39133219 -30.72383195 15.33499277 -26.9375 10.125 C-25.28515625 8.27734375 -25.28515625 8.27734375 -23.5 6.5625 C-22.90058594 5.98628906 -22.30117187 5.41007812 -21.68359375 4.81640625 C-14.99231981 -1.2100759 -8.71311882 -3.57860237 0 0 Z " fill="#141414" transform="translate(140.5,65.4375)"/>
<path d="M0 0 C3.22868746 -0.14584064 6.45652365 -0.23424106 9.6875 -0.3125 C10.59951172 -0.35439453 11.51152344 -0.39628906 12.45117188 -0.43945312 C17.09565915 -0.52389835 19.27865685 -0.53466389 23.109375 2.3046875 C25.60782502 5.86652741 25.67474948 7.72658664 25 12 C22.38513784 16.93918408 19.02530244 20.48734878 14 23 C14.804375 23.61875 15.60875 24.2375 16.4375 24.875 C19.3215257 27.26663106 19.85557407 27.98901849 20.375 31.625 C19.74075916 37.33316752 16.67746292 41.36668084 12.625 45.3125 C6.58905268 49.19275185 2.02798987 50.3698942 -5 50 C-3.92641368 46.88659967 -3.21160309 46.1034504 -0.1875 44.625 C3.75838531 42.61337219 5.60910846 40.72697799 8 37 C8.80437574 33.86112025 8.59296626 32.34217345 8 29 C3.75165059 24.85785932 -0.32874856 24.39112079 -6 24 C-6 23.67 -6 23.34 -6 23 C-5.443125 22.90203125 -4.88625 22.8040625 -4.3125 22.703125 C2.42778859 21.38239278 8.91661627 19.99486411 13 14.125 C14.07199366 10.77501982 14.54175268 8.48269582 14 5 C11.06563069 2.18030719 8.7532289 1.57587032 4.75 1.3125 C3.85796875 1.24675781 2.9659375 1.18101563 2.046875 1.11328125 C1.03367188 1.05720703 1.03367188 1.05720703 0 1 C0 0.67 0 0.34 0 0 Z " fill="#0C0C0C" transform="translate(185,49)"/>
<path d="M0 0 C1.65 0.99 3.3 1.98 5 3 C4.67 13.56 4.34 24.12 4 35 C-1.28 35 -6.56 35 -12 35 C-11.98839844 32.95296875 -11.97679687 30.9059375 -11.96484375 28.796875 C-11.95788888 26.80778118 -11.95097002 24.81868706 -11.94506836 22.82958984 C-11.94004882 21.45035027 -11.93323181 20.07111598 -11.92456055 18.69189453 C-11.9123908 16.70607817 -11.90728367 14.72022251 -11.90234375 12.734375 C-11.89710693 11.54038086 -11.89187012 10.34638672 -11.88647461 9.11621094 C-11.98058054 6.53305383 -12.23373845 4.44991581 -13 2 C-8.78972771 -0.10513615 -4.63628015 -0.81661753 0 0 Z " fill="#A5A6A8" transform="translate(317,135)"/>
<path d="M0 0 C0.66 0.33 1.32 0.66 2 1 C1.67 4.63 1.34 8.26 1 12 C1.66 12 2.32 12 3 12 C3 15.3 3 18.6 3 22 C3.66 22 4.32 22 5 22 C5 25.3 5 28.6 5 32 C3.02 32.495 3.02 32.495 1 33 C0.67 34.65 0.34 36.3 0 38 C-5.94 38 -11.88 38 -18 38 C-18 36.02 -18 34.04 -18 32 C-19.32 32 -20.64 32 -22 32 C-22 31.01 -22 30.02 -22 29 C-24.31 29 -26.62 29 -29 29 C-29 28.67 -29 28.34 -29 28 C-26.69 28 -24.38 28 -22 28 C-21.67 26.35 -21.34 24.7 -21 23 C-21.99 22.67 -22.98 22.34 -24 22 C-23.505 17.545 -23.505 17.545 -23 13 C-22.01 13 -21.02 13 -20 13 C-20 15.97 -20 18.94 -20 22 C-19.01 21.67 -18.02 21.34 -17 21 C-14.26134713 20.92948886 -11.54972412 20.90642235 -8.8125 20.9375 C-8.06291016 20.94201172 -7.31332031 20.94652344 -6.54101562 20.95117188 C-4.69397617 20.96293646 -2.84697787 20.98087135 -1 21 C-1 18.36 -1 15.72 -1 13 C-3.31 13.33 -5.62 13.66 -8 14 C-7.67 15.65 -7.34 17.3 -7 19 C-7.66 19 -8.32 19 -9 19 C-9 15.7 -9 12.4 -9 9 C-8.34 9 -7.68 9 -7 9 C-7 8.34 -7 7.68 -7 7 C-5.35 7 -3.7 7 -2 7 C-1.34 4.69 -0.68 2.38 0 0 Z " fill="#7F7F7F" transform="translate(380,147)"/>
<path d="M0 0 C0 1.32 0 2.64 0 4 C0.886875 3.34 1.77375 2.68 2.6875 2 C5.97506886 0.01505276 7.28458576 -0.61923571 11 0 C11.66 0.66 12.32 1.32 13 2 C12.67028521 5.29714793 12.3773161 6.6226839 10 9 C6.79680216 9.25288404 4.07215439 8.91026797 1 8 C-3.51336949 12.75172461 -5.4301983 17.14701496 -7.3125 23.375 C-7.70791992 24.62216797 -7.70791992 24.62216797 -8.11132812 25.89453125 C-8.75338874 27.92577755 -9.37846194 29.96238036 -10 32 C-8.35 32 -6.7 32 -5 32 C-5 32.99 -5 33.98 -5 35 C-10.94 35 -16.88 35 -23 35 C-22.67 34.01 -22.34 33.02 -22 32 C-21.01 31.67 -20.02 31.34 -19 31 C-17.95175387 29.18183624 -17.95175387 29.18183624 -17.2109375 26.921875 C-16.90929687 26.09042969 -16.60765625 25.25898437 -16.296875 24.40234375 C-15.99265625 23.52707031 -15.6884375 22.65179688 -15.375 21.75 C-14.90707031 20.46029297 -14.90707031 20.46029297 -14.4296875 19.14453125 C-12.9864825 15.10728969 -11.77325204 11.22537002 -11 7 C-11.66 6.67 -12.32 6.34 -13 6 C-12.67 5.01 -12.34 4.02 -12 3 C-10.0390625 2.05078125 -10.0390625 2.05078125 -7.625 1.3125 C-6.83351563 1.06113281 -6.04203125 0.80976562 -5.2265625 0.55078125 C-3 0 -3 0 0 0 Z " fill="#0E0E0E" transform="translate(322,64)"/>
<path d="M0 0 C0.33 0 0.66 0 1 0 C1 14.85 1 29.7 1 45 C7.27 44.67 13.54 44.34 20 44 C25.06891407 43.93797217 30.12049752 43.90140628 35.1875 43.9375 C36.43724609 43.94201172 37.68699219 43.94652344 38.97460938 43.95117188 C41.98312925 43.96269877 44.99153437 43.97895725 48 44 C48 44.33 48 44.66 48 45 C44.535 45.495 44.535 45.495 41 46 C41 48.97 41 51.94 41 55 C37.04 55 33.08 55 29 55 C29 52.69 29 50.38 29 48 C30.32 48 31.64 48 33 48 C33 47.01 33 46.02 33 45 C32.34 45 31.68 45 31 45 C31 45.66 31 46.32 31 47 C28.03 46.34 25.06 45.68 22 45 C22 47.97 22 50.94 22 54 C15.4340948 57.2829526 7.34090518 55 0 55 C0 36.85 0 18.7 0 0 Z " fill="#717171" transform="translate(297,128)"/>
<path d="M0 0 C0 1.32 0 2.64 0 4 C0.680625 3.34 1.36125 2.68 2.0625 2 C5.65967285 -0.44913896 7.73296158 -0.41029216 12 0 C13 1 13 1 13.1875 3.4375 C13 6 13 6 11 8 C8.125 8.125 8.125 8.125 5 8 C1.10544322 7.60436229 1.10544322 7.60436229 -1.08203125 9.53515625 C-3.47095786 12.6052432 -4.57184579 15.76767922 -5.6875 19.4375 C-5.89955078 20.09298828 -6.11160156 20.74847656 -6.33007812 21.42382812 C-7.44134961 24.91889963 -8.36660636 28.38756812 -9 32 C-7.68 32 -6.36 32 -5 32 C-5 32.99 -5 33.98 -5 35 C-10.94 35 -16.88 35 -23 35 C-22.67 34.01 -22.34 33.02 -22 32 C-21.35973877 31.86553467 -20.71947754 31.73106934 -20.05981445 31.5925293 C-17.81825251 31.20683859 -17.81825251 31.20683859 -16.88745117 29.05395508 C-16.60877197 28.21759521 -16.33009277 27.38123535 -16.04296875 26.51953125 C-15.73552734 25.60236328 -15.42808594 24.68519531 -15.11132812 23.74023438 C-14.80646484 22.77408203 -14.50160156 21.80792969 -14.1875 20.8125 C-13.86330078 19.86568359 -13.53910156 18.91886719 -13.20507812 17.94335938 C-11.58086859 12.9594359 -10.43584029 9.19930183 -12 4 C-10.56570999 3.32645501 -9.12742943 2.66140299 -7.6875 2 C-6.88699219 1.62875 -6.08648437 1.2575 -5.26171875 0.875 C-3 0 -3 0 0 0 Z " fill="#0E0E0E" transform="translate(116,146)"/>
<path d="M0 0 C3.3125 0.5625 3.3125 0.5625 5.3125 1.75 C7.0798569 4.95333438 5.37473095 8.32643141 4.48046875 11.71875 C4.15691406 12.8221875 3.83335937 13.925625 3.5 15.0625 C3.18417969 16.1659375 2.86835938 17.269375 2.54296875 18.40625 C1.01299925 22.33074318 -0.82691535 25.63220768 -4.6875 27.5625 C-10.97834967 28.13439542 -10.97834967 28.13439542 -13.625 26 C-15.46929179 21.76897766 -15.38205924 18.43543539 -13.7734375 14.09765625 C-10.76073287 7.63491889 -7.58549033 1.15710869 0 0 Z " fill="#F5F5F5" transform="translate(249.6875,148.4375)"/>
<path d="M0 0 C5.30671472 -0.3399319 9.70556203 -0.52655104 14.6875 1.5 C17 4 17 4 17.8125 7.75 C17.40571949 13.18051982 13.92348973 16.54004493 10 20 C5.51874955 22.90675705 0.17125391 22.18074286 -5 22 C-4.65259661 14.14868332 -2.71548094 7.35074375 0 0 Z " fill="#F7F7F7" transform="translate(177,74)"/>
<path d="M0 0 C8.63502756 -0.4390692 8.63502756 -0.4390692 13 3 C14.78033466 6.56066932 13.97912739 10.24359934 13 14 C10.09010214 19.3608871 5.75449792 22.1434103 0.19140625 24.35546875 C-2.60935678 25.17922258 -5.10328055 25.29709943 -8 25 C-7.48256033 19.19173967 -6.28511523 14.47130732 -4 9.125 C-3.72671875 8.46242187 -3.4534375 7.79984375 -3.171875 7.1171875 C-2.17462122 4.71204604 -1.16471226 2.32942452 0 0 Z " fill="#F3F3F3" transform="translate(53,132)"/>
<path d="M0 0 C0.33 0.66 0.66 1.32 1 2 C1.66 2.33 2.32 2.66 3 3 C2.67 12.57 2.34 22.14 2 32 C4.371875 31.835 6.74375 31.67 9.1875 31.5 C21.88249988 30.68679716 34.3231569 31.11813265 47 32 C47 23.09 47 14.18 47 5 C47.99 4.67 48.98 4.34 50 4 C50.99 4.66 51.98 5.32 53 6 C53 15.57 53 25.14 53 35 C33.86 35 14.72 35 -5 35 C-5 34.01 -5 33.02 -5 32 C-3.02 32 -1.04 32 1 32 C0.67 21.44 0.34 10.88 0 0 Z " fill="#D8D8D9" transform="translate(303,138)"/>
<path d="M0 0 C2.475 0.495 2.475 0.495 5 1 C5.33 2.32 5.66 3.64 6 5 C8.64 5 11.28 5 14 5 C14 6.32 14 7.64 14 9 C14.66 9 15.32 9 16 9 C16 7.68 16 6.36 16 5 C18.31 5 20.62 5 23 5 C23 6.65 23 8.3 23 10 C20.03 9.505 20.03 9.505 17 9 C17 9.66 17 10.32 17 11 C16.34 11 15.68 11 15 11 C15 14.3 15 17.6 15 21 C15.66 21 16.32 21 17 21 C16.505 18.525 16.505 18.525 16 16 C18.375 14.9375 18.375 14.9375 21 14 C21.66 14.33 22.32 14.66 23 15 C23 17.64 23 20.28 23 23 C20.20837429 23.16737799 17.41670379 23.33393402 14.625 23.5 C13.8309375 23.54769531 13.036875 23.59539062 12.21875 23.64453125 C6.2265625 24 6.2265625 24 4 24 C4 21.03 4 18.06 4 15 C3.01 15 2.02 15 1 15 C1 17.97 1 20.94 1 24 C0.67 24 0.34 24 0 24 C0 16.08 0 8.16 0 0 Z " fill="#9E9E9E" transform="translate(356,145)"/>
<path d="M0 0 C0.33 0.99 0.66 1.98 1 3 C-0.546875 3.2784375 -0.546875 3.2784375 -2.125 3.5625 C-6.89826027 4.93457076 -9.30449988 7.97308619 -12 12 C-14.59276902 16.8398355 -15.52753186 20.51366863 -15 26 C-14.34 26.99 -13.68 27.98 -13 29 C-10.85866817 29.32627559 -10.85866817 29.32627559 -8.5 29.125 C-4.17159763 28.91420118 -4.17159763 28.91420118 -2 30 C-2.33 31.65 -2.66 33.3 -3 35 C-3.33 34.01 -3.66 33.02 -4 32 C-4.99 32.495 -5.98 32.99 -7 33.5 C-11.28329827 35.30349401 -14.36502243 35.59806162 -19 35 C-23.01917593 31.75045351 -24.82538024 29.62978444 -25.375 24.5 C-25.24323701 17.88789368 -22.25298655 12.48491163 -17.875 7.65625 C-12.37407458 2.52700873 -7.73557285 -0.4550337 0 0 Z " fill="#111111" transform="translate(251,146)"/>
<path d="M0 0 C1.93681161 -0.08107583 3.8745934 -0.13922475 5.8125 -0.1875 C6.89144531 -0.22230469 7.97039062 -0.25710937 9.08203125 -0.29296875 C12 0 12 0 13.88671875 1.23828125 C15.72381084 4.14539892 15.13284007 6.49511306 14.63671875 9.78125 C13.32643472 14.34714774 10.03976421 16.31470086 6.25 18.8125 C2.06193743 20.34275363 -1.59304361 20.26441738 -6 20 C-4.22089072 13.24947898 -2.29561809 6.59379663 0 0 Z " fill="#F7F7F7" transform="translate(185,51)"/>
<path d="M0 0 C3.99143877 0.98035338 5.09195378 1.67068044 7.5625 4.875 C8.61775827 9.66155822 8.55123636 14.07880926 7.5625 18.875 C5.08973136 22.24241078 2.25958164 24.00620912 -1.4375 25.875 C-2.10652344 26.21917969 -2.77554688 26.56335938 -3.46484375 26.91796875 C-8.57775778 29.14506627 -13.91893258 29.54705235 -19.4375 29.875 C-18.4375 26.875 -18.4375 26.875 -15.85546875 25.4453125 C-13.71027352 24.48555164 -11.56444428 23.52720658 -9.41796875 22.5703125 C-5.46034214 20.31918544 -3.0627637 17.93187841 -1.72265625 13.5234375 C-1.64917969 12.77320313 -1.57570313 12.02296875 -1.5 11.25 C-1.40847656 10.49460938 -1.31695312 9.73921875 -1.22265625 8.9609375 C-1.50004628 6.26773246 -2.39115615 5.5729256 -4.4375 3.875 C-5.0975 3.215 -5.7575 2.555 -6.4375 1.875 C-3.4375 -0.125 -3.4375 -0.125 0 0 Z " fill="#0B0B0B" transform="translate(67.4375,130.125)"/>
<path d="M0 0 C-3.3 10.23 -6.6 20.46 -10 31 C-9.01 31 -8.02 31 -7 31 C-7 31.66 -7 32.32 -7 33 C-11.29 33 -15.58 33 -20 33 C-19.61328125 31.99582031 -19.2265625 30.99164063 -18.828125 29.95703125 C-15.55449706 21.38454703 -12.56605536 12.81515489 -10 4 C-10.99 4 -11.98 4 -13 4 C-12.67 3.01 -12.34 2.02 -12 1 C-10.29296875 0.234375 -10.29296875 0.234375 -8.1875 -0.25 C-7.50042969 -0.42015625 -6.81335938 -0.5903125 -6.10546875 -0.765625 C-4 -1 -4 -1 0 0 Z " fill="#0A0A0A" transform="translate(228,147)"/>
<path d="M0 0 C0.99 0 1.98 0 3 0 C3.33 4.62 3.66 9.24 4 14 C11.26 14.33 18.52 14.66 26 15 C26 16.32 26 17.64 26 19 C25.34 19.33 24.68 19.66 24 20 C23.67 21.65 23.34 23.3 23 25 C17.06 25 11.12 25 5 25 C5 23.02 5 21.04 5 19 C3.68 19 2.36 19 1 19 C1 18.01 1 17.02 1 16 C-1.31 16 -3.62 16 -6 16 C-6 15.67 -6 15.34 -6 15 C-3.69 15 -1.38 15 1 15 C1.33 13.35 1.66 11.7 2 10 C1.01 9.67 0.02 9.34 -1 9 C-0.67 6.03 -0.34 3.06 0 0 Z " fill="#585858" transform="translate(357,160)"/>
<path d="M0 0 C0.56074219 0.37125 1.12148437 0.7425 1.69921875 1.125 C1.24660517 2.56431117 0.78688896 4.00138999 0.32421875 5.4375 C-0.05863281 6.63826172 -0.05863281 6.63826172 -0.44921875 7.86328125 C-1.30078125 10.125 -1.30078125 10.125 -3.30078125 13.125 C-2.97078125 13.785 -2.64078125 14.445 -2.30078125 15.125 C-7.17073431 18.30537751 -10.29419428 19.93357901 -16.30078125 19.125 C-18.23828125 18 -18.23828125 18 -19.30078125 16.125 C-19.92578125 13.3125 -19.92578125 13.3125 -19.30078125 10.125 C-15.62480991 5.45934407 -5.98683328 -2.27682624 0 0 Z " fill="#161616" transform="translate(140.30078125,161.875)"/>
<path d="M0 0 C0.5259375 0.22945313 1.051875 0.45890625 1.59375 0.6953125 C0.64525753 5.43777486 -0.96003451 10.24909701 -4.40625 13.6953125 C-4.53 14.3553125 -4.65375 15.0153125 -4.78125 15.6953125 C-5.40625 17.6953125 -5.40625 17.6953125 -7.03125 18.9453125 C-10.30301826 19.97850248 -12.9978352 20.00516839 -16.40625 19.6953125 C-18.34375 18.5078125 -18.34375 18.5078125 -19.40625 16.6953125 C-20.01561815 13.38731396 -19.66417704 12.08064928 -17.78515625 9.2734375 C-15.06107578 6.32123207 -12.44314052 4.71043977 -8.90625 2.8203125 C-7.7821875 2.20414062 -6.658125 1.58796875 -5.5 0.953125 C-2.40625 -0.3046875 -2.40625 -0.3046875 0 0 Z " fill="#121212" transform="translate(225.40625,79.3046875)"/>
<path d="M0 0 C1.65 0.99 3.3 1.98 5 3 C4.67 13.56 4.34 24.12 4 35 C-1.28 35 -6.56 35 -12 35 C-11.98839844 32.95296875 -11.97679687 30.9059375 -11.96484375 28.796875 C-11.95788888 26.80778118 -11.95097002 24.81868706 -11.94506836 22.82958984 C-11.94004882 21.45035027 -11.93323181 20.07111598 -11.92456055 18.69189453 C-11.9123908 16.70607817 -11.90728367 14.72022251 -11.90234375 12.734375 C-11.89710693 11.54038086 -11.89187012 10.34638672 -11.88647461 9.11621094 C-11.98058054 6.53305383 -12.23373845 4.44991581 -13 2 C-8.78972771 -0.10513615 -4.63628015 -0.81661753 0 0 Z M-10 7 C-10.80424324 16.04773645 -11.09175265 24.91648779 -11 34 C-6.71 34 -2.42 34 2 34 C2 25.09 2 16.18 2 7 C-1.96 7 -5.92 7 -10 7 Z " fill="#777779" transform="translate(317,135)"/>
<path d="M0 0 C0.99 0 1.98 0 3 0 C2.67 2.97 2.34 5.94 2 9 C3.32 9 4.64 9 6 9 C6.125 14.75 6.125 14.75 5 17 C1.37 16.67 -2.26 16.34 -6 16 C-4.68 15.34 -3.36 14.68 -2 14 C-6.95 13.67 -11.9 13.34 -17 13 C-17 10.03 -17 7.06 -17 4 C-16.34 4 -15.68 4 -15 4 C-15 4.66 -15 5.32 -15 6 C-12.03 6 -9.06 6 -6 6 C-6 5.01 -6 4.02 -6 3 C-4.02 3 -2.04 3 0 3 C0 2.01 0 1.02 0 0 Z " fill="#9E9E9E" transform="translate(356,170)"/>
<path d="M0 0 C0 4.62 0 9.24 0 14 C-3.96 14 -7.92 14 -12 14 C-12 9.71 -12 5.42 -12 1 C-7 0 -7 0 0 0 Z " fill="#B7B7B8" transform="translate(348,155)"/>
<path d="M0 0 C1.32 0.66 2.64 1.32 4 2 C4 10.25 4 18.5 4 27 C2.02 27 0.04 27 -2 27 C-2 18.42 -2 9.84 -2 1 C-1.34 0.67 -0.68 0.34 0 0 Z " fill="#FBFBFB" transform="translate(352,142)"/>
<path d="M0 0 C0.33 1.32 0.66 2.64 1 4 C1.66 4 2.32 4 3 4 C3 2.68 3 1.36 3 0 C5.31 0 7.62 0 10 0 C10 1.65 10 3.3 10 5 C7.03 4.505 7.03 4.505 4 4 C4 4.66 4 5.32 4 6 C3.34 6 2.68 6 2 6 C2 9.3 2 12.6 2 16 C2.66 16 3.32 16 4 16 C3.67 14.35 3.34 12.7 3 11 C5.375 9.9375 5.375 9.9375 8 9 C8.66 9.33 9.32 9.66 10 10 C10 12.64 10 15.28 10 18 C6.37 18.33 2.74 18.66 -1 19 C-1 18.01 -1 17.02 -1 16 C-1.99 16 -2.98 16 -4 16 C-4 15.34 -4 14.68 -4 14 C-3.01 14 -2.02 14 -1 14 C-1 12.68 -1 11.36 -1 10 C-1.66 10 -2.32 10 -3 10 C-2.67 9.34 -2.34 8.68 -2 8 C-1.34 8.33 -0.68 8.66 0 9 C0 6.03 0 3.06 0 0 Z " fill="#B7B7B7" transform="translate(369,150)"/>
<path d="M0 0 C3.96 0 7.92 0 12 0 C12 3.96 12 7.92 12 12 C10.68 11.67 9.36 11.34 8 11 C7.67 11.33 7.34 11.66 7 12 C4.66702567 12.04092937 2.33294775 12.04241723 0 12 C0 8.04 0 4.08 0 0 Z " fill="#E5E5E6" transform="translate(336,142)"/>
<path d="M0 0 C0.99 0.33 1.98 0.66 3 1 C2.67 10.24 2.34 19.48 2 29 C-3.28 29 -8.56 29 -14 29 C-14 21.41 -14 13.82 -14 6 C-13.67 6 -13.34 6 -13 6 C-12.67 13.26 -12.34 20.52 -12 28 C-8.04 28 -4.08 28 0 28 C0 23.38 0 18.76 0 14 C-5.94 14.495 -5.94 14.495 -12 15 C-12 14.34 -12 13.68 -12 13 C-8.535 12.505 -8.535 12.505 -5 12 C-4.67 10.02 -4.34 8.04 -4 6 C-3.67 6 -3.34 6 -3 6 C-3 8.31 -3 10.62 -3 13 C-2.01 13 -1.02 13 0 13 C0 8.71 0 4.42 0 0 Z " fill="#919192" transform="translate(348,141)"/>
<path d="M0 0 C6.93 0 13.86 0 21 0 C21 0.33 21 0.66 21 1 C19.02 1 17.04 1 15 1 C15 1.66 15 2.32 15 3 C13.35 3.33 11.7 3.66 10 4 C10 4.66 10 5.32 10 6 C9.01 5.67 8.02 5.34 7 5 C6.01 5 5.02 5 4 5 C4.33 5.66 4.66 6.32 5 7 C3.35 7.33 1.7 7.66 0 8 C0 8.66 0 9.32 0 10 C-1.65 10 -3.3 10 -5 10 C-6.10844919 6.67465243 -5.84454356 4.37817425 -5 1 C-3.35 1 -1.7 1 0 1 C0 0.67 0 0.34 0 0 Z " fill="#6B6B6B" transform="translate(362,136)"/>
<path d="M0 0 C3.66666667 0 7.33333333 0 11 0 C11 0.99 11 1.98 11 3 C9.35 3 7.7 3 6 3 C6 5.31 6 7.62 6 10 C4.35 10 2.7 10 1 10 C0.67 10.99 0.34 11.98 0 13 C-1.45823212 13.0270043 -2.91660675 13.04639787 -4.375 13.0625 C-5.18710937 13.07410156 -5.99921875 13.08570313 -6.8359375 13.09765625 C-9 13 -9 13 -11 12 C-11 11.34 -11 10.68 -11 10 C-5.555 9.505 -5.555 9.505 0 9 C-0.185625 7.88625 -0.37125 6.7725 -0.5625 5.625 C-1 2 -1 2 0 0 Z " fill="#494949" transform="translate(319,173)"/>
<path d="M0 0 C7.92 0.33 15.84 0.66 24 1 C24 2.32 24 3.64 24 5 C23.01 5.495 23.01 5.495 22 6 C20.86649466 8.01669827 20.86649466 8.01669827 20 10 C18 7 18 7 18 4 C16.68 4 15.36 4 14 4 C14.33 5.65 14.66 7.3 15 9 C14.01 9 13.02 9 12 9 C11.67 7.02 11.34 5.04 11 3 C9.68 2.67 8.36 2.34 7 2 C7 4.31 7 6.62 7 9 C6.01 9 5.02 9 4 9 C4 6.69 4 4.38 4 2 C3.01 2.33 2.02 2.66 1 3 C0.67 2.01 0.34 1.02 0 0 Z " fill="#333333" transform="translate(359,174)"/>
<path d="M0 0 C2.64 0 5.28 0 8 0 C8 3.96 8 7.92 8 12 C5.36 12 2.72 12 0 12 C0 8.04 0 4.08 0 0 Z " fill="#D5D5D6" transform="translate(311,142)"/>
<path d="M0 0 C0.33 0.99 0.66 1.98 1 3 C-1.31 2.67 -3.62 2.34 -6 2 C-6 2.33 -6 2.66 -6 3 C-10.95 3.33 -15.9 3.66 -21 4 C-21.66 6.64 -22.32 9.28 -23 12 C-23.99 11.67 -24.98 11.34 -26 11 C-26 10.01 -26 9.02 -26 8 C-25.01 8 -24.02 8 -23 8 C-23.33 5.69 -23.66 3.38 -24 1 C-23.33613281 0.87882813 -22.67226563 0.75765625 -21.98828125 0.6328125 C-16.54627981 -0.32300753 -16.54627981 -0.32300753 -11.4375 -2.3125 C-7.44476191 -3.4386569 -3.59073204 -1.93632451 0 0 Z " fill="#676767" transform="translate(379,132)"/>
<path d="M0 0 C6.9904502 0.34379263 6.9904502 0.34379263 10.5 2.625 C12.53164129 5.84176538 12.28668933 8.27303871 12 12 C9.03 12 6.06 12 3 12 C3.185625 10.906875 3.37125 9.81375 3.5625 8.6875 C4.2578068 5.06375867 4.2578068 5.06375867 3 2 C0.98491642 1.26676204 0.98491642 1.26676204 -1 1 C-0.67 0.67 -0.34 0.34 0 0 Z " fill="#090909" transform="translate(294,64)"/>
<path d="M0 0 C0 0.99 0 1.98 0 3 C-1.60875 3.309375 -1.60875 3.309375 -3.25 3.625 C-7.77999451 5.28599799 -8.47446572 7.04332962 -11 11 C-13.75 11.875 -13.75 11.875 -16 12 C-16.33 10.35 -16.66 8.7 -17 7 C-12.56298124 2.99237015 -6.08324024 -2.02774675 0 0 Z " fill="#151515" transform="translate(229,66)"/>
<path d="M0 0 C7.75 -0.125 7.75 -0.125 10 1 C11.1577506 4.47325181 11.06866652 7.36067448 11 11 C6.71 11 2.42 11 -2 11 C2 9 2 9 4 9 C4 7.35 4 5.7 4 4 C2.68 3.34 1.36 2.68 0 2 C0 1.34 0 0.68 0 0 Z " fill="#060606" transform="translate(132,65)"/>
<path d="M0 0 C0.33 0 0.66 0 1 0 C1 15.84 1 31.68 1 48 C2.32 48 3.64 48 5 48 C5.33 50.31 5.66 52.62 6 55 C4.02 55 2.04 55 0 55 C0 36.85 0 18.7 0 0 Z " fill="#A5A6A7" transform="translate(297,128)"/>
<path d="M0 0 C2.31 0 4.62 0 7 0 C7 3.96 7 7.92 7 12 C4.69 12 2.38 12 0 12 C0 8.04 0 4.08 0 0 Z " fill="#DCDCDD" transform="translate(336,156)"/>
<path d="M0 0 C0.99 0.33 1.98 0.66 3 1 C3.94921875 3.72265625 3.94921875 3.72265625 4.6875 7.0625 C5.06455078 8.71958984 5.06455078 8.71958984 5.44921875 10.41015625 C5.63097656 11.26480469 5.81273437 12.11945313 6 13 C4.68 13 3.36 13 2 13 C1.67 13.99 1.34 14.98 1 16 C0.34 16 -0.32 16 -1 16 C-1 15.01 -1 14.02 -1 13 C-1.66 13 -2.32 13 -3 13 C-2.45144652 8.428721 -1.58255197 4.32564205 0 0 Z " fill="#E4E4E4" transform="translate(251,83)"/>
<path d="M0 0 C0.66 0 1.32 0 2 0 C4.1519437 3.22791555 4.20086443 4.28400809 4 8 C1.59454362 9.20272819 0.05003047 9.10071472 -2.625 9.0625 C-3.85089844 9.04896484 -3.85089844 9.04896484 -5.1015625 9.03515625 C-6.04128906 9.01775391 -6.04128906 9.01775391 -7 9 C-7 6.69 -7 4.38 -7 2 C-3.535 1.505 -3.535 1.505 0 1 C0 0.67 0 0.34 0 0 Z " fill="#909090" transform="translate(315,174)"/>
<path d="M0 0 C-0.56494937 3.95464558 -1.41827177 6.90192613 -4 10 C-7.6875 10.8125 -7.6875 10.8125 -11 11 C-11.375 8.8125 -11.375 8.8125 -11 6 C-4.72727273 0 -4.72727273 0 0 0 Z " fill="#E7E7E7" transform="translate(141,164)"/>
<path d="M0 0 C-0.42423244 1.46224799 -0.86490245 2.91973412 -1.3125 4.375 C-1.55613281 5.18710938 -1.79976562 5.99921875 -2.05078125 6.8359375 C-3 9 -3 9 -6 11 C-8.6875 11.125 -8.6875 11.125 -11 11 C-11.3125 8.75 -11.3125 8.75 -11 6 C-7.97837338 3.06230745 -4.38311399 0 0 0 Z " fill="#EBEBEB" transform="translate(226,82)"/>
<path d="M0 0 C-0.33 0.99 -0.66 1.98 -1 3 C-1.66 3 -2.32 3 -3 3 C-3.268125 3.94875 -3.53625 4.8975 -3.8125 5.875 C-5 9 -5 9 -8 11 C-10.1875 10.625 -10.1875 10.625 -12 10 C-12 8.68 -12 7.36 -12 6 C-5.58139535 0 -5.58139535 0 0 0 Z " fill="#1B1B1B" transform="translate(139,149)"/>
<path d="M0 0 C0.66 0.66 1.32 1.32 2 2 C1.67 3.65 1.34 5.3 1 7 C-3.29 7 -7.58 7 -12 7 C-5.91469194 -0.60663507 -5.91469194 -0.60663507 0 0 Z " fill="#ECECEC" transform="translate(135,67)"/>
<path d="M0 0 C5.94 0 11.88 0 18 0 C18 0.99 18 1.98 18 3 C15.03 3 12.06 3 9 3 C9 2.34 9 1.68 9 1 C8.34 1 7.68 1 7 1 C7 3.97 7 6.94 7 10 C11.29 10 15.58 10 20 10 C20 10.33 20 10.66 20 11 C17.37504621 11.16742302 14.75004205 11.3339717 12.125 11.5 C11.00544922 11.57154297 11.00544922 11.57154297 9.86328125 11.64453125 C4.2265625 12 4.2265625 12 2 12 C2 11.34 2 10.68 2 10 C3.32 10 4.64 10 6 10 C6 7.03 6 4.06 6 1 C4.02 1 2.04 1 0 1 C0 0.67 0 0.34 0 0 Z " fill="#373737" transform="translate(332,173)"/>
<path d="M0 0 C-0.33 2.31 -0.66 4.62 -1 7 C-3.3260857 7.38063221 -5.66055264 7.71269945 -8 8 C-9 7 -9 7 -9.3125 4.625 C-9 2 -9 2 -7.3125 0.125 C-4.42729162 -1.27861489 -3.01268757 -0.92054342 0 0 Z " fill="#0E0E0E" transform="translate(232,132)"/>
<path d="M0 0 C0.33 0.99 0.66 1.98 1 3 C-0.65 3.33 -2.3 3.66 -4 4 C-3.67 4.66 -3.34 5.32 -3 6 C-5.98241547 6.77321882 -8.97580475 7.41196203 -12 8 C-12.33 6.02 -12.66 4.04 -13 2 C-8.50343896 -0.24828052 -4.92127034 -0.16682272 0 0 Z " fill="#434345" transform="translate(317,135)"/>
<path d="M0 0 C1 1 1 1 1.125 3.5 C1 6 1 6 0 7 C-1.85287502 7.07226502 -3.70833878 7.0838122 -5.5625 7.0625 C-6.57441406 7.05347656 -7.58632813 7.04445313 -8.62890625 7.03515625 C-9.41136719 7.02355469 -10.19382812 7.01195313 -11 7 C-8.54746758 1.77081194 -6.03365261 -0.65228677 0 0 Z " fill="#F1F1F1" transform="translate(297,67)"/>
<path d="M0 0 C0.78375 0.04125 1.5675 0.0825 2.375 0.125 C2.375 0.785 2.375 1.445 2.375 2.125 C3.695 1.795 5.015 1.465 6.375 1.125 C4.92869928 5.70495227 4.92869928 5.70495227 2.5625 7.5 C-0.1530149 8.2758614 -1.93298849 7.87278098 -4.625 7.125 C-4.75 4.75 -4.75 4.75 -4.625 2.125 C-2.625 0.125 -2.625 0.125 0 0 Z " fill="#111111" transform="translate(66.625,188.875)"/>
<path d="M0 0 C5.28 0 10.56 0 16 0 C16 1.32 16 2.64 16 4 C10.72 4 5.44 4 0 4 C0 2.68 0 1.36 0 0 Z " fill="#F4F4F4" transform="translate(363,144)"/>
<path d="M0 0 C1.65 0 3.3 0 5 0 C5 3.96 5 7.92 5 12 C3.35 12 1.7 12 0 12 C0 8.04 0 4.08 0 0 Z " fill="#D3D3D3" transform="translate(336,142)"/>
<path d="M0 0 C0.33 1.32 0.66 2.64 1 4 C6.28 4 11.56 4 17 4 C17 4.66 17 5.32 17 6 C14.69 6 12.38 6 10 6 C10 7.32 10 8.64 10 10 C9.34 10 8.68 10 8 10 C8 8.68 8 7.36 8 6 C5.36 6 2.72 6 0 6 C0 8.64 0 11.28 0 14 C-0.33 14 -0.66 14 -1 14 C-1.02694851 12.04174127 -1.04637218 10.08337774 -1.0625 8.125 C-1.07410156 7.03445312 -1.08570313 5.94390625 -1.09765625 4.8203125 C-1 2 -1 2 0 0 Z " fill="#89898A" transform="translate(362,144)"/>
<path d="M0 0 C4.29 0 8.58 0 13 0 C13.33 0.99 13.66 1.98 14 3 C10.98968256 3.93423645 10.13349732 4.04449911 7 3 C6.7525 3.639375 6.505 4.27875 6.25 4.9375 C5 7 5 7 2.875 7.75 C1.946875 7.87375 1.946875 7.87375 1 8 C1.66 6.35 2.32 4.7 3 3 C2.01 3 1.02 3 0 3 C0 2.01 0 1.02 0 0 Z " fill="#292929" transform="translate(94,146)"/>
<path d="M0 0 C2.64 0 5.28 0 8 0 C8 2.31 8 4.62 8 7 C5.36 7 2.72 7 0 7 C0 4.69 0 2.38 0 0 Z " fill="#939393" transform="translate(326,176)"/>
<path d="M0 0 C3.27152618 0.10986968 6.54190114 0.2404997 9.8125 0.375 C10.74126953 0.4059375 11.67003906 0.436875 12.62695312 0.46875 C13.51962891 0.50742188 14.41230469 0.54609375 15.33203125 0.5859375 C16.15421143 0.6173584 16.9763916 0.6487793 17.82348633 0.68115234 C20 1 20 1 23 3 C13.43 3 3.86 3 -6 3 C-6 2.67 -6 2.34 -6 2 C-4.02 2 -2.04 2 0 2 C0 1.34 0 0.68 0 0 Z " fill="#D1D1D2" transform="translate(361,185)"/>
<path d="M0 0 C3.4375 1.5 3.4375 1.5 6 3 C6 3.66 6 4.32 6 5 C1.81710991 5.08201745 -1.9188402 4.88241293 -6 4 C-7.32 4 -8.64 4 -10 4 C-9.67 3.01 -9.34 2.02 -9 1 C-5.92805092 -0.53597454 -3.39755707 -0.2265038 0 0 Z " fill="#656566" transform="translate(345,135)"/>
<path d="M0 0 C0.66 0 1.32 0 2 0 C2 0.66 2 1.32 2 2 C3.65 2 5.3 2 7 2 C6.34 3.98 5.68 5.96 5 8 C7.64 8 10.28 8 13 8 C13 8.33 13 8.66 13 9 C8.71 9 4.42 9 0 9 C0 6.03 0 3.06 0 0 Z " fill="#838383" transform="translate(339,174)"/>
<path d="M0 0 C1.32 0 2.64 0 4 0 C4 4.29 4 8.58 4 13 C2.68 13 1.36 13 0 13 C0 8.71 0 4.42 0 0 Z " fill="#E0E0E1" transform="translate(306,156)"/>
<path d="M0 0 C6.93 0 13.86 0 21 0 C21 0.33 21 0.66 21 1 C19.02 1 17.04 1 15 1 C15 1.66 15 2.32 15 3 C13.35 3.33 11.7 3.66 10 4 C10 4.66 10 5.32 10 6 C7 5 7 5 6 4 C4.00041636 3.95919217 1.99954746 3.95745644 0 4 C0 2.68 0 1.36 0 0 Z " fill="#505050" transform="translate(362,136)"/>
<path d="M0 0 C1.65 0 3.3 0 5 0 C5 0.99 5 1.98 5 3 C6.32 3 7.64 3 9 3 C9 5.31 9 7.62 9 10 C7.68 10 6.36 10 5 10 C4.731875 9.030625 4.46375 8.06125 4.1875 7.0625 C3.795625 6.051875 3.40375 5.04125 3 4 C2.01 3.67 1.02 3.34 0 3 C0 2.01 0 1.02 0 0 Z " fill="#6B6B6C" transform="translate(298,173)"/>
<path d="M0 0 C-0.99 0.495 -0.99 0.495 -2 1 C-1.67 1.66 -1.34 2.32 -1 3 C-6.61 3 -12.22 3 -18 3 C-18 2.34 -18 1.68 -18 1 C-18.66 0.67 -19.32 0.34 -20 0 C-17.41703983 -0.19522373 -14.83395921 -0.38144403 -12.25 -0.5625 C-11.52039063 -0.61857422 -10.79078125 -0.67464844 -10.0390625 -0.73242188 C-6.45046349 -0.97709908 -3.44972775 -0.99666259 0 0 Z " fill="#666666" transform="translate(356,184)"/>
<path d="M0 0 C1.65 0.33 3.3 0.66 5 1 C5.33 3.31 5.66 5.62 6 8 C5.33613281 7.84660156 4.67226563 7.69320312 3.98828125 7.53515625 C0.39844078 6.89226979 -3.17795419 6.64966009 -6.8125 6.4375 C-7.85180664 6.37272461 -7.85180664 6.37272461 -8.91210938 6.30664062 C-10.60788686 6.20138547 -12.30392052 6.10027137 -14 6 C-14 5.67 -14 5.34 -14 5 C-9.38 5 -4.76 5 0 5 C0 3.35 0 1.7 0 0 Z " fill="#909090" transform="translate(380,180)"/>
<path d="M0 0 C0.99 0 1.98 0 3 0 C3 0.99 3 1.98 3 3 C4.32 3 5.64 3 7 3 C7.125 8.75 7.125 8.75 6 11 C4.02 11 2.04 11 0 11 C0.66 10.34 1.32 9.68 2 9 C2.6425235 6.93125966 2.6425235 6.93125966 3 5 C2.67 5.33 2.34 5.66 2 6 C1.34 6 0.68 6 0 6 C0 4.02 0 2.04 0 0 Z " fill="#8E8E8E" transform="translate(355,176)"/>
<path d="M0 0 C2.475 0.495 2.475 0.495 5 1 C4.67 4.96 4.34 8.92 4 13 C2.66666667 13 1.33333333 13 0 13 C0 8.71 0 4.42 0 0 Z " fill="#B2B2B1" transform="translate(356,145)"/>
<path d="M0 0 C1.32 0.66 2.64 1.32 4 2 C3.67 3.65 3.34 5.3 3 7 C1.20759337 6.88610125 -0.58394835 6.75852313 -2.375 6.625 C-3.87160156 6.52058594 -3.87160156 6.52058594 -5.3984375 6.4140625 C-8 6 -8 6 -10 4 C-8.66666667 3.66666667 -7.33333333 3.33333333 -6 3 C-4.948125 2.7215625 -4.948125 2.7215625 -3.875 2.4375 C-2 2 -2 2 0 2 C0 1.34 0 0.68 0 0 Z " fill="#6B6C6D" transform="translate(318,136)"/>
<path d="M0 0 C1.65 0 3.3 0 5 0 C5 1.32 5 2.64 5 4 C4.01 4 3.02 4 2 4 C2.33 4.99 2.66 5.98 3 7 C1.68 7 0.36 7 -1 7 C-0.67 8.65 -0.34 10.3 0 12 C-0.66 12 -1.32 12 -2 12 C-2 8.7 -2 5.4 -2 2 C-1.34 2 -0.68 2 0 2 C0 1.34 0 0.68 0 0 Z " fill="#707070" transform="translate(373,154)"/>
<path d="M0 0 C0 0.99 0 1.98 0 3 C1.98 3 3.96 3 6 3 C6 2.34 6 1.68 6 1 C5.34 0.67 4.68 0.34 4 0 C5.98 0 7.96 0 10 0 C9.67 1.32 9.34 2.64 9 4 C4.05 4 -0.9 4 -6 4 C-5.34 3.34 -4.68 2.68 -4 2 C-4.66 1.34 -5.32 0.68 -6 0 C-2.25 -1.125 -2.25 -1.125 0 0 Z " fill="#949496" transform="translate(370,140)"/>
<path d="M0 0 C0.99 0 1.98 0 3 0 C3 4.29 3 8.58 3 13 C2.01 13 1.02 13 0 13 C0 8.71 0 4.42 0 0 Z " fill="#E8E8E9" transform="translate(316,156)"/>
<path d="M0 0 C0.99 0 1.98 0 3 0 C3 4.29 3 8.58 3 13 C2.01 13 1.02 13 0 13 C0 8.71 0 4.42 0 0 Z " fill="#E8E8E8" transform="translate(345,156)"/>
<path d="M0 0 C0.99 0 1.98 0 3 0 C3 4.29 3 8.58 3 13 C2.01 13 1.02 13 0 13 C0 8.71 0 4.42 0 0 Z " fill="#F4F3F4" transform="translate(311,156)"/>
<path d="M0 0 C0.99 0 1.98 0 3 0 C3 3.96 3 7.92 3 12 C1.68 12 0.36 12 -1 12 C-0.67 8.04 -0.34 4.08 0 0 Z " fill="#DFDFE0" transform="translate(307,142)"/>
<path d="M0 0 C0.598125 0.20625 1.19625 0.4125 1.8125 0.625 C1.8125 2.935 1.8125 5.245 1.8125 7.625 C0.1625 7.295 -1.4875 6.965 -3.1875 6.625 C-3.1875 5.965 -3.1875 5.305 -3.1875 4.625 C-3.8475 4.625 -4.5075 4.625 -5.1875 4.625 C-5.1875 3.635 -5.1875 2.645 -5.1875 1.625 C-2.1875 -0.375 -2.1875 -0.375 0 0 Z " fill="#D4D4D4" transform="translate(377.1875,159.375)"/>
<path d="M0 0 C1.65 0 3.3 0 5 0 C5 2.31 5 4.62 5 7 C3.35 7 1.7 7 0 7 C0 4.69 0 2.38 0 0 Z " fill="#A8A8A8" transform="translate(308,176)"/>
<path d="M0 0 C0.99 0 1.98 0 3 0 C3.33 0.99 3.66 1.98 4 3 C4.33 2.01 4.66 1.02 5 0 C5 2.97 5 5.94 5 9 C4.34 9 3.68 9 3 9 C3 7.68 3 6.36 3 5 C2.01 5 1.02 5 0 5 C0 4.34 0 3.68 0 3 C-1.98 3 -3.96 3 -6 3 C-6 2.67 -6 2.34 -6 2 C-4.02 2 -2.04 2 0 2 C0 1.34 0 0.68 0 0 Z " fill="#797979" transform="translate(380,170)"/>
<path d="M0 0 C3 1 3 1 4 2 C4.04092937 4.33297433 4.04241723 6.66705225 4 9 C2.68 9 1.36 9 0 9 C0 6.03 0 3.06 0 0 Z " fill="#8A8A8A" transform="translate(321,174)"/>
<path d="M0 0 C2.475 0.99 2.475 0.99 5 2 C5 3.98 5 5.96 5 8 C3.35 7.67 1.7 7.34 0 7 C0 4.69 0 2.38 0 0 Z " fill="#848484" transform="translate(364,151)"/>
<path d="M0 0 C1.32 0 2.64 0 4 0 C4.33 2.31 4.66 4.62 5 7 C3.02 7 1.04 7 -1 7 C-0.67 4.69 -0.34 2.38 0 0 Z " fill="#9A9A9B" transform="translate(298,176)"/>
<path d="M0 0 C0.66 1.32 1.32 2.64 2 4 C0.54176788 4.0270043 -0.91660675 4.04639787 -2.375 4.0625 C-3.18710937 4.07410156 -3.99921875 4.08570313 -4.8359375 4.09765625 C-7 4 -7 4 -9 3 C-9 2.34 -9 1.68 -9 1 C-4.545 0.505 -4.545 0.505 0 0 Z " fill="#6B6B6B" transform="translate(317,182)"/>
<path d="M0 0 C0.66 0 1.32 0 2 0 C2 3.96 2 7.92 2 12 C1.01 12 0.02 12 -1 12 C-0.67 8.04 -0.34 4.08 0 0 Z " fill="#F5F5F5" transform="translate(341,156)"/>
<path d="M0 0 C6.27 0 12.54 0 19 0 C19 0.99 19 1.98 19 3 C19.66 3.33 20.32 3.66 21 4 C18 5 18 5 15.8125 4.0625 C15.214375 3.711875 14.61625 3.36125 14 3 C15.32 3 16.64 3 18 3 C18 2.34 18 1.68 18 1 C12.06 1 6.12 1 0 1 C0 0.67 0 0.34 0 0 Z " fill="#ABABAB" transform="translate(264,64)"/>
<path d="M0 0 C0.99 0 1.98 0 3 0 C3 2.97 3 5.94 3 9 C1.68 9.33 0.36 9.66 -1 10 C-0.67 6.7 -0.34 3.4 0 0 Z " fill="#6F6F6F" transform="translate(357,160)"/>
<path d="M0 0 C-0.33 1.65 -0.66 3.3 -1 5 C-1.33 4.01 -1.66 3.02 -2 2 C-2.99 2.66 -3.98 3.32 -5 4 C-5.99 3.67 -6.98 3.34 -8 3 C-7.34 3 -6.68 3 -6 3 C-6 2.34 -6 1.68 -6 1 C-7.32 0.67 -8.64 0.34 -10 0 C-6.33694766 -0.74926071 -3.57644848 -1.2380014 0 0 Z " fill="#3A3A3A" transform="translate(249,176)"/>
<path d="M0 0 C3.3 0 6.6 0 10 0 C10 0.99 10 1.98 10 3 C3.375 3.125 3.375 3.125 0 2 C0 1.34 0 0.68 0 0 Z " fill="#9C9C9C" transform="translate(389,184)"/>
<path d="M0 0 C0.99 0 1.98 0 3 0 C2.67 1.65 2.34 3.3 2 5 C-0.64 5.33 -3.28 5.66 -6 6 C-6 5.01 -6 4.02 -6 3 C-4.02 3 -2.04 3 0 3 C0 2.01 0 1.02 0 0 Z " fill="#898989" transform="translate(356,170)"/>
<path d="M0 0 C0.99 0.33 1.98 0.66 3 1 C2.34 1 1.68 1 1 1 C1 2.32 1 3.64 1 5 C2.32 5.66 3.64 6.32 5 7 C5 7.66 5 8.32 5 9 C3.35 9 1.7 9 0 9 C-1.10844919 5.67465243 -0.84454356 3.37817425 0 0 Z " fill="#484848" transform="translate(357,137)"/>
<path d="M0 0 C0 0.33 0 0.66 0 1 C-1.051875 1.20625 -2.10375 1.4125 -3.1875 1.625 C-7.64407236 2.85689805 -9.35843582 5.31781963 -12 9 C-12.33 8.34 -12.66 7.68 -13 7 C-9.82038051 0.64076103 -6.92517937 -0.26132752 0 0 Z " fill="#BCBCBC" transform="translate(200,152)"/>
<path d="M0 0 C0 0.66 0 1.32 0 2 C-1.62324086 2.22162329 -3.248721 2.42689803 -4.875 2.625 C-6.23238281 2.79902344 -6.23238281 2.79902344 -7.6171875 2.9765625 C-8.40351563 2.98429688 -9.18984375 2.99203125 -10 3 C-10.66 2.34 -11.32 1.68 -12 1 C-8.0186217 -0.3271261 -4.14954773 -0.06915913 0 0 Z " fill="#6E6E6E" transform="translate(317,135)"/>
<path d="M0 0 C-0.33 0.99 -0.66 1.98 -1 3 C-2.98 3.33 -4.96 3.66 -7 4 C-7.33 3.01 -7.66 2.02 -8 1 C-4.93251126 -0.86240388 -3.40254489 -1.2151946 0 0 Z " fill="#2B2B2B" transform="translate(227,80)"/>
<path d="M0 0 C-0.33 0.99 -0.66 1.98 -1 3 C-1.515625 2.835 -2.03125 2.67 -2.5625 2.5 C-5.73363876 1.84951 -8.77218334 1.9379266 -12 2 C-11.67 1.34 -11.34 0.68 -11 0 C-9.00390625 -0.44921875 -9.00390625 -0.44921875 -6.5625 -0.6875 C-5.75941406 -0.77386719 -4.95632813 -0.86023438 -4.12890625 -0.94921875 C-2 -1 -2 -1 0 0 Z " fill="#A2A2A4" transform="translate(353,140)"/>
<path d="M0 0 C1.65 0 3.3 0 5 0 C4.814375 0.61875 4.62875 1.2375 4.4375 1.875 C3.76313824 4.04160178 3.76313824 4.04160178 5 6 C3.35 6.66 1.7 7.32 0 8 C-0.33 7.01 -0.66 6.02 -1 5 C0.32 4.01 1.64 3.02 3 2 C2.01 1.34 1.02 0.68 0 0 Z " fill="#424242" transform="translate(263,67)"/>
<path d="M0 0 C0.99 0.99 1.98 1.98 3 3 C1.25 5.0625 1.25 5.0625 -1 7 C-3.25 6.75 -3.25 6.75 -5 6 C-4.360625 5.38125 -3.72125 4.7625 -3.0625 4.125 C-0.96116416 2.17402388 -0.96116416 2.17402388 0 0 Z " fill="#2D2D2D" transform="translate(74,184)"/>
<path d="M0 0 C0 0.99 0 1.98 0 3 C-2.64 3 -5.28 3 -8 3 C-8 2.34 -8 1.68 -8 1 C-5.29120665 -0.35439668 -2.99066732 -0.06501451 0 0 Z " fill="#4F4F4F" transform="translate(350,173)"/>
<path d="M0 0 C0.99 0 1.98 0 3 0 C3 2.31 3 4.62 3 7 C2.01 7 1.02 7 0 7 C0 4.69 0 2.38 0 0 Z " fill="#3E3E3D" transform="translate(363,176)"/>
<path d="M0 0 C0.66 0.33 1.32 0.66 2 1 C1.67 2.65 1.34 4.3 1 6 C0.01 6.33 -0.98 6.66 -2 7 C-2.66 7.66 -3.32 8.32 -4 9 C-3.35455571 5.51460083 -1.89865603 2.97180943 0 0 Z " fill="#C6C6C6" transform="translate(153,172)"/>
<path d="M0 0 C0.12375 0.639375 0.2475 1.27875 0.375 1.9375 C0.58125 2.618125 0.7875 3.29875 1 4 C1.66 4.33 2.32 4.66 3 5 C2.01 5.495 2.01 5.495 1 6 C0.53476937 7.89533342 0.53476937 7.89533342 0.375 10.0625 C0.25125 11.361875 0.1275 12.66125 0 14 C-0.33 14 -0.66 14 -1 14 C-1.02694851 12.04174127 -1.04637218 10.08337774 -1.0625 8.125 C-1.07410156 7.03445312 -1.08570313 5.94390625 -1.09765625 4.8203125 C-1 2 -1 2 0 0 Z " fill="#828282" transform="translate(362,144)"/>
<path d="M0 0 C1.32 0 2.64 0 4 0 C4 1.65 4 3.3 4 5 C2.68 5 1.36 5 0 5 C0 3.35 0 1.7 0 0 Z " fill="#ECECED" transform="translate(311,149)"/>
<path d="M0 0 C0.598125 0.350625 1.19625 0.70125 1.8125 1.0625 C1.8125 1.7225 1.8125 2.3825 1.8125 3.0625 C-0.1675 3.0625 -2.1475 3.0625 -4.1875 3.0625 C-4.5175 2.0725 -4.8475 1.0825 -5.1875 0.0625 C-2.1875 -0.9375 -2.1875 -0.9375 0 0 Z " fill="#707072" transform="translate(349.1875,136.9375)"/>
<path d="M0 0 C0.99 0 1.98 0 3 0 C3 0.66 3 1.32 3 2 C3.99 1.34 4.98 0.68 6 0 C6.99 0.33 7.98 0.66 9 1 C8.67 1.66 8.34 2.32 8 3 C5.36 3 2.72 3 0 3 C0 2.01 0 1.02 0 0 Z " fill="#343436" transform="translate(298,184)"/>
<path d="M0 0 C2.25 1.875 2.25 1.875 4 4 C4 4.33 4 4.66 4 5 C2.35 5 0.7 5 -1 5 C-1 4.34 -1 3.68 -1 3 C-1.99 3 -2.98 3 -4 3 C-4 2.34 -4 1.68 -4 1 C-2.25 0.25 -2.25 0.25 0 0 Z " fill="#4D4D4D" transform="translate(307,182)"/>
<path d="M0 0 C0.33 0 0.66 0 1 0 C1 2.31 1 4.62 1 7 C0.01 7 -0.98 7 -2 7 C-2.125 4.625 -2.125 4.625 -2 2 C-1.34 1.34 -0.68 0.68 0 0 Z " fill="#8E8E8D" transform="translate(306,176)"/>
<path d="M0 0 C0 3.63 0 7.26 0 11 C-0.33 11 -0.66 11 -1 11 C-1 8.69 -1 6.38 -1 4 C-2.32 3.34 -3.64 2.68 -5 2 C-1.125 0 -1.125 0 0 0 Z " fill="#9C9C9C" transform="translate(380,156)"/>
<path d="M0 0 C0.66 0.33 1.32 0.66 2 1 C-0.31 3.31 -2.62 5.62 -5 8 C-5.33 7.34 -5.66 6.68 -6 6 C-4 4 -2 2 0 0 Z " fill="#CCCCCC" transform="translate(118,152)"/>
<path d="M0 0 C0.99 0 1.98 0 3 0 C3 1.98 3 3.96 3 6 C2.01 6 1.02 6 0 6 C0 4.02 0 2.04 0 0 Z " fill="#ECECEC" transform="translate(316,142)"/>
<path d="M0 0 C0.66 0.66 1.32 1.32 2 2 C1.34 4.31 0.68 6.62 0 9 C-0.99 8.67 -1.98 8.34 -3 8 C-3 7.01 -3 6.02 -3 5 C-2.01 5 -1.02 5 0 5 C0 3.35 0 1.7 0 0 Z " fill="#767678" transform="translate(356,135)"/>
<path d="M0 0 C2.475 0.99 2.475 0.99 5 2 C3 4 3 4 0 4.25 C-3 4 -3 4 -5 2 C-4.360625 1.855625 -3.72125 1.71125 -3.0625 1.5625 C-1.02454854 1.18992819 -1.02454854 1.18992819 0 0 Z " fill="#5D5D5F" transform="translate(313,138)"/>
<path d="M0 0 C0.33 0.66 0.66 1.32 1 2 C-2.22791555 4.1519437 -3.28400809 4.20086443 -7 4 C-6.67 3.01 -6.34 2.02 -6 1 C-4.02 0.67 -2.04 0.34 0 0 Z " fill="#353535" transform="translate(332,183)"/>
<path d="M0 0 C0.66 0 1.32 0 2 0 C2 1.98 2 3.96 2 6 C1.01 6 0.02 6 -1 6 C-1.042721 4.33388095 -1.04063832 2.66617115 -1 1 C-0.67 0.67 -0.34 0.34 0 0 Z " fill="#F2F2F3" transform="translate(337,148)"/>
<path d="M0 0 C1.65 0 3.3 0 5 0 C5 0.99 5 1.98 5 3 C3.02 3 1.04 3 -1 3 C-0.67 2.01 -0.34 1.02 0 0 Z " fill="#414141" transform="translate(336,136)"/>
<path d="M0 0 C0.99 0.33 1.98 0.66 3 1 C2.40072174 4.35595828 1.15377564 6.37801226 -1 9 C-0.67 6.03 -0.34 3.06 0 0 Z " fill="#DDDDDD" transform="translate(85,53)"/>
</svg>
