<?xml version="1.0" encoding="UTF-8"?>
<svg version="1.1" xmlns="http://www.w3.org/2000/svg" width="426" height="236">
<path d="M0 0 C4.3049777 -0.07451364 8.60960734 -0.12877223 12.91503906 -0.16479492 C14.37767075 -0.17982196 15.84025782 -0.20024955 17.30273438 -0.22631836 C19.4128728 -0.26297267 21.52241226 -0.27978676 23.6328125 -0.29296875 C24.90012207 -0.3086792 26.16743164 -0.32438965 27.47314453 -0.34057617 C32.4922566 0.14410203 35.7380254 1.80444512 39.375 5.25 C41.41051221 8.69471298 41.30860339 11.06530676 41 15 C44.96 15.33 48.92 15.66 53 16 C52.505 18.475 52.505 18.475 52 21 C51.01 21 50.02 21 49 21 C49.495 28.425 49.495 28.425 50 36 C52.97 31.38 55.94 26.76 59 22 C58.01 21.34 57.02 20.68 56 20 C56.66 18.68 57.32 17.36 58 16 C62.29 16 66.58 16 71 16 C71 16.66 71 17.32 71 18 C72.0828125 17.505 72.0828125 17.505 73.1875 17 C76.01697427 15.99396471 78.02895466 15.83022598 81 16 C81.495 16.99 81.495 16.99 82 18 C82.99 17.34 83.98 16.68 85 16 C88.5625 15.75 88.5625 15.75 92 16 C94 18 94 18 94 22 C94.75925781 21.65066406 95.51851563 21.30132812 96.30078125 20.94140625 C97.79158203 20.25884766 97.79158203 20.25884766 99.3125 19.5625 C100.79169922 18.88380859 100.79169922 18.88380859 102.30078125 18.19140625 C106.76425833 16.22127527 110.11103802 15.65078843 115 16 C116.71484375 17.2890625 116.71484375 17.2890625 118 19 C118.1564196 28.07233686 114.14342653 36.62714218 111 45 C111.5775 44.484375 112.155 43.96875 112.75 43.4375 C115 42 115 42 117.140625 42.41015625 C117.75421875 42.60480469 118.3678125 42.79945313 119 43 C120.00380916 40.20964954 121.0031945 37.41785145 122 34.625 C122.28617188 33.8309375 122.57234375 33.036875 122.8671875 32.21875 C123.13789063 31.45820313 123.40859375 30.69765625 123.6875 29.9140625 C123.93886719 29.2123291 124.19023437 28.5105957 124.44921875 27.78759766 C125.0981509 25.99319889 125.0981509 25.99319889 125 24 C124.34 23.67 123.68 23.34 123 23 C123.265625 21.109375 123.265625 21.109375 124 19 C127.88578696 16.56684368 132.45228087 15.57365133 137 16 C137 16.99 137 17.98 137 19 C137.845625 18.505 138.69125 18.01 139.5625 17.5 C143.46172198 15.79852132 145.79052413 15.46424853 150 16 C152.9375 18 152.9375 18 155 20 C155.99 19.34 156.98 18.68 158 18 C162.22286191 15.5881622 165.18705826 15.43849013 170 16 C172.56927996 17.49183998 172.88355149 18.63368458 173.77734375 21.4453125 C174.10417996 26.66322388 172.37064897 30.87950611 170.625 35.75 C170.295 36.70777344 169.965 37.66554687 169.625 38.65234375 C167.24701181 45.50597638 167.24701181 45.50597638 166 48 C168.31 48 170.62 48 173 48 C173.15855469 47.45214844 173.31710938 46.90429688 173.48046875 46.33984375 C175.78987998 38.49294923 178.38591684 30.74925838 181 23 C180.01 22.67 179.02 22.34 178 22 C179 19 179 19 180.890625 18.05078125 C188.75674619 15.58936253 188.75674619 15.58936253 193 16 C191.5591436 23.27253309 189.36620826 30.0862366 186.875 37.0625 C186.50246094 38.11888672 186.12992188 39.17527344 185.74609375 40.26367188 C184.83534623 42.84412317 183.91990295 45.42280144 183 48 C183.99 48 184.98 48 186 48 C186 49.32 186 50.64 186 52 C174.78 52 163.56 52 152 52 C152.33 50.68 152.66 49.36 153 48 C154.32 48 155.64 48 157 48 C157.27263672 46.96552734 157.27263672 46.96552734 157.55078125 45.91015625 C159.00103453 40.48844012 160.55509814 35.15911084 162.44921875 29.875 C163.14092082 27.84597326 163.14092082 27.84597326 163 25 C159.59919423 25.10407917 159.59919423 25.10407917 156 26 C152.87212979 30.0853815 151.44891334 34.99215157 149.8125 39.8125 C149.53986328 40.60076172 149.26722656 41.38902344 148.98632812 42.20117188 C148.31918274 44.13238221 147.65889582 46.06595951 147 48 C147.99 48.33 148.98 48.66 150 49 C149.67 49.99 149.34 50.98 149 52 C143.39 52 137.78 52 132 52 C132.33 50.68 132.66 49.36 133 48 C134.32 48 135.64 48 137 48 C139.42527121 40.02600224 141.72406483 32.01776148 144 24 C140.8716113 24.36497868 138.77733607 24.64076423 136 26 C133.97442287 28.73040177 133.07752132 31.79873334 132 35 C131.08867425 37.35623934 130.17185408 39.7103598 129.25 42.0625 C128.49766441 44.04078003 127.74684361 46.0196401 127 48 C127.99 48 128.98 48 130 48 C130 49.32 130 50.64 130 52 C125.58338849 52.05804281 121.16687504 52.09361104 116.75 52.125 C115.49574219 52.14175781 114.24148437 52.15851563 112.94921875 52.17578125 C111.74394531 52.18222656 110.53867188 52.18867188 109.296875 52.1953125 C107.63156738 52.21102295 107.63156738 52.21102295 105.93261719 52.22705078 C103.03130658 52.00242384 101.50746281 51.36362022 99 50 C98.4225 50.28875 97.845 50.5775 97.25 50.875 C93.67203816 52.66398092 90.98387107 52.37941629 87 52 C84.9375 50.3125 84.9375 50.3125 84 48 C84 44.61718706 84.83306114 43.21001986 86.9375 40.5625 C91.95532384 36.36391271 97.48837714 33.0764098 103.5 30.5 C106.3036545 29.14849834 106.3036545 29.14849834 107.375 25.8125 C107.58125 24.884375 107.7875 23.95625 108 23 C102.52823801 24.04565821 102.52823801 24.04565821 98.875 28.0625 C98.25625 29.031875 97.6375 30.00125 97 31 C94.25 31.875 94.25 31.875 92 32 C91.649375 31.21625 91.29875 30.4325 90.9375 29.625 C88.38334156 26.16452728 86.11777506 25.85463256 82 25 C77.38166102 28.63745283 76.09584947 33.38673779 74.25 38.75 C73.93417969 39.63816406 73.61835937 40.52632812 73.29296875 41.44140625 C72.51841814 43.62423069 71.75453535 45.81019337 71 48 C72.65 48 74.3 48 76 48 C76 49.32 76 50.64 76 52 C69.73 52 63.46 52 57 52 C57.33 50.68 57.66 49.36 58 48 C58.99 47.67 59.98 47.34 61 47 C62.08328732 45.06768123 62.08328732 45.06768123 62.859375 42.66796875 C63.17003906 41.78689453 63.48070313 40.90582031 63.80078125 39.99804688 C64.11402344 39.07056641 64.42726563 38.14308594 64.75 37.1875 C65.07871094 36.27162109 65.40742187 35.35574219 65.74609375 34.41210938 C67.84579779 28.77890627 67.84579779 28.77890627 67 23 C66.34 23 65.68 23 65 23 C63.20130876 25.46464267 61.52710634 27.93857389 59.875 30.5 C58.79823185 32.13805683 57.72140574 33.77607557 56.64453125 35.4140625 C54.7450923 38.32292358 52.84793232 41.23326464 50.95068359 44.14355469 C48.82837535 47.39207518 46.69572362 50.63364017 44.5625 53.875 C43.88880371 54.91462891 43.21510742 55.95425781 42.52099609 57.02539062 C41.87598145 58.00443359 41.2309668 58.98347656 40.56640625 59.9921875 C39.99865479 60.86214355 39.43090332 61.73209961 38.84594727 62.62841797 C36.21651322 66.00658519 33.68725009 68.71879165 29.375 69.4375 C27 69 27 69 25.125 67.75 C24 66 24 66 24.0625 64 C25.31415097 61.32981125 26.3705324 60.35026715 29 59 C32.25 59.3125 32.25 59.3125 35 60 C35.433125 58.88625 35.433125 58.88625 35.875 57.75 C37 55 37 55 38.07177734 53.23535156 C39.33451592 50.19441667 39.12572336 47.76591392 38.9765625 44.484375 C38.925 43.23398438 38.8734375 41.98359375 38.8203125 40.6953125 C38.75585938 39.39335937 38.69140625 38.09140625 38.625 36.75 C38.56828125 35.43257812 38.5115625 34.11515625 38.453125 32.7578125 C38.31168341 29.50465594 38.16026986 26.25227448 38 23 C34.79544568 23 33.21545804 25.38382106 30.94921875 27.4921875 C26.34294543 31.05535684 21.29522273 31.51361289 15.6875 32.125 C14.94693359 32.21136719 14.20636719 32.29773438 13.44335938 32.38671875 C11.62961565 32.59734705 9.81489457 32.79952986 8 33 C7.32968281 34.9570868 6.66385317 36.91571113 6 38.875 C5.62875 39.96554688 5.2575 41.05609375 4.875 42.1796875 C3.901228 44.82620854 3.901228 44.82620854 4 47 C5.65 47.33 7.3 47.66 9 48 C9 49.32 9 50.64 9 52 C0.42 52 -8.16 52 -17 52 C-16.67 50.68 -16.34 49.36 -16 48 C-15.04182373 47.69352539 -14.08364746 47.38705078 -13.09643555 47.07128906 C-9.87289491 46.3081499 -9.87289491 46.3081499 -8.50708008 43.73339844 C-8.16056396 42.7849707 -7.81404785 41.83654297 -7.45703125 40.859375 C-7.05436035 39.78107422 -6.65168945 38.70277344 -6.23681641 37.59179688 C-5.82866699 36.40650391 -5.42051758 35.22121094 -5 34 C-4.78341736 33.3810083 -4.56683472 32.7620166 -4.34368896 32.12426758 C-2.73471664 27.51782801 -1.20377299 22.88761727 0.3125 18.25 C0.77105674 16.85923393 1.23003884 15.46860803 1.68945312 14.078125 C2.7978576 10.72034525 3.90056188 7.36072788 5 4 C3.35 4 1.7 4 0 4 C0 2.68 0 1.36 0 0 Z M18 4 C12.3751151 15.09253423 12.3751151 15.09253423 10 27 C16.05174197 26.73103369 20.24566965 26.09093541 25 22 C28.40831164 17.85475612 30.09867294 14.42701178 30 9 C28.14658666 5.89649551 28.14658666 5.89649551 25 4 C21.28999282 3.58168596 21.28999282 3.58168596 18 4 Z M95 40 C94.12177688 42.08533633 94.12177688 42.08533633 94 44 C96.38111068 44.85039667 97.71350578 45.07366994 100.1875 44.4375 C102.32968097 43.04207762 102.32968097 43.04207762 102.75 39.875 C102.8325 38.92625 102.915 37.9775 103 37 C99.35521088 37 97.90696599 37.85802506 95 40 Z M117 46 C116.67 46.66 116.34 47.32 116 48 C116.66 48 117.32 48 118 48 C117.67 47.34 117.34 46.68 117 46 Z " fill="#020202" transform="translate(36,129)"/>
<path d="M0 0 C0.99 0 1.98 0 3 0 C3 13.53 3 27.06 3 41 C4.65 41 6.3 41 8 41 C7.82597656 40.04996094 7.65195312 39.09992188 7.47265625 38.12109375 C6.7985014 33.40200983 7.123922 28.80221352 7.4375 24.0625 C7.48970703 23.18787109 7.54191406 22.31324219 7.59570312 21.41210938 C7.7242021 19.27435368 7.86122641 17.13711331 8 15 C7.34 15 6.68 15 6 15 C6.33 12.69 6.66 10.38 7 8 C13.8152287 5.34039855 19.1847713 5.34039855 26 8 C27.10112333 13.96578757 26.96350238 19.58273259 26.625 25.625 C26.58117187 26.553125 26.53734375 27.48125 26.4921875 28.4375 C26.26779377 32.78824519 25.86061936 36.69690322 25 41 C28.96 41 32.92 41 37 41 C36.85932342 36.74977148 36.71268086 32.49989418 36.5625 28.25 C36.52318359 27.0434375 36.48386719 25.836875 36.44335938 24.59375 C36.40146484 23.43359375 36.35957031 22.2734375 36.31640625 21.078125 C36.26141968 19.47565918 36.26141968 19.47565918 36.20532227 17.84082031 C36.09074558 15.06831289 36.09074558 15.06831289 35.40991211 12.72167969 C35.20700562 11.86944824 35.20700562 11.86944824 35 11 C37.03825497 8.05585394 39.66188586 7.06614803 43 6 C46.26171875 5.98828125 46.26171875 5.98828125 49.6875 6.3125 C51.39486328 6.46138672 51.39486328 6.46138672 53.13671875 6.61328125 C56 7 56 7 58 8 C58 7.01 58 6.02 58 5 C60.20528272 4.32331051 62.41438609 3.65906502 64.625 3 C65.85476563 2.62875 67.08453125 2.2575 68.3515625 1.875 C73.68470275 0.59595994 77.72910379 0.62876501 82.875 2.5 C84.04675781 2.91765625 84.04675781 2.91765625 85.2421875 3.34375 C85.82226562 3.5603125 86.40234375 3.776875 87 4 C87 2.68 87 1.36 87 0 C87.99 0 88.98 0 90 0 C91.01869343 11.11012518 91.09158273 22.10525352 91 33.25 C90.97342293 36.5677045 90.95349951 39.8853547 90.9375 43.203125 C90.92920166 43.9582135 90.92090332 44.713302 90.91235352 45.49127197 C90.81571422 49.37277993 90.81571422 49.37277993 92 53 C94.54706232 53.65374742 94.54706232 53.65374742 97.5 54.0625 C102.90534351 54.90534351 102.90534351 54.90534351 104 56 C104 57.65 104 59.3 104 61 C68.36 61 32.72 61 -4 61 C-3.67 60.01 -3.34 59.02 -3 58 C-2.01 58 -1.02 58 0 58 C-0.03552979 57.27337158 -0.07105957 56.54674316 -0.10766602 55.7980957 C-0.98347709 37.09901746 -0.91430365 18.69864986 0 0 Z M55 8 C55.33 8.99 55.66 9.98 56 11 C56.99 10.34 57.98 9.68 59 9 C57.68 8.67 56.36 8.34 55 8 Z M15 14 C15.33 15.65 15.66 17.3 16 19 C16.66 17.68 17.32 16.36 18 15 C17.01 14.67 16.02 14.34 15 14 Z M21 14 C21 15.65 21 17.3 21 19 C21.33 19 21.66 19 22 19 C22 17.35 22 15.7 22 14 C21.67 14 21.34 14 21 14 Z M41 14 C41 15.32 41 16.64 41 18 C41.66 18 42.32 18 43 18 C43 16.68 43 15.36 43 14 C42.34 14 41.68 14 41 14 Z M45 14 C45.66 15.32 46.32 16.64 47 18 C47 16.68 47 15.36 47 14 C46.34 14 45.68 14 45 14 Z M54 15 C54 23.25 54 31.5 54 40 C54.66 40.33 55.32 40.66 56 41 C56.99 40.67 57.98 40.34 59 40 C59.0289337 36.20834926 59.04677601 32.41672673 59.0625 28.625 C59.07087891 27.54476562 59.07925781 26.46453125 59.08789062 25.3515625 C59.09111328 24.3203125 59.09433594 23.2890625 59.09765625 22.2265625 C59.10289307 21.27346191 59.10812988 20.32036133 59.11352539 19.33837891 C59.15642599 16.97675594 59.15642599 16.97675594 58 15 C56.68 15 55.36 15 54 15 Z M68 18 C68 18.33 68 18.66 68 19 C72.62 19 77.24 19 82 19 C81.67 18.01 81.34 17.02 81 16 C76.18061476 15.76490804 72.53701494 16.54815522 68 18 Z M41 21 C41 22.32 41 23.64 41 25 C41.66 25 42.32 25 43 25 C43 23.68 43 22.36 43 21 C42.34 21 41.68 21 41 21 Z M46 21 C45.67 22.32 45.34 23.64 45 25 C45.66 25 46.32 25 47 25 C46.67 23.68 46.34 22.36 46 21 Z M50 21 C51 25 51 25 51 25 Z M11 22 C11 22.99 11 23.98 11 25 C11.66 25 12.32 25 13 25 C13 24.01 13 23.02 13 22 C12.34 22 11.68 22 11 22 Z M15 22 C15 22.99 15 23.98 15 25 C15.99 24.67 16.98 24.34 18 24 C17.67 23.34 17.34 22.68 17 22 C16.34 22 15.68 22 15 22 Z M21 22 C22 25 22 25 22 25 Z M21 28 C21 29.65 21 31.3 21 33 C21.33 33 21.66 33 22 33 C22 31.35 22 29.7 22 28 C21.67 28 21.34 28 21 28 Z M11 29 C11 30.32 11 31.64 11 33 C11.66 33 12.32 33 13 33 C12.34 31.68 11.68 30.36 11 29 Z M41 29 C41.33 30.32 41.66 31.64 42 33 C42.33 31.68 42.66 30.36 43 29 C42.34 29 41.68 29 41 29 Z M46 29 C47 33 47 33 47 33 Z M50 29 C49.67 29.99 49.34 30.98 49 32 C49.99 32.495 49.99 32.495 51 33 C50.67 31.68 50.34 30.36 50 29 Z M50 35 C49.67 36.65 49.34 38.3 49 40 C49.66 40 50.32 40 51 40 C51 38.35 51 36.7 51 35 C50.67 35 50.34 35 50 35 Z M11 36 C11 37.32 11 38.64 11 40 C11.66 40 12.32 40 13 40 C12.67 38.68 12.34 37.36 12 36 C11.67 36 11.34 36 11 36 Z M15 36 C15 36.66 15 37.32 15 38 C15.66 38 16.32 38 17 38 C17 37.34 17 36.68 17 36 C16.34 36 15.68 36 15 36 Z M21 36 C22 40 22 40 22 40 Z M41 36 C42 40 42 40 42 40 Z M45 36 C45 37.32 45 38.64 45 40 C45.66 40 46.32 40 47 40 C47 38.68 47 37.36 47 36 C46.34 36 45.68 36 45 36 Z M8 43 C8 43.33 8 43.66 8 44 C10.97 44 13.94 44 17 44 C17 43.67 17 43.34 17 43 C14.03 43 11.06 43 8 43 Z M43 43 C47 44 47 44 47 44 Z M49 43 C49 43.33 49 43.66 49 44 C52.3 44 55.6 44 59 44 C59 43.67 59 43.34 59 43 C55.7 43 52.4 43 49 43 Z " fill="#777777" transform="translate(296,128)"/>
<path d="M0 0 C-0.57966802 6.56036984 -2.75113559 12.30180554 -5.0625 18.4375 C-5.43955078 19.45521484 -5.81660156 20.47292969 -6.20507812 21.52148438 C-7.13050946 24.01663469 -8.06440859 26.50864154 -9 29 C-5.7 26.69 -2.4 24.38 1 22 C0.01 21.34 -0.98 20.68 -2 20 C-1.505 18.515 -1.505 18.515 -1 17 C5.6 17 12.2 17 19 17 C19 17.99 19 18.98 19 20 C19.721875 19.505 20.44375 19.01 21.1875 18.5 C26.38506845 15.91365015 32.37798776 16.24263048 38 17 C41.3125 19 41.3125 19 43 22 C43.43508258 24.85757941 43.2926916 27.07308402 43 30 C42 31 42 31 39.77514648 31.11352539 C38.81680908 31.10828857 37.85847168 31.10305176 36.87109375 31.09765625 C35.31938477 31.09282227 35.31938477 31.09282227 33.73632812 31.08789062 C32.64771484 31.07951172 31.55910156 31.07113281 30.4375 31.0625 C28.7987793 31.05573242 28.7987793 31.05573242 27.12695312 31.04882812 C24.41791505 31.03699826 21.70898401 31.02051543 19 31 C18.91878076 32.60332791 18.86070866 34.20784026 18.8125 35.8125 C18.77769531 36.70582031 18.74289062 37.59914062 18.70703125 38.51953125 C18.79882469 41.03068708 18.79882469 41.03068708 20.3046875 42.796875 C23.19593235 44.84872618 25.57228221 44.40667838 29 44 C32.18288354 42.12821884 32.18288354 42.12821884 35 40 C37.375 39.25 37.375 39.25 39 39 C39.33 39.66 39.66 40.32 40 41 C35.34767812 47.34687621 30.81744496 51.27502388 23 53 C18.85084347 53.14945504 14.278051 52.67100452 11 50 C8.01062092 45.05206221 7.56892965 41.20452385 8.3515625 35.5 C9.7689015 30.03556048 12.97265492 25.85070714 17 22 C10.55606657 22.14319852 6.60344497 24.90632807 1.35546875 28.50390625 C-1 30 -1 30 -3 30 C-1.97037829 32.99157101 -0.89603341 35.96507398 0.1875 38.9375 C0.47947266 39.78763672 0.77144531 40.63777344 1.07226562 41.51367188 C1.92076598 43.80371047 2.73714825 45.90870828 4 48 C6.60013209 49.21763356 6.60013209 49.21763356 9 49 C8.67 49.99 8.34 50.98 8 52 C4.92695668 53.21249328 1.83373221 53.13407415 -1.4375 53.125 C-2.82775391 53.12886719 -2.82775391 53.12886719 -4.24609375 53.1328125 C-6.92865981 53.00344052 -9.38568718 52.59782834 -12 52 C-12 51.01 -12 50.02 -12 49 C-10.68 49 -9.36 49 -8 49 C-9.32 45.7 -10.64 42.4 -12 39 C-13.98 43.95 -13.98 43.95 -16 49 C-15.01 49 -14.02 49 -13 49 C-13 49.99 -13 50.98 -13 52 C-15.70238298 53.35119149 -17.86014446 53.13237128 -20.875 53.125 C-21.92429688 53.12757812 -22.97359375 53.13015625 -24.0546875 53.1328125 C-26.57313648 53.01924849 -28.5821396 52.60972132 -31 52 C-31.94875 52.20625 -32.8975 52.4125 -33.875 52.625 C-37.81162782 53.09739534 -39.52468101 51.73765949 -43 50 C-44.34907613 50.63420486 -45.6811604 51.30510121 -47 52 C-49.25390625 52.30078125 -49.25390625 52.30078125 -51.5625 52.3125 C-52.32691406 52.32925781 -53.09132812 52.34601563 -53.87890625 52.36328125 C-56.54109358 51.90732651 -57.41769739 51.16314787 -59 49 C-59.1875 45.6875 -59.1875 45.6875 -58 42 C-52.85318879 36.34969639 -44.89136155 32.9897907 -38 30 C-37.34 30 -36.68 30 -36 30 C-35.67 27.69 -35.34 25.38 -35 23 C-38.46485707 23.62032476 -38.46485707 23.62032476 -42 25 C-43.23290201 27.45704762 -43.23290201 27.45704762 -44 30 C-46.52168374 31.91300146 -47.59244012 32.05557635 -50.75 31.625 C-51.4925 31.41875 -52.235 31.2125 -53 31 C-53.375 28.8125 -53.375 28.8125 -53 26 C-48.05735801 20.66714943 -41.43858074 17.50212994 -34.203125 16.68359375 C-31.7318309 16.63002524 -29.43919327 16.59659496 -27 17 C-26.34 17.66 -25.68 18.32 -25 19 C-25.32272648 25.2073348 -27.0146913 30.66540815 -29.0625 36.5 C-29.34416016 37.32242188 -29.62582031 38.14484375 -29.91601562 38.9921875 C-30.60377243 40.99717343 -31.30091076 42.99893723 -32 45 C-31.13375 44.505 -31.13375 44.505 -30.25 44 C-28 43 -28 43 -24 43 C-22.37330341 38.56071221 -20.77103073 34.11362363 -19.19042969 29.65771484 C-18.64980264 28.14428284 -18.10266466 26.63315983 -17.54882812 25.12451172 C-16.75213121 22.9507901 -15.9795063 20.76973839 -15.2109375 18.5859375 C-14.96000336 17.91694427 -14.70906921 17.24795105 -14.45053101 16.5586853 C-12.88620948 12.014268 -13.03082073 9.37004047 -15 5 C-13.44424022 4.15415002 -11.8800388 3.32381601 -10.3125 2.5 C-9.44238281 2.0359375 -8.57226562 1.571875 -7.67578125 1.09375 C-4.88211171 -0.04818792 -2.98370887 -0.21504208 0 0 Z M23 26 C26.3 26 29.6 26 33 26 C33.33 24.68 33.66 23.36 34 22 C32.96367261 20.76992655 32.96367261 20.76992655 30.75 20.625 C26.89386948 21.15083598 25.49874064 23.14429641 23 26 Z M-44 38.25 C-45.0828125 38.87648437 -45.0828125 38.87648437 -46.1875 39.515625 C-48.31603516 41.2588219 -48.63374488 42.32175942 -49 45 C-44.89767788 45.34848179 -44.89767788 45.34848179 -41.1875 43.875 C-39.57771731 41.33323785 -39.32890991 38.9601892 -39 36 C-40.87900167 36 -42.42682765 37.31733353 -44 38.25 Z M-26 45 C-26.66 46.32 -27.32 47.64 -28 49 C-27.01 48.67 -26.02 48.34 -25 48 C-25.33 47.01 -25.66 46.02 -26 45 Z " fill="#020202" transform="translate(264,47)"/>
<path d="M0 0 C0 1.32 0 2.64 0 4 C3.96 2.68 7.92 1.36 12 0 C13.10960573 3.32881718 12.9412896 3.87364252 11.78515625 7.01171875 C11.51123047 7.76904297 11.23730469 8.52636719 10.95507812 9.30664062 C10.66052734 10.09232422 10.36597656 10.87800781 10.0625 11.6875 C9.62647461 12.88342773 9.62647461 12.88342773 9.18164062 14.10351562 C8.46260698 16.07201757 7.73236297 18.03641812 7 20 C7.58910156 19.68546875 8.17820312 19.3709375 8.78515625 19.046875 C12.78386575 17.15683242 16.53219077 16.60858421 20.8125 17.75 C23 19 23 19 25 22 C24.71534854 28.59807498 22.69859921 34.33906434 20.4375 40.5 C20.10814453 41.4178125 19.77878906 42.335625 19.43945312 43.28125 C18.63361112 45.52359298 17.82036271 47.76293768 17 50 C17.99 50 18.98 50 20 50 C20 50.99 20 51.98 20 53 C14.29309366 53.99250545 8.78591511 54.10477512 3 54 C3 52.68 3 51.36 3 50 C3.62559814 49.91911133 4.25119629 49.83822266 4.89575195 49.75488281 C7.13812525 49.21110443 7.13812525 49.21110443 7.98901367 47.22167969 C8.21306885 46.46274414 8.43712402 45.70380859 8.66796875 44.921875 C8.92126953 44.09042969 9.17457031 43.25898437 9.43554688 42.40234375 C9.68369141 41.52707031 9.93183594 40.65179688 10.1875 39.75 C10.44724609 38.89019531 10.70699219 38.03039062 10.97460938 37.14453125 C12.17262855 33.12636874 13.29036239 29.13812774 14 25 C10.53058454 25.45822468 7.32604951 25.89131683 4 27 C3.10569907 29.42128424 3.10569907 29.42128424 2.5625 32.375 C1.18898564 38.46814351 -0.74411936 44.18280525 -3 50 C-2.01 50 -1.02 50 0 50 C0 50.99 0 51.98 0 53 C-2.97239791 54.48619895 -5.69619578 54.13177009 -9 54.125 C-10.8871875 54.12886719 -10.8871875 54.12886719 -12.8125 54.1328125 C-16 54 -16 54 -18 53 C-17.67 52.01 -17.34 51.02 -17 50 C-16.35335388 49.84741226 -15.70670776 49.69482452 -15.04046631 49.53761292 C-14.36711243 49.36020065 -13.69375854 49.18278839 -13 49 C-11.70748147 46.17419592 -10.70542306 43.5336124 -9.765625 40.58984375 C-9.34129181 39.32679161 -9.34129181 39.32679161 -8.90838623 38.03822327 C-8.00678786 35.34284388 -7.12823989 32.64056984 -6.25 29.9375 C-5.64342812 28.110829 -5.03537361 26.28464961 -4.42578125 24.45898438 C-2.93324558 19.97818332 -1.46134123 15.49106662 0 11 C-0.99 12.98 -1.98 14.96 -3 17 C-3.99 17 -4.98 17 -6 17 C-6.99 13.7 -7.98 10.4 -9 7 C-13.29 7 -17.58 7 -22 7 C-22.35304199 8.05912598 -22.70608398 9.11825195 -23.06982422 10.20947266 C-27.37988281 23.13964844 -31.68994141 36.06982422 -36 49 C-34.35 49.33 -32.7 49.66 -31 50 C-31.33 51.32 -31.66 52.64 -32 54 C-39.92 54 -47.84 54 -56 54 C-56.33 52.68 -56.66 51.36 -57 50 C-55.7625 49.690625 -54.525 49.38125 -53.25 49.0625 C-50.83342215 48.13126424 -49.37830954 47.55829522 -47.91210938 45.39453125 C-47.64205078 44.72808594 -47.37199219 44.06164062 -47.09375 43.375 C-46.76665039 42.5713501 -46.43955078 41.7677002 -46.10253906 40.93969727 C-43.73724198 34.63311131 -41.47474261 28.29463307 -39.25 21.9375 C-38.73861745 20.48490764 -38.22690126 19.03243269 -37.71484375 17.58007812 C-36.47271496 14.05473008 -35.23510234 10.52781682 -34 7 C-42.12079823 6.90423587 -46.5308936 8.21933209 -52.58203125 13.5625 C-54.11121459 14.96431954 -54.11121459 14.96431954 -55 17 C-56.65 16.67 -58.3 16.34 -60 16 C-56.535 8.575 -56.535 8.575 -53 1 C-50.98261719 1.01160156 -48.96523438 1.02320313 -46.88671875 1.03515625 C-33.3554536 1.08870565 -19.86935722 1.10467636 -6.359375 0.21875 C-4.24281211 0.0809273 -2.12104539 0 0 0 Z " fill="#020202" transform="translate(87,46)"/>
<path d="M0 0 C0.99 0 1.98 0 3 0 C3 13.53 3 27.06 3 41 C4.65 41 6.3 41 8 41 C7.82597656 40.04996094 7.65195312 39.09992188 7.47265625 38.12109375 C6.7985014 33.40200983 7.123922 28.80221352 7.4375 24.0625 C7.48970703 23.18787109 7.54191406 22.31324219 7.59570312 21.41210938 C7.7242021 19.27435368 7.86122641 17.13711331 8 15 C7.34 15 6.68 15 6 15 C6.33 12.69 6.66 10.38 7 8 C13.8152287 5.34039855 19.1847713 5.34039855 26 8 C27.10112333 13.96578757 26.96350238 19.58273259 26.625 25.625 C26.58117187 26.553125 26.53734375 27.48125 26.4921875 28.4375 C26.27068931 32.7321037 25.91587538 36.7892185 25 41 C26.65 41 28.3 41 30 41 C30 41.99 30 42.98 30 44 C30.95865509 46.33075929 30.95865509 46.33075929 34 48 C32.68 48 31.36 48 30 48 C30 50.31 30 52.62 30 55 C33.96 55 37.92 55 42 55 C42 52.03 42 49.06 42 46 C41.01 46.495 41.01 46.495 40 47 C40 48.65 40 50.3 40 52 C38 48.25 38 48.25 38 46 C37.01 45.505 37.01 45.505 36 45 C36.66 45 37.32 45 38 45 C38.495 44.01 38.495 44.01 39 43 C43.29 43.33 47.58 43.66 52 44 C51.01 44.99 50.02 45.98 49 47 C50.32 47 51.64 47 53 47 C53.495 46.01 53.495 46.01 54 45 C54 45.99 54 46.98 54 48 C50.37 48 46.74 48 43 48 C43 50.31 43 52.62 43 55 C47.29 55 51.58 55 56 55 C56 55.66 56 56.32 56 57 C57.32 57.66 58.64 58.32 60 59 C59.505 59.99 59.505 59.99 59 61 C38.21 61 17.42 61 -4 61 C-3.67 60.01 -3.34 59.02 -3 58 C-2.01 58 -1.02 58 0 58 C-0.03552979 57.27337158 -0.07105957 56.54674316 -0.10766602 55.7980957 C-0.98347709 37.09901746 -0.91430365 18.69864986 0 0 Z M15 14 C15.33 15.65 15.66 17.3 16 19 C16.66 17.68 17.32 16.36 18 15 C17.01 14.67 16.02 14.34 15 14 Z M21 14 C21 15.65 21 17.3 21 19 C21.33 19 21.66 19 22 19 C22 17.35 22 15.7 22 14 C21.67 14 21.34 14 21 14 Z M11 22 C11 22.99 11 23.98 11 25 C11.66 25 12.32 25 13 25 C13 24.01 13 23.02 13 22 C12.34 22 11.68 22 11 22 Z M15 22 C15 22.99 15 23.98 15 25 C15.99 24.67 16.98 24.34 18 24 C17.67 23.34 17.34 22.68 17 22 C16.34 22 15.68 22 15 22 Z M21 22 C22 25 22 25 22 25 Z M21 28 C21 29.65 21 31.3 21 33 C21.33 33 21.66 33 22 33 C22 31.35 22 29.7 22 28 C21.67 28 21.34 28 21 28 Z M11 29 C11 30.32 11 31.64 11 33 C11.66 33 12.32 33 13 33 C12.34 31.68 11.68 30.36 11 29 Z M11 36 C11 37.32 11 38.64 11 40 C11.66 40 12.32 40 13 40 C12.67 38.68 12.34 37.36 12 36 C11.67 36 11.34 36 11 36 Z M15 36 C15 36.66 15 37.32 15 38 C15.66 38 16.32 38 17 38 C17 37.34 17 36.68 17 36 C16.34 36 15.68 36 15 36 Z M21 36 C22 40 22 40 22 40 Z M8 43 C8 43.33 8 43.66 8 44 C10.97 44 13.94 44 17 44 C17 43.67 17 43.34 17 43 C14.03 43 11.06 43 8 43 Z " fill="#676768" transform="translate(296,128)"/>
<path d="M0 0 C4.41074704 -0.09961729 8.82088095 -0.17181669 13.23242188 -0.21972656 C14.7299339 -0.23971919 16.22736908 -0.26692299 17.72460938 -0.30175781 C33.54713604 -0.66040175 33.54713604 -0.66040175 40 4 C41.77410393 6.84866281 42.0034847 7.90591322 41.875 11.375 C40.360088 17.65106399 37.16196016 21.27191766 32 25 C32.66 25.639375 33.32 26.27875 34 26.9375 C36.68606042 31.05053002 36.83068933 34.21082172 36 39 C32.80808675 45.38382649 27.75797483 49.71062713 21 52 C12.67240735 53.29552276 4.15487848 53.12700025 -4.25 53.0625 C-5.38824219 53.05798828 -6.52648437 53.05347656 -7.69921875 53.04882812 C-10.46620409 53.03720214 -13.23307158 53.02086431 -16 53 C-16.33 51.68 -16.66 50.36 -17 49 C-15.741875 48.855625 -14.48375 48.71125 -13.1875 48.5625 C-10.93901124 48.06899676 -10.93901124 48.06899676 -9 47 C-7.80708905 43.9891689 -6.89017599 41.10295249 -6 38 C-5.25350399 35.72151717 -4.49902053 33.44564193 -3.73828125 31.171875 C-2.92904931 28.69812534 -2.1204687 26.22416254 -1.3125 23.75 C-0.99962036 22.80737305 -0.99962036 22.80737305 -0.68041992 21.84570312 C-0.06774609 19.99838785 0.5346192 18.14766377 1.13671875 16.296875 C1.67365356 14.66250488 1.67365356 14.66250488 2.22143555 12.99511719 C2.95462881 10.17454177 3.16005056 7.89500255 3 5 C2.01 4.67 1.02 4.34 0 4 C0 2.68 0 1.36 0 0 Z M17.41796875 5.05859375 C15.37465398 7.85619001 14.43784278 10.7946127 13.3125 14.0625 C12.97508789 15.01866211 12.97508789 15.01866211 12.63085938 15.99414062 C11.40367934 19.41716406 11.40367934 19.41716406 11 23 C17.1973751 23.44266965 21.99572259 22.95712685 27 19 C28.96476377 16.48363143 30.21195045 14.09678846 31 11 C30.86086918 8.06674619 30.86086918 8.06674619 29 6 C25.35306928 4.33509684 21.07182353 2.6136687 17.41796875 5.05859375 Z M9 28 C7.99183944 30.58041096 6.9932889 33.16386944 6 35.75 C5.71382812 36.47960937 5.42765625 37.20921875 5.1328125 37.9609375 C4.86210937 38.66992188 4.59140625 39.37890625 4.3125 40.109375 C4.06113281 40.75874023 3.80976563 41.40810547 3.55078125 42.07714844 C2.81642273 44.30752974 2.81642273 44.30752974 3 48 C8.61923738 49.58491311 12.86878151 48.47093732 18 46 C21.09807564 43.42925638 23.81357451 40.9152041 25 37 C24.86254824 33.63243176 24.74430386 31.73401394 22.3046875 29.328125 C19.41986846 27.66568691 17.55499893 27.69446432 14.25 27.8125 C12.77273437 27.85310547 12.77273437 27.85310547 11.265625 27.89453125 C10.14414063 27.94673828 10.14414063 27.94673828 9 28 Z " fill="#020202" transform="translate(169,47)"/>
<path d="M0 0 C-2.03292523 9.04749152 -4.81714439 17.72715391 -7.87109375 26.46728516 C-8.63541361 28.65480424 -9.39251207 30.84472368 -10.1484375 33.03515625 C-10.63240734 34.43243207 -11.11676743 35.82957279 -11.6015625 37.2265625 C-11.82760162 37.87855621 -12.05364075 38.53054993 -12.28652954 39.20230103 C-13.10018462 41.52872617 -13.89651439 43.79302877 -15 46 C-13.68 46.33 -12.36 46.66 -11 47 C-11.33 48.32 -11.66 49.64 -12 51 C-13.9363704 51.50435694 -15.87414146 52.00333874 -17.8125 52.5 C-18.89144531 52.7784375 -19.97039062 53.056875 -21.08203125 53.34375 C-24 54 -24 54 -27 54 C-27.33 53.34 -27.66 52.68 -28 52 C-28.99 52.495 -28.99 52.495 -30 53 C-35.20460087 53.51124099 -39.56445931 53.86132441 -44.125 51.125 C-47.37832248 47.43790119 -47.40503704 44.58156673 -47.3359375 39.79296875 C-46.39950579 32.00751903 -42.05130743 26.16413691 -36.0234375 21.40234375 C-29.37538358 16.7949087 -22.86216455 16.37438879 -15 16 C-14.01 13.36 -13.02 10.72 -12 8 C-13.65 7.34 -15.3 6.68 -17 6 C-14.52158236 2.28237353 -13.31159012 2.28592792 -9.0625 1.3125 C-7.47115234 0.93544922 -7.47115234 0.93544922 -5.84765625 0.55078125 C-3 0 -3 0 0 0 Z M-33 28 C-36.47037938 32.8544603 -37.43900406 37.20116717 -37.3359375 43.1171875 C-37.142594 45.23867965 -37.142594 45.23867965 -35 47 C-31.62693382 47.58414702 -31.62693382 47.58414702 -28 47 C-23.73529657 43.50594742 -21.91692591 40.16430823 -20.125 35 C-19.69445312 33.80375 -19.26390625 32.6075 -18.8203125 31.375 C-18.00532044 28.02188982 -17.9394559 26.24121344 -19 23 C-20.08113116 21.72512277 -20.08113116 21.72512277 -22.625 21.5625 C-27.44845598 22.18776281 -29.83993707 24.41145396 -33 28 Z " fill="#020202" transform="translate(273,128)"/>
<path d="M0 0 C-0.33 0.66 -0.66 1.32 -1 2 C-3.0625 2.625 -3.0625 2.625 -5 3 C-3.60804085 5.7839183 -1.84424221 5.97898997 1 7 C1 7.99 1 8.98 1 10 C1.66 10.33 2.32 10.66 3 11 C2.34 11.33 1.68 11.66 1 12 C1.66 12.66 2.32 13.32 3 14 C1.35 14 -0.3 14 -2 14 C-1.67 12.02 -1.34 10.04 -1 8 C-5.0100934 7.82135369 -5.0100934 7.82135369 -9 8 C-9.66 8.66 -10.32 9.32 -11 10 C-11.495 8.02 -11.495 8.02 -12 6 C-14.64 5.67 -17.28 5.34 -20 5 C-20 4.34 -20 3.68 -20 3 C-21.65 3 -23.3 3 -25 3 C-25 3.66 -25 4.32 -25 5 C-21.7 5.33 -18.4 5.66 -15 6 C-15 7.98 -15 9.96 -15 12 C-13.68 12 -12.36 12 -11 12 C-11 12.66 -11 13.32 -11 14 C-15.97063121 14.91297308 -20.02936879 14.91297308 -25 14 C-25.33 15.32 -25.66 16.64 -26 18 C-26.33 15.69 -26.66 13.38 -27 11 C-28.32 11 -29.64 11 -31 11 C-31 19.58 -31 28.16 -31 37 C-32.485 36.505 -32.485 36.505 -34 36 C-34.6875 33.9375 -34.6875 33.9375 -35 32 C-35 33.65 -35 35.3 -35 37 C-39.27114968 38.164859 -42.66419545 37.68943889 -47 37 C-47.05534912 36.23333008 -47.11069824 35.46666016 -47.16772461 34.67675781 C-47.4207011 31.20089775 -47.67904042 27.72545646 -47.9375 24.25 C-48.02451172 23.0434375 -48.11152344 21.836875 -48.20117188 20.59375 C-48.28818359 19.43359375 -48.37519531 18.2734375 -48.46484375 17.078125 C-48.543396 16.00981445 -48.62194824 14.94150391 -48.70288086 13.84082031 C-48.91891685 11.06947292 -48.91891685 11.06947292 -49.60375977 8.72167969 C-49.73451904 8.15352539 -49.86527832 7.58537109 -50 7 C-47.96174503 4.05585394 -45.33811414 3.06614803 -42 2 C-38.73828125 1.98828125 -38.73828125 1.98828125 -35.3125 2.3125 C-34.17425781 2.41175781 -33.03601563 2.51101562 -31.86328125 2.61328125 C-29 3 -29 3 -27 4 C-27 3.01 -27 2.02 -27 1 C-24.79471728 0.32331051 -22.58561391 -0.34093498 -20.375 -1 C-19.14523437 -1.37125 -17.91546875 -1.7425 -16.6484375 -2.125 C-9.93176332 -3.7358512 -6.03445047 -2.89653623 0 0 Z M-30 4 C-29.67 4.99 -29.34 5.98 -29 7 C-28.01 6.34 -27.02 5.68 -26 5 C-27.32 4.67 -28.64 4.34 -30 4 Z M-44 10 C-44 11.32 -44 12.64 -44 14 C-43.34 14 -42.68 14 -42 14 C-42 12.68 -42 11.36 -42 10 C-42.66 10 -43.32 10 -44 10 Z M-40 10 C-39.34 11.32 -38.68 12.64 -38 14 C-38 12.68 -38 11.36 -38 10 C-38.66 10 -39.32 10 -40 10 Z M-44 17 C-44 18.32 -44 19.64 -44 21 C-43.34 21 -42.68 21 -42 21 C-42 19.68 -42 18.36 -42 17 C-42.66 17 -43.32 17 -44 17 Z M-39 17 C-39.33 18.32 -39.66 19.64 -40 21 C-39.34 21 -38.68 21 -38 21 C-38.33 19.68 -38.66 18.36 -39 17 Z M-35 17 C-34 21 -34 21 -34 21 Z M-44 25 C-43.67 26.32 -43.34 27.64 -43 29 C-42.67 27.68 -42.34 26.36 -42 25 C-42.66 25 -43.32 25 -44 25 Z M-39 25 C-38 29 -38 29 -38 29 Z M-35 25 C-35.33 25.99 -35.66 26.98 -36 28 C-35.01 28.495 -35.01 28.495 -34 29 C-34.33 27.68 -34.66 26.36 -35 25 Z M-40 32 C-40 33.32 -40 34.64 -40 36 C-39.34 36 -38.68 36 -38 36 C-38 34.68 -38 33.36 -38 32 C-38.66 32 -39.32 32 -40 32 Z " fill="#747375" transform="translate(381,132)"/>
<path d="M0 0 C3.3125 2 3.3125 2 5 5 C5.43508258 7.85757941 5.2926916 10.07308402 5 13 C4 14 4 14 1.77514648 14.11352539 C0.81680908 14.10828857 -0.14152832 14.10305176 -1.12890625 14.09765625 C-2.68061523 14.09282227 -2.68061523 14.09282227 -4.26367188 14.08789062 C-5.35228516 14.07951172 -6.44089844 14.07113281 -7.5625 14.0625 C-9.2012207 14.05573242 -9.2012207 14.05573242 -10.87304688 14.04882812 C-13.58208495 14.03699826 -16.29101599 14.02051543 -19 14 C-19.02712066 15.43739513 -19.04645067 16.87493863 -19.0625 18.3125 C-19.07410156 19.11300781 -19.08570312 19.91351563 -19.09765625 20.73828125 C-19.09657855 23.16861334 -19.09657855 23.16861334 -18 26 C-14.93570224 27.53214888 -12.3834358 27.22938548 -9 27 C-5.27196535 25.25271222 -5.27196535 25.25271222 -3 22 C-1.68 22 -0.36 22 1 22 C0.920675 24.69704983 0.4361734 26.47919594 -1.30859375 28.5625 C-6.19204941 33.07377544 -11.61062384 36.10723232 -18.3984375 35.94140625 C-22.59477756 35.26525179 -24.75761972 34.20280799 -28.0625 31.4375 C-30.54298077 27.03664703 -30.79375669 23.93509596 -30 19 C-27.28911933 11.00290203 -23.2852983 5.24271432 -16 1 C-10.79513059 -0.73495647 -5.42191111 -0.58358493 0 0 Z M-15 9 C-11.7 9 -8.4 9 -5 9 C-4.67 7.68 -4.34 6.36 -4 5 C-5.03632739 3.76992655 -5.03632739 3.76992655 -7.25 3.625 C-11.10613052 4.15083598 -12.50125936 6.14429641 -15 9 Z " fill="#020202" transform="translate(140,64)"/>
<path d="M0 0 C1.32 0 2.64 0 4 0 C4 0.99 4 1.98 4 3 C4.51691406 2.67128906 5.03382813 2.34257812 5.56640625 2.00390625 C8.8034105 0.66857705 11.44759197 0.84438613 14.9375 0.9375 C19.14711005 1.0410519 22.90054685 1.00347145 27 0 C27.02688151 1.64574566 27.04634123 3.29161413 27.0625 4.9375 C27.07410156 5.85402344 27.08570313 6.77054688 27.09765625 7.71484375 C27 10 27 10 26 11 C25.60545777 12.84599688 25.25823134 14.70225822 24.9375 16.5625 C24.76089844 17.57441406 24.58429688 18.58632812 24.40234375 19.62890625 C24.26957031 20.41136719 24.13679688 21.19382813 24 22 C22.54176788 22.0270043 21.08339325 22.04639787 19.625 22.0625 C18.81289063 22.07410156 18.00078125 22.08570313 17.1640625 22.09765625 C15 22 15 22 13 21 C13 21.66 13 22.32 13 23 C9.53058454 22.54177532 6.32604951 22.10868317 3 21 C3 18.36 3 15.72 3 13 C2.34 13 1.68 13 1 13 C0.67 8.71 0.34 4.42 0 0 Z " fill="#7A7A7A" transform="translate(357,147)"/>
<path d="M0 0 C0.639375 0.33 1.27875 0.66 1.9375 1 C2.5975 0.67 3.2575 0.34 3.9375 0 C5.8125 -0.16796875 5.8125 -0.16796875 7.9375 -0.1875 C8.989375 -0.20876953 8.989375 -0.20876953 10.0625 -0.23046875 C11.9375 0 11.9375 0 13.9375 2 C13.77756374 5.11875698 13.33136255 6.57800441 11.1875 8.875 C8.34275065 10.29737468 6.92133376 9.91172698 3.9375 9 C3.9375 8.34 3.9375 7.68 3.9375 7 C-1.34243549 10.77349236 -3.36597192 13.95706925 -5.375 20.0625 C-5.62572266 20.76955078 -5.87644531 21.47660156 -6.13476562 22.20507812 C-7.26748087 25.43923828 -8.26182946 28.66992798 -9.0625 32 C-7.4125 32 -5.7625 32 -4.0625 32 C-4.7225 33.32 -5.3825 34.64 -6.0625 36 C-8.31223447 36.054138 -10.56234383 36.09285491 -12.8125 36.125 C-14.06546875 36.14820313 -15.3184375 36.17140625 -16.609375 36.1953125 C-19.79070492 36.01537302 -21.42771896 35.68998582 -24.0625 34 C-23.7325 33.34 -23.4025 32.68 -23.0625 32 C-20.5 31.375 -20.5 31.375 -18.0625 31 C-17.815 29.7625 -17.5675 28.525 -17.3125 27.25 C-16.46322684 23.31978698 -15.2496337 19.65167529 -13.875 15.875 C-12.19307507 11.02162252 -11.71459465 7.94231961 -13.0625 3 C-11.79192818 2.52014033 -10.52103152 2.0411407 -9.25 1.5625 C-8.54230469 1.29566406 -7.83460938 1.02882813 -7.10546875 0.75390625 C-2.18789866 -1.06079935 -2.18789866 -1.06079935 0 0 Z " fill="#020202" transform="translate(322.0625,64)"/>
<path d="M0 0 C0.33 0 0.66 0 1 0 C1 3.3 1 6.6 1 10 C2.32 10.66 3.64 11.32 5 12 C5 14.97 5 17.94 5 21 C4.01 21 3.02 21 2 21 C2 21.66 2 22.32 2 23 C1.01 23.33 0.02 23.66 -1 24 C-1.33 24.66 -1.66 25.32 -2 26 C-7.94 26 -13.88 26 -20 26 C-20 24.68 -20 23.36 -20 22 C-20.99 22.33 -21.98 22.66 -23 23 C-23.33 21.02 -23.66 19.04 -24 17 C-26.31 17 -28.62 17 -31 17 C-31 16.67 -31 16.34 -31 16 C-28.69 16 -26.38 16 -24 16 C-24.33 13.36 -24.66 10.72 -25 8 C-24.34 7.67 -23.68 7.34 -23 7 C-23 7.99 -23 8.98 -23 10 C-21.9275 9.979375 -20.855 9.95875 -19.75 9.9375 C-16.85209576 9.9857984 -14.71387859 10.13155885 -12 11 C-12 10.34 -12 9.68 -12 9 C-6.555 9.495 -6.555 9.495 -1 10 C-0.67 6.7 -0.34 3.4 0 0 Z " fill="#565656" transform="translate(382,159)"/>
<path d="M0 0 C0.99 0 1.98 0 3 0 C3 13.53 3 27.06 3 41 C4.65 41 6.3 41 8 41 C7.67 41.99 7.34 42.98 7 44 C7 44.33 7 44.66 7 45 C7 45.99 7 46.98 7 48 C9.31 47.34 11.62 46.68 14 46 C14 46.66 14 47.32 14 48 C14.66 48 15.32 48 16 48 C16 47.01 16 46.02 16 45 C18.375 45.3125 18.375 45.3125 21 46 C23.80163026 50.2024454 23.14489712 53.00104935 23 58 C20.03 58 17.06 58 14 58 C14 57.34 14 56.68 14 56 C11.69 55.67 9.38 55.34 7 55 C7 55.66 7 56.32 7 57 C7.66 57.33 8.32 57.66 9 58 C7.68 58 6.36 58 5 58 C5 57.34 5 56.68 5 56 C4.01 56 3.02 56 2 56 C2 56.99 2 57.98 2 59 C3.32 59 4.64 59 6 59 C6 59.66 6 60.32 6 61 C2.7 61 -0.6 61 -4 61 C-3.67 60.01 -3.34 59.02 -3 58 C-2.01 58 -1.02 58 0 58 C-0.03552979 57.27337158 -0.07105957 56.54674316 -0.10766602 55.7980957 C-0.98347709 37.09901746 -0.91430365 18.69864986 0 0 Z " fill="#6D6E6F" transform="translate(296,128)"/>
<path d="M0 0 C-0.33 0.66 -0.66 1.32 -1 2 C-3.0625 2.625 -3.0625 2.625 -5 3 C-3.60804085 5.7839183 -1.84424221 5.97898997 1 7 C1 7.99 1 8.98 1 10 C1.66 10.33 2.32 10.66 3 11 C2.34 11.33 1.68 11.66 1 12 C1.66 12.66 2.32 13.32 3 14 C1.35 14 -0.3 14 -2 14 C-1.67 12.02 -1.34 10.04 -1 8 C-5.0100934 7.82135369 -5.0100934 7.82135369 -9 8 C-9.66 8.66 -10.32 9.32 -11 10 C-11.495 8.02 -11.495 8.02 -12 6 C-14.64 5.67 -17.28 5.34 -20 5 C-20 4.34 -20 3.68 -20 3 C-21.65 3 -23.3 3 -25 3 C-25 3.66 -25 4.32 -25 5 C-21.7 5.33 -18.4 5.66 -15 6 C-15 7.98 -15 9.96 -15 12 C-13.68 12 -12.36 12 -11 12 C-11 12.66 -11 13.32 -11 14 C-15.97063121 14.91297308 -20.02936879 14.91297308 -25 14 C-25.33 15.32 -25.66 16.64 -26 18 C-26.33 15.69 -26.66 13.38 -27 11 C-28.32 11 -29.64 11 -31 11 C-31 11.66 -31 12.32 -31 13 C-32.32 12.34 -33.64 11.68 -35 11 C-34.67 10.34 -34.34 9.68 -34 9 C-38.17737474 7.40861915 -41.53160785 6.78721942 -46 7 C-45.67 5.68 -45.34 4.36 -45 3 C-38.41276707 1.95440747 -33.40766041 2.16707586 -27 4 C-27 3.01 -27 2.02 -27 1 C-24.79471728 0.32331051 -22.58561391 -0.34093498 -20.375 -1 C-19.14523437 -1.37125 -17.91546875 -1.7425 -16.6484375 -2.125 C-9.93176332 -3.7358512 -6.03445047 -2.89653623 0 0 Z M-30 4 C-29.67 4.99 -29.34 5.98 -29 7 C-28.01 6.34 -27.02 5.68 -26 5 C-27.32 4.67 -28.64 4.34 -30 4 Z " fill="#626263" transform="translate(381,132)"/>
<path d="M0 0 C6.27 0 12.54 0 19 0 C19.66 1.65 20.32 3.3 21 5 C21.66 5 22.32 5 23 5 C23 6.32 23 7.64 23 9 C28.94 9 34.88 9 41 9 C41.33 8.01 41.66 7.02 42 6 C42.99 6 43.98 6 45 6 C45 5.34 45 4.68 45 4 C50.39795989 5.15058556 55.70987333 6.42421759 61 8 C61 9.65 61 11.3 61 13 C55.07349874 13.04939701 49.14711703 13.08571817 43.22045898 13.10986328 C41.20383619 13.11992773 39.18722801 13.13358047 37.1706543 13.15087891 C34.27388911 13.17510769 31.37731669 13.18647859 28.48046875 13.1953125 C27.12564644 13.21079636 27.12564644 13.21079636 25.74345398 13.22659302 C24.4824865 13.22681961 24.4824865 13.22681961 23.19604492 13.22705078 C22.08684944 13.23371262 22.08684944 13.23371262 20.95524597 13.24050903 C19 13 19 13 16 11 C14.0103005 10.60986284 12.00980131 10.26797351 10 10 C10.99 9.67 11.98 9.34 13 9 C13 8.34 13 7.68 13 7 C8.71 7 4.42 7 0 7 C0 4.69 0 2.38 0 0 Z " fill="#858589" transform="translate(339,176)"/>
<path d="M0 0 C6.93 0.495 6.93 0.495 14 1 C13.01 1.99 12.02 2.98 11 4 C12.32 4 13.64 4 15 4 C15.33 3.34 15.66 2.68 16 2 C16 2.99 16 3.98 16 5 C12.37 5 8.74 5 5 5 C5 7.31 5 9.62 5 12 C9.29 12 13.58 12 18 12 C18 12.66 18 13.32 18 14 C19.32 14.66 20.64 15.32 22 16 C21.67 16.66 21.34 17.32 21 18 C3.51 18 -13.98 18 -32 18 C-32 17.34 -32 16.68 -32 16 C-33.32 16 -34.64 16 -36 16 C-36 15.01 -36 14.02 -36 13 C-35.01 13 -34.02 13 -33 13 C-33 13.66 -33 14.32 -33 15 C-32.34 14.67 -31.68 14.34 -31 14 C-31 13.34 -31 12.68 -31 12 C-28.69 12.33 -26.38 12.66 -24 13 C-24 13.66 -24 14.32 -24 15 C-21.03 15 -18.06 15 -15 15 C-15.33 13.68 -15.66 12.36 -16 11 C-15.93308947 8.22578663 -15.49642779 5.75291774 -15 3 C-14.34 2.67 -13.68 2.34 -13 2 C-13 6.29 -13 10.58 -13 15 C-12.01 15 -11.02 15 -10 15 C-9.67 11.7 -9.34 8.4 -9 5 C-9.66 4.67 -10.32 4.34 -11 4 C-10.67 3.01 -10.34 2.02 -10 1 C-7.00667261 1.9977758 -6.05233685 2.7522025 -4 5 C-5.32 5 -6.64 5 -8 5 C-8 7.31 -8 9.62 -8 12 C-4.04 12 -0.08 12 4 12 C4 9.03 4 6.06 4 3 C3.34 3.33 2.68 3.66 2 4 C2 5.65 2 7.3 2 9 C0 5.25 0 5.25 0 3 C-0.66 2.67 -1.32 2.34 -2 2 C-1.34 2 -0.68 2 0 2 C0 1.34 0 0.68 0 0 Z " fill="#555556" transform="translate(334,171)"/>
<path d="M0 0 C0.33 0 0.66 0 1 0 C1 2.64 1 5.28 1 8 C1.556875 7.814375 2.11375 7.62875 2.6875 7.4375 C5 7 5 7 7.1875 7.5 C10.60009768 8.10668403 13.4999394 7.71417199 16.9140625 7.25390625 C19 7 19 7 22 7 C22 5.02 22 3.04 22 1 C22.33 1 22.66 1 23 1 C23.125 7.75 23.125 7.75 22 10 C14.95416472 11.31537509 8.04583402 11.0568751 1 10 C1.33 10.99 1.66 11.98 2 13 C2.99 13 3.98 13 5 13 C5 15.97 5 18.94 5 22 C1.04 22 -2.92 22 -7 22 C-7 18.7 -7 15.4 -7 12 C-8.65 11.67 -10.3 11.34 -12 11 C-11.360625 10.690625 -10.72125 10.38125 -10.0625 10.0625 C-8.06389179 9.1654837 -8.06389179 9.1654837 -7 8 C-4.66702567 7.95907063 -2.33294775 7.95758277 0 8 C0 5.36 0 2.72 0 0 Z " fill="#6C6C6C" transform="translate(333,161)"/>
<path d="M0 0 C0.66 0 1.32 0 2 0 C2.33 1.32 2.66 2.64 3 4 C4.65 4.33 6.3 4.66 8 5 C8 6.65 8 8.3 8 10 C9.32 10.33 10.64 10.66 12 11 C11.67 13.97 11.34 16.94 11 20 C9.576875 20.020625 8.15375 20.04125 6.6875 20.0625 C5.48673828 20.07990234 5.48673828 20.07990234 4.26171875 20.09765625 C2 20 2 20 -1 19 C-1.33 16.03 -1.66 13.06 -2 10 C-1.34 9.67 -0.68 9.34 0 9 C-0.185625 8.071875 -0.37125 7.14375 -0.5625 6.1875 C-1 3 -1 3 0 0 Z M3 10 C3 10.66 3 11.32 3 12 C4.32 11.34 5.64 10.68 7 10 C5.68 10 4.36 10 3 10 Z M-4 16 C-2 17 -2 17 -2 17 Z " fill="#747474" transform="translate(370,149)"/>
<path d="M0 0 C-0.33 2.64 -0.66 5.28 -1 8 C-0.34 8 0.32 8 1 8 C1.66 9.98 2.32 11.96 3 14 C3.433125 13.505 3.86625 13.01 4.3125 12.5 C6 11 6 11 9 11 C9.33 14.3 9.66 17.6 10 21 C8.68 21.33 7.36 21.66 6 22 C6 21.34 6 20.68 6 20 C5.34 20 4.68 20 4 20 C4 20.99 4 21.98 4 23 C3.34 23 2.68 23 2 23 C2 22.34 2 21.68 2 21 C1.34 21 0.68 21 0 21 C-0.33 21.66 -0.66 22.32 -1 23 C-2.32 23 -3.64 23 -5 23 C-5.33 21.35 -5.66 19.7 -6 18 C-5.34 18 -4.68 18 -4 18 C-4.12568359 17.1646875 -4.12568359 17.1646875 -4.25390625 16.3125 C-4.96905315 10.95342448 -5.04504254 6.32021659 -4 1 C-2 0 -2 0 0 0 Z M-1 11 C-1 12.32 -1 13.64 -1 15 C-0.34 15 0.32 15 1 15 C0.67 13.68 0.34 12.36 0 11 C-0.33 11 -0.66 11 -1 11 Z " fill="#5D5F63" transform="translate(308,153)"/>
<path d="M0 0 C2 0 4 0 6 0 C6 0.99 6 1.98 6 3 C6.66 3 7.32 3 8 3 C8.33 2.01 8.66 1.02 9 0 C9.33 0 9.66 0 10 0 C10.08086147 1.79093191 10.13912702 3.58289628 10.1875 5.375 C10.22230469 6.37273437 10.25710938 7.37046875 10.29296875 8.3984375 C10.19628906 9.25695312 10.09960938 10.11546875 10 11 C9.01 11.66 8.02 12.32 7 13 C6.7497843 16.08365871 6.7497843 16.08365871 7 19 C5.1875 20.0625 5.1875 20.0625 3 21 C2.01 20.67 1.02 20.34 0 20 C0.33 20.99 0.66 21.98 1 23 C0.34 23 -0.32 23 -1 23 C-1.33 20.69 -1.66 18.38 -2 16 C-0.68 16 0.64 16 2 16 C2 14.68 2 13.36 2 12 C1.01 11.67 0.02 11.34 -1 11 C-1 10.34 -1 9.68 -1 9 C-0.01 8.67 0.98 8.34 2 8 C2 7.34 2 6.68 2 6 C1.34 6 0.68 6 0 6 C0 4.02 0 2.04 0 0 Z M6 6 C7 9 7 9 7 9 Z " fill="#75757A" transform="translate(311,144)"/>
<path d="M0 0 C4.455 0.99 4.455 0.99 9 2 C7.02 2.99 7.02 2.99 5 4 C4.67 4.66 4.34 5.32 4 6 C5.32 6.33 6.64 6.66 8 7 C8.35474551 10.07446111 8.53698855 12.94127109 8 16 C5 18.5625 5 18.5625 2 20 C2 19.34 2 18.68 2 18 C-0.97 18.33 -3.94 18.66 -7 19 C-7.33 17.02 -7.66 15.04 -8 13 C-7.34 13 -6.68 13 -6 13 C-6 13.66 -6 14.32 -6 15 C-5.01 15 -4.02 15 -3 15 C-3 12.69 -3 10.38 -3 8 C-2.01 7.67 -1.02 7.34 0 7 C0.66 6.01 1.32 5.02 2 4 C1.01 3.34 0.02 2.68 -1 2 C-0.67 1.34 -0.34 0.68 0 0 Z M0 11 C-0.33 12.32 -0.66 13.64 -1 15 C-0.34 15 0.32 15 1 15 C0.67 13.68 0.34 12.36 0 11 Z M4 11 C5 15 5 15 5 15 Z " fill="#848387" transform="translate(342,138)"/>
<path d="M0 0 C0.33 0 0.66 0 1 0 C1 3.3 1 6.6 1 10 C1.66 10.33 2.32 10.66 3 11 C2.67 11.99 2.34 12.98 2 14 C0.58456585 14.19658808 -0.83244031 14.38187546 -2.25 14.5625 C-3.03890625 14.66691406 -3.8278125 14.77132812 -4.640625 14.87890625 C-7.00532874 15.00027349 -8.7511037 14.69633257 -11 14 C-11 14.66 -11 15.32 -11 16 C-10.34 16.33 -9.68 16.66 -9 17 C-11.31 17 -13.62 17 -16 17 C-16 19.31 -16 21.62 -16 24 C-16.99 24 -17.98 24 -19 24 C-19 22.35 -19 20.7 -19 19 C-20.32 19.33 -21.64 19.66 -23 20 C-23 18.35 -23 16.7 -23 15 C-20.36 15 -17.72 15 -15 15 C-17.97 14.505 -17.97 14.505 -21 14 C-20.34 13.34 -19.68 12.68 -19 12 C-16.27130593 12.03287583 -13.7033382 12.56397771 -11 13 C-11 12.01 -11 11.02 -11 10 C-7.7 10 -4.4 10 -1 10 C-0.67 6.7 -0.34 3.4 0 0 Z " fill="#505050" transform="translate(382,159)"/>
<path d="M0 0 C6.27 0 12.54 0 19 0 C19 0.99 19 1.98 19 3 C18.01 3.495 18.01 3.495 17 4 C17.66 4.66 18.32 5.32 19 6 C18.67 6.66 18.34 7.32 18 8 C17.01 8 16.02 8 15 8 C15 8.66 15 9.32 15 10 C13.35 10 11.7 10 10 10 C10.99 9.67 11.98 9.34 13 9 C13 8.34 13 7.68 13 7 C8.71 7 4.42 7 0 7 C0 4.69 0 2.38 0 0 Z " fill="#818181" transform="translate(339,176)"/>
<path d="M0 0 C5.39795989 1.15058556 10.70987333 2.42421759 16 4 C16 5.65 16 7.3 16 9 C10.39 9 4.78 9 -1 9 C-1.33 7.68 -1.66 6.36 -2 5 C-2.66 5 -3.32 5 -4 5 C-3.67 4.01 -3.34 3.02 -3 2 C-2.01 2 -1.02 2 0 2 C0 1.34 0 0.68 0 0 Z " fill="#858587" transform="translate(384,180)"/>
<path d="M0 0 C3 3.75 3 3.75 3 6 C5.475 6.99 5.475 6.99 8 8 C9.125 15.625 9.125 15.625 8 19 C8.495 19.45375 8.99 19.9075 9.5 20.375 C11 22 11 22 11 24 C9.35 24 7.7 24 6 24 C4.57055055 21.64561267 3.91338739 20.51967567 4.375 17.75 C4.58125 17.1725 4.7875 16.595 5 16 C3.02 16.99 3.02 16.99 1 18 C1 14.37 1 10.74 1 7 C0.34 7 -0.32 7 -1 7 C-0.67 4.69 -0.34 2.38 0 0 Z " fill="#63666B" transform="translate(303,136)"/>
<path d="M0 0 C2.375 0.3125 2.375 0.3125 5 1 C7.80163026 5.2024454 7.14489712 8.00104935 7 13 C4.03 13 1.06 13 -2 13 C-2 12.34 -2 11.68 -2 11 C-2.66 11 -3.32 11 -4 11 C-3.67 8.69 -3.34 6.38 -3 4 C-2.01 3.67 -1.02 3.34 0 3 C0 2.01 0 1.02 0 0 Z " fill="#727272" transform="translate(312,173)"/>
<path d="M0 0 C0.99 0 1.98 0 3 0 C3 11.55 3 23.1 3 35 C1.68 35 0.36 35 -1 35 C-0.67 23.45 -0.34 11.9 0 0 Z " fill="#6C6C70" transform="translate(296,128)"/>
<path d="M0 0 C0.33 0 0.66 0 1 0 C1 4.62 1 9.24 1 14 C-0.65 14 -2.3 14 -4 14 C-4 14.66 -4 15.32 -4 16 C-8.62 16 -13.24 16 -18 16 C-18 15.34 -18 14.68 -18 14 C-19.32 14 -20.64 14 -22 14 C-22 13.01 -22 12.02 -22 11 C-21.01 11 -20.02 11 -19 11 C-19 11.66 -19 12.32 -19 13 C-18.34 12.67 -17.68 12.34 -17 12 C-17 11.34 -17 10.68 -17 10 C-14.69 10.33 -12.38 10.66 -10 11 C-10 11.66 -10 12.32 -10 13 C-7.03 13 -4.06 13 -1 13 C-1.33 11.68 -1.66 10.36 -2 9 C-1.70212766 1.70212766 -1.70212766 1.70212766 0 0 Z " fill="#4A4A4D" transform="translate(320,173)"/>
<path d="M0 0 C0.63019694 9.17286652 0.63019694 9.17286652 -2 12.625 C-2.66 13.07875 -3.32 13.5325 -4 14 C-5.5625 12.75 -5.5625 12.75 -7 11 C-6.6875 8.8125 -6.6875 8.8125 -6 7 C-7.65 6.67 -9.3 6.34 -11 6 C-11 5.01 -11 4.02 -11 3 C-10.34 3 -9.68 3 -9 3 C-9 2.34 -9 1.68 -9 1 C-5.846632 0.29925156 -3.27275026 0 0 0 Z M-11 12 C-9.68 12.33 -8.36 12.66 -7 13 C-8.32 13.33 -9.64 13.66 -11 14 C-11 13.34 -11 12.68 -11 12 Z " fill="#868686" transform="translate(384,147)"/>
<path d="M0 0 C0.99 0 1.98 0 3 0 C3.1954625 2.24932227 3.38108226 4.49950142 3.5625 6.75 C3.66691406 8.00296875 3.77132813 9.2559375 3.87890625 10.546875 C3.97876723 13.39452364 3.90584295 15.34286067 3 18 C0.525 17.01 0.525 17.01 -2 16 C-1.67 15.34 -1.34 14.68 -1 14 C-1.33 13.01 -1.66 12.02 -2 11 C-3.175625 10.8453125 -3.175625 10.8453125 -4.375 10.6875 C-7 10 -7 10 -9 7 C-6.03 6.01 -3.06 5.02 0 4 C0 2.68 0 1.36 0 0 Z " fill="#5E5E5E" transform="translate(383,128)"/>
<path d="M0 0 C-2.475 1.485 -2.475 1.485 -5 3 C-4.34 3.33 -3.68 3.66 -3 4 C-4.305239 6.61047801 -5.35826574 6.68066423 -8.0625 7.625 C-8.79597656 7.88539063 -9.52945312 8.14578125 -10.28515625 8.4140625 C-10.85105469 8.60742188 -11.41695313 8.80078125 -12 9 C-12.33 8.34 -12.66 7.68 -13 7 C-13.66 6.67 -14.32 6.34 -15 6 C-15.40729228 3.67843403 -15.74438677 1.3431213 -16 -1 C-10.50236935 -2.33275895 -4.96478604 -3.17746307 0 0 Z " fill="#414244" transform="translate(320,136)"/>
<path d="M0 0 C-0.33 0.66 -0.66 1.32 -1 2 C-2.47968324 1.85950482 -3.95874516 1.71245174 -5.4375 1.5625 C-6.26121094 1.48128906 -7.08492188 1.40007812 -7.93359375 1.31640625 C-10 1 -10 1 -11 0 C-11.639375 0.495 -12.27875 0.99 -12.9375 1.5 C-17.04023483 3.50950277 -20.51443582 3.26385672 -25 3 C-25 3.66 -25 4.32 -25 5 C-23.68 5 -22.36 5 -21 5 C-21 5.99 -21 6.98 -21 8 C-21.99 8.33 -22.98 8.66 -24 9 C-24 8.34 -24 7.68 -24 7 C-26.475 6.01 -26.475 6.01 -29 5 C-28.34 4.67 -27.68 4.34 -27 4 C-27 3.01 -27 2.02 -27 1 C-24.79471728 0.32331051 -22.58561391 -0.34093498 -20.375 -1 C-19.14523437 -1.37125 -17.91546875 -1.7425 -16.6484375 -2.125 C-9.93176332 -3.7358512 -6.03445047 -2.89653623 0 0 Z " fill="#515151" transform="translate(381,132)"/>
<path d="M0 0 C3.4375 0.1875 3.4375 0.1875 4.4375 1.1875 C4.1875 4.625 4.1875 4.625 3.4375 8.1875 C0.21376323 10.33665785 -0.82953674 10.57036803 -4.5625 10.1875 C-5.2225 9.5275 -5.8825 8.8675 -6.5625 8.1875 C-6.12051348 2.88366181 -5.78434155 0.30443903 0 0 Z " fill="#030303" transform="translate(228.5625,130.8125)"/>
<path d="M0 0 C6.93 0.495 6.93 0.495 14 1 C12.515 2.485 12.515 2.485 11 4 C12.32 4 13.64 4 15 4 C15.33 3.34 15.66 2.68 16 2 C16 2.99 16 3.98 16 5 C12.37 5 8.74 5 5 5 C5 7.31 5 9.62 5 12 C9.29 12 13.58 12 18 12 C18 12.33 18 12.66 18 13 C12.06 13.33 6.12 13.66 0 14 C0 13.34 0 12.68 0 12 C1.32 12 2.64 12 4 12 C4 9.03 4 6.06 4 3 C3.01 3.495 3.01 3.495 2 4 C2 5.65 2 7.3 2 9 C0 5.25 0 5.25 0 3 C-0.66 2.67 -1.32 2.34 -2 2 C-1.34 2 -0.68 2 0 2 C0 1.34 0 0.68 0 0 Z " fill="#363737" transform="translate(334,171)"/>
<path d="M0 0 C0.33 0.99 0.66 1.98 1 3 C2.0725 2.979375 3.145 2.95875 4.25 2.9375 C7.14790424 2.9857984 9.28612141 3.13155885 12 4 C12 3.34 12 2.68 12 2 C12.66 2.33 13.32 2.66 14 3 C13.67 3.99 13.34 4.98 13 6 C10.36 6 7.72 6 5 6 C6.65 6.33 8.3 6.66 10 7 C8 9 8 9 4.875 9.125 C3.92625 9.08375 2.9775 9.0425 2 9 C1.67 10.32 1.34 11.64 1 13 C2.32 12.67 3.64 12.34 5 12 C5 13.98 5 15.96 5 18 C5.66 18.33 6.32 18.66 7 19 C6.01 19 5.02 19 4 19 C4 17.68 4 16.36 4 15 C3.01 15.33 2.02 15.66 1 16 C0.67 14.02 0.34 12.04 0 10 C-2.31 10 -4.62 10 -7 10 C-7 9.67 -7 9.34 -7 9 C-4.69 9 -2.38 9 0 9 C-0.185625 7.700625 -0.37125 6.40125 -0.5625 5.0625 C-0.87890625 2.84765625 -0.87890625 2.84765625 -1 1 C-0.67 0.67 -0.34 0.34 0 0 Z " fill="#5B5B5B" transform="translate(358,166)"/>
<path d="M0 0 C2.58445773 -0.1081866 5.16437352 -0.18737237 7.75 -0.25 C8.47960937 -0.28351563 9.20921875 -0.31703125 9.9609375 -0.3515625 C13.67144375 -0.41902625 15.57156961 -0.34327652 18.515625 2.015625 C19.00546875 2.67046875 19.4953125 3.3253125 20 4 C15.89162554 4.98600987 12.03138166 5.13389122 7.8125 5.125 C6.58144531 5.12757813 5.35039062 5.13015625 4.08203125 5.1328125 C1 5 1 5 -1 4 C-0.67 2.68 -0.34 1.36 0 0 Z " fill="#5E5E5E" transform="translate(336,184)"/>
<path d="M0 0 C0.99 0 1.98 0 3 0 C3 2.97 3 5.94 3 9 C-0.96 9 -4.92 9 -9 9 C-9 6.69 -9 4.38 -9 2 C-6.525 2.99 -6.525 2.99 -4 4 C-4 3.34 -4 2.68 -4 2 C-2.68 1.67 -1.36 1.34 0 1 C0 0.67 0 0.34 0 0 Z " fill="#7F7F7F" transform="translate(335,174)"/>
<path d="M0 0 C1.32 0 2.64 0 4 0 C3.97679687 0.58007812 3.95359375 1.16015625 3.9296875 1.7578125 C3.81580227 6.68741615 4.36345786 10.3085792 6 15 C5.625 17.375 5.625 17.375 5 19 C6.98 19.33 8.96 19.66 11 20 C11 20.66 11 21.32 11 22 C8.36 21.67 5.72 21.34 3 21 C3 18.36 3 15.72 3 13 C2.34 13 1.68 13 1 13 C0.67 8.71 0.34 4.42 0 0 Z M5 9 C7 10 7 10 7 10 Z " fill="#868686" transform="translate(357,147)"/>
<path d="M0 0 C0.99 0.33 1.98 0.66 3 1 C3 3.97 3 6.94 3 10 C2.01 10 1.02 10 0 10 C0 10.66 0 11.32 0 12 C-1.32 12.33 -2.64 12.66 -4 13 C-4 11.68 -4 10.36 -4 9 C-4.66 8.67 -5.32 8.34 -6 8 C-5.67 7.34 -5.34 6.68 -5 6 C-4.34 6 -3.68 6 -3 6 C-3 6.99 -3 7.98 -3 9 C-2.34 9 -1.68 9 -1 9 C-1 7.68 -1 6.36 -1 5 C-4.96 5 -8.92 5 -13 5 C-13 4.34 -13 3.68 -13 3 C-10.98177083 3.03255208 -8.96354167 3.06510417 -6.9453125 3.09765625 C-4.91814596 3.12649242 -4.91814596 3.12649242 -3 2 C-2.01 2.33 -1.02 2.66 0 3 C0 2.01 0 1.02 0 0 Z " fill="#5E5E5E" transform="translate(384,170)"/>
<path d="M0 0 C1.33333333 0.33333333 2.66666667 0.66666667 4 1 C4.33 0.67 4.66 0.34 5 0 C6.99958364 -0.04080783 9.00045254 -0.04254356 11 0 C11 1.98 11 3.96 11 6 C12.32 6 13.64 6 15 6 C15 6.66 15 7.32 15 8 C13.24970238 7.68917128 11.49977306 7.37626821 9.75 7.0625 C8.28820312 6.80146484 8.28820312 6.80146484 6.796875 6.53515625 C4.50278205 6.09620271 2.25708029 5.59651408 0 5 C-0.5625 3.0625 -0.5625 3.0625 -1 1 C-0.67 0.67 -0.34 0.34 0 0 Z " fill="#5B5B5B" transform="translate(355,138)"/>
<path d="M0 0 C1.65 0 3.3 0 5 0 C5 7.92 5 15.84 5 24 C4.01 23.67 3.02 23.34 2 23 C1.80598367 21.18818595 1.61995625 19.37551468 1.4375 17.5625 C1.33308594 16.55316406 1.22867187 15.54382813 1.12109375 14.50390625 C1.08113281 13.67761719 1.04117187 12.85132813 1 12 C1.33 11.67 1.66 11.34 2 11 C2.23287008 9.31816052 2.41264166 7.6287584 2.5625 5.9375 C2.68818359 4.55884766 2.68818359 4.55884766 2.81640625 3.15234375 C2.87699219 2.44207031 2.93757813 1.73179687 3 1 C2.01 0.67 1.02 0.34 0 0 Z " fill="#838384" transform="translate(381,146)"/>
<path d="M0 0 C0.78375 0.495 1.5675 0.99 2.375 1.5 C4.78552327 3.16537965 4.78552327 3.16537965 7 3 C7.66 5.64 8.32 8.28 9 11 C5.63295715 11.2295711 3.58629732 11.33943529 0.625 9.625 C0.08875 9.08875 -0.4475 8.5525 -1 8 C-1 7.34 -1 6.68 -1 6 C-0.01 6 0.98 6 2 6 C1.34 4.02 0.68 2.04 0 0 Z " fill="#919191" transform="translate(355,178)"/>
<path d="M0 0 C1.11375 0.2475 1.11375 0.2475 2.25 0.5 C5.19006578 1.11925696 5.19006578 1.11925696 9 1 C10 4 10 4 9 7 C6.03 7 3.06 7 0 7 C-1 3 -1 3 0 0 Z " fill="#7F7F7F" transform="translate(372,162)"/>
<path d="M0 0 C1.4540625 0.0309375 1.4540625 0.0309375 2.9375 0.0625 C3.2675 2.3725 3.5975 4.6825 3.9375 7.0625 C-0.5175 7.5575 -0.5175 7.5575 -5.0625 8.0625 C-4.046875 0.08258929 -4.046875 0.08258929 0 0 Z " fill="#8A8A8A" transform="translate(313.0625,175.9375)"/>
<path d="M0 0 C2.64 0 5.28 0 8 0 C8 1.32 8 2.64 8 4 C7.34 4 6.68 4 6 4 C6 3.01 6 2.02 6 1 C5.34 1 4.68 1 4 1 C4.33 3.97 4.66 6.94 5 10 C4.34 10 3.68 10 3 10 C2.67 7.69 2.34 5.38 2 3 C1.01 3.33 0.02 3.66 -1 4 C-1 5.32 -1 6.64 -1 8 C-1.99 8 -2.98 8 -4 8 C-4 6.35 -4 4.7 -4 3 C-4.66 2.67 -5.32 2.34 -6 2 C-4.02 1.67 -2.04 1.34 0 1 C0 0.67 0 0.34 0 0 Z " fill="#313131" transform="translate(375,175)"/>
<path d="M0 0 C0.99 0.33 1.98 0.66 3 1 C3 1.66 3 2.32 3 3 C3.66 3.66 4.32 4.32 5 5 C4.5359375 6.0828125 4.5359375 6.0828125 4.0625 7.1875 C3.07439461 9.80307309 2.4712246 12.25118982 2 15 C1.01 14.67 0.02 14.34 -1 14 C-1.33 12.35 -1.66 10.7 -2 9 C-1.01 8.67 -0.02 8.34 1 8 C1.33 7.34 1.66 6.68 2 6 C1.34 5.67 0.68 5.34 0 5 C-0.33 5.99 -0.66 6.98 -1 8 C-1.04241723 5.66705225 -1.04092937 3.33297433 -1 1 C-0.67 0.67 -0.34 0.34 0 0 Z " fill="#888888" transform="translate(366,149)"/>
<path d="M0 0 C5.39795989 1.15058556 10.70987333 2.42421759 16 4 C15.67 5.32 15.34 6.64 15 8 C14.1028125 7.2265625 14.1028125 7.2265625 13.1875 6.4375 C12.465625 5.963125 11.74375 5.48875 11 5 C10.01 5.33 9.02 5.66 8 6 C5.95703125 5.87890625 5.95703125 5.87890625 3.8125 5.5625 C2.554375 5.376875 1.29625 5.19125 0 5 C0 3.35 0 1.7 0 0 Z " fill="#777777" transform="translate(384,180)"/>
<path d="M0 0 C2.99332739 0.9977758 3.94766315 1.7522025 6 4 C4.68 4 3.36 4 2 4 C2 6.31 2 8.62 2 11 C4.31 11 6.62 11 9 11 C8.34 12.32 7.68 13.64 7 15 C5.02 15 3.04 15 1 15 C1 11.37 1 7.74 1 4 C0.34 3.67 -0.32 3.34 -1 3 C-0.67 2.01 -0.34 1.02 0 0 Z " fill="#3F3F40" transform="translate(324,172)"/>
<path d="M0 0 C6.93 0.495 6.93 0.495 14 1 C14 1.33 14 1.66 14 2 C11.69 2 9.38 2 7 2 C7 4.31 7 6.62 7 9 C6.01 9 5.02 9 4 9 C4 7.35 4 5.7 4 4 C2.68 4.33 1.36 4.66 0 5 C0 3.35 0 1.7 0 0 Z " fill="#383837" transform="translate(359,174)"/>
<path d="M0 0 C1.03125 0.00322266 2.0625 0.00644531 3.125 0.00976562 C4.74535156 0.02233398 4.74535156 0.02233398 6.3984375 0.03515625 C8.03039062 0.04192383 8.03039062 0.04192383 9.6953125 0.04882812 C12.38807539 0.06063849 15.08072938 0.07710847 17.7734375 0.09765625 C17.7734375 0.75765625 17.7734375 1.41765625 17.7734375 2.09765625 C14.3577142 2.32399936 10.94096428 2.52557738 7.5234375 2.72265625 C6.07130859 2.81933594 6.07130859 2.81933594 4.58984375 2.91796875 C3.65527344 2.96953125 2.72070312 3.02109375 1.7578125 3.07421875 C0.89897461 3.12658691 0.04013672 3.17895508 -0.84472656 3.23291016 C-3.45535647 3.08466405 -4.99600106 2.42064107 -7.2265625 1.09765625 C-4.66933021 -0.1809599 -2.85919148 -0.01570984 0 0 Z " fill="#0B0B0B" transform="translate(178.2265625,46.90234375)"/>
<path d="M0 0 C0.89203125 0.01804688 1.7840625 0.03609375 2.703125 0.0546875 C3.71632813 0.08949219 3.71632813 0.08949219 4.75 0.125 C4.75 0.785 4.75 1.445 4.75 2.125 C3.76 2.455 2.77 2.785 1.75 3.125 C1.75 2.465 1.75 1.805 1.75 1.125 C1.09 1.125 0.43 1.125 -0.25 1.125 C-0.25 2.115 -0.25 3.105 -0.25 4.125 C-1.58333333 3.45833333 -2.91666667 2.79166667 -4.25 2.125 C-4.91 4.105 -5.57 6.085 -6.25 8.125 C-7.9 8.455 -9.55 8.785 -11.25 9.125 C-10.59 8.795 -9.93 8.465 -9.25 8.125 C-9.25 6.145 -9.25 4.165 -9.25 2.125 C-6.03817851 0.21891902 -3.71117397 -0.09766247 0 0 Z " fill="#818181" transform="translate(370.25,147.875)"/>
<path d="M0 0 C0.33 0.99 0.66 1.98 1 3 C2.98 2.67 4.96 2.34 7 2 C7.33 2.66 7.66 3.32 8 4 C8.99 4.66 9.98 5.32 11 6 C10.01 6.33 9.02 6.66 8 7 C8 7.66 8 8.32 8 9 C7.01 9.33 6.02 9.66 5 10 C4.67 8.68 4.34 7.36 4 6 C1.69 5.34 -0.62 4.68 -3 4 C-2.67 3.01 -2.34 2.02 -2 1 C-1.34 0.67 -0.68 0.34 0 0 Z " fill="#6B6B6D" transform="translate(334,136)"/>
<path d="M0 0 C0 1.98 0 3.96 0 6 C-3.69541586 6.95024979 -6.30458414 6.95024979 -10 6 C-10 4.35 -10 2.7 -10 1 C-9.2575 1.20625 -8.515 1.4125 -7.75 1.625 C-4.2797763 2.09821232 -3.00181184 0 0 0 Z " fill="#848485" transform="translate(307,177)"/>
<path d="M0 0 C1.91635217 -0.05423638 3.83314925 -0.09289963 5.75 -0.125 C7.35101563 -0.15980469 7.35101563 -0.15980469 8.984375 -0.1953125 C11.92470106 -0.00487687 13.52361878 0.47329896 16 2 C14.02 2.99 14.02 2.99 12 4 C12 3.34 12 2.68 12 2 C11.34 2 10.68 2 10 2 C10 2.99 10 3.98 10 5 C9.34 5 8.68 5 8 5 C8 4.34 8 3.68 8 3 C7.34 3 6.68 3 6 3 C5.67 3.66 5.34 4.32 5 5 C3.68 5 2.36 5 1 5 C0.67 3.35 0.34 1.7 0 0 Z " fill="#4B4D4C" transform="translate(302,171)"/>
<path d="M0 0 C1.5 1.0625 1.5 1.0625 3 3 C3.26641894 6.72986522 3.1845131 9.44646071 2 13 C1.01 13 0.02 13 -1 13 C-1.02686553 11.02090602 -1.04633375 9.04171029 -1.0625 7.0625 C-1.07410156 5.96035156 -1.08570313 4.85820312 -1.09765625 3.72265625 C-1 1 -1 1 0 0 Z " fill="#707070" transform="translate(322,173)"/>
<path d="M0 0 C2 0 4 0 6 0 C6.6875 2.25 6.6875 2.25 7 5 C5.5625 7.3125 5.5625 7.3125 4 9 C3.34 8.67 2.68 8.34 2 8 C2 7.34 2 6.68 2 6 C1.34 6 0.68 6 0 6 C0 4.02 0 2.04 0 0 Z " fill="#7A7F82" transform="translate(311,144)"/>
<path d="M0 0 C3.96 0 7.92 0 12 0 C12.33 1.32 12.66 2.64 13 4 C13.66 4.33 14.32 4.66 15 5 C14.01 5.495 14.01 5.495 13 6 C13.66 6.66 14.32 7.32 15 8 C13.35 8 11.7 8 10 8 C10.33 6.02 10.66 4.04 11 2 C6.9899066 1.82135369 6.9899066 1.82135369 3 2 C2.34 2.66 1.68 3.32 1 4 C0.67 2.68 0.34 1.36 0 0 Z " fill="#525253" transform="translate(369,138)"/>
<path d="M0 0 C2.09350689 3.4019487 2.17942163 6.05272412 2 10 C3.65 10 5.3 10 7 10 C6.67 10.99 6.34 11.98 6 13 C3.69 12.34 1.38 11.68 -1 11 C-1.14285714 3.57142857 -1.14285714 3.57142857 0 0 Z " fill="#727275" transform="translate(297,159)"/>
<path d="M0 0 C0 0.99 0 1.98 0 3 C-0.66 3 -1.32 3 -2 3 C-2 3.66 -2 4.32 -2 5 C-1.34 5.33 -0.68 5.66 0 6 C-2.63904371 7.41377341 -5.07120629 8.37240135 -8 9 C-7.67 8.01 -7.34 7.02 -7 6 C-6.34 5.67 -5.68 5.34 -5 5 C-6.32 4.34 -7.64 3.68 -9 3 C-2.25 0 -2.25 0 0 0 Z " fill="#5B5C5D" transform="translate(321,136)"/>
<path d="M0 0 C0.99 0 1.98 0 3 0 C3.33 1.65 3.66 3.3 4 5 C2.68 4.67 1.36 4.34 0 4 C0 4.66 0 5.32 0 6 C-0.53625 5.855625 -1.0725 5.71125 -1.625 5.5625 C-4.39915827 4.90546252 -7.18525388 4.44780052 -10 4 C-9.34 3.34 -8.68 2.68 -8 2 C-5.27130593 2.03287583 -2.7033382 2.56397771 0 3 C0 2.01 0 1.02 0 0 Z " fill="#4A4A4A" transform="translate(371,169)"/>
<path d="M0 0 C2.97 0 5.94 0 9 0 C7.515 1.485 7.515 1.485 6 3 C7.32 3 8.64 3 10 3 C10.33 2.34 10.66 1.68 11 1 C11 1.99 11 2.98 11 4 C7.37 4 3.74 4 0 4 C0 2.68 0 1.36 0 0 Z " fill="#434544" transform="translate(339,172)"/>
<path d="M0 0 C1.32 0 2.64 0 4 0 C4 2.97 4 5.94 4 9 C3.34 9 2.68 9 2 9 C1.67 10.32 1.34 11.64 1 13 C0.67 8.71 0.34 4.42 0 0 Z " fill="#969696" transform="translate(357,147)"/>
<path d="M0 0 C4.455 0.99 4.455 0.99 9 2 C7.02 2.99 7.02 2.99 5 4 C4.67 4.66 4.34 5.32 4 6 C5.32 6.33 6.64 6.66 8 7 C7.67 8.32 7.34 9.64 7 11 C6.566875 10.505 6.13375 10.01 5.6875 9.5 C4.00259517 7.66781808 4.00259517 7.66781808 1 8 C1.33 6.68 1.66 5.36 2 4 C1.01 3.34 0.02 2.68 -1 2 C-0.67 1.34 -0.34 0.68 0 0 Z " fill="#7D7D7E" transform="translate(342,138)"/>
<path d="M0 0 C0.80824219 0.10183594 1.61648438 0.20367187 2.44921875 0.30859375 C3.06410156 0.39238281 3.67898438 0.47617188 4.3125 0.5625 C1.3125 2.5625 1.3125 2.5625 -1.6875 2.5625 C-2.0175 3.2225 -2.3475 3.8825 -2.6875 4.5625 C-4.6675 4.5625 -6.6475 4.5625 -8.6875 4.5625 C-8.375 2.625 -8.375 2.625 -7.6875 0.5625 C-4.59271121 -0.46909626 -3.16118607 -0.41232862 0 0 Z " fill="#383839" transform="translate(343.6875,134.4375)"/>
<path d="M0 0 C0.99 0 1.98 0 3 0 C3.08090971 1.62418745 3.13914995 3.24951745 3.1875 4.875 C3.22230469 5.77992188 3.25710938 6.68484375 3.29296875 7.6171875 C3.19628906 8.40351563 3.09960938 9.18984375 3 10 C2.01 10.66 1.02 11.32 0 12 C0 8.04 0 4.08 0 0 Z " fill="#9C9C9C" transform="translate(381,147)"/>
<path d="M0 0 C0.33 0.99 0.66 1.98 1 3 C1.66 3.33 2.32 3.66 3 4 C2.01 5.485 2.01 5.485 1 7 C1 6.34 1 5.68 1 5 C-1.25028329 5.14139481 -3.50022206 5.28828003 -5.75 5.4375 C-7.00296875 5.51871094 -8.2559375 5.59992188 -9.546875 5.68359375 C-12.18317553 5.92515522 -14.48037294 6.24283934 -17 7 C-16.34 5.68 -15.68 4.36 -15 3 C-10.05 3.33 -5.1 3.66 0 4 C0 2.68 0 1.36 0 0 Z " fill="#6B6B6C" transform="translate(378,143)"/>
<path d="M0 0 C3.3 0.33 6.6 0.66 10 1 C10 1.33 10 1.66 10 2 C8.35 2 6.7 2 5 2 C5.33 2.99 5.66 3.98 6 5 C3.69 4.67 1.38 4.34 -1 4 C-0.67 2.68 -0.34 1.36 0 0 Z " fill="#696969" transform="translate(336,184)"/>
<path d="M0 0 C1.98 0.66 3.96 1.32 6 2 C6 2.99 6 3.98 6 5 C5.34 5.66 4.68 6.32 4 7 C1.875 6.625 1.875 6.625 0 6 C0 4.02 0 2.04 0 0 Z " fill="#5C5C5F" transform="translate(296,170)"/>
<path d="M0 0 C3 3.75 3 3.75 3 6 C4.45833358 7.62514468 4.45833358 7.62514468 6 9 C5.34 9.66 4.68 10.32 4 11 C3.01 10.34 2.02 9.68 1 9 C1 8.34 1 7.68 1 7 C0.34 7 -0.32 7 -1 7 C-0.67 4.69 -0.34 2.38 0 0 Z " fill="#63666B" transform="translate(303,136)"/>
<path d="M0 0 C0.66 0 1.32 0 2 0 C2 0.99 2 1.98 2 3 C3.32 3 4.64 3 6 3 C6 3.66 6 4.32 6 5 C2.7 5 -0.6 5 -4 5 C-3.67 4.01 -3.34 3.02 -3 2 C-2.01 2 -1.02 2 0 2 C0 1.34 0 0.68 0 0 Z " fill="#606064" transform="translate(296,184)"/>
<path d="M0 0 C0.99 0 1.98 0 3 0 C3 2.97 3 5.94 3 9 C1.68 9 0.36 9 -1 9 C-1.125 2.25 -1.125 2.25 0 0 Z " fill="#656565" transform="translate(335,174)"/>
<path d="M0 0 C0 0.66 0 1.32 0 2 C1.65 2 3.3 2 5 2 C4.67 3.65 4.34 5.3 4 7 C3.34 7 2.68 7 2 7 C1.67 6.01 1.34 5.02 1 4 C0.21625 3.896875 -0.5675 3.79375 -1.375 3.6875 C-4 3 -4 3 -6 0 C-3.50907189 -1.24546405 -2.58919267 -0.7767578 0 0 Z " fill="#747474" transform="translate(380,135)"/>
<path d="M0 0 C2.31 0 4.62 0 7 0 C7.33 0.99 7.66 1.98 8 3 C4.7 3.33 1.4 3.66 -2 4 C-1.34 2.68 -0.68 1.36 0 0 Z " fill="#5A5A5C" transform="translate(309,134)"/>
<path d="M0 0 C2.97 0 5.94 0 9 0 C9 0.66 9 1.32 9 2 C8.01 2.33 7.02 2.66 6 3 C6 3.66 6 4.32 6 5 C4.02 5 2.04 5 0 5 C0.66 4.34 1.32 3.68 2 3 C1.34 2.67 0.68 2.34 0 2 C0 1.34 0 0.68 0 0 Z " fill="#0B0B0B" transform="translate(125,73)"/>
<path d="M0 0 C0.99 0 1.98 0 3 0 C3.33 2.31 3.66 4.62 4 7 C2.68 7 1.36 7 0 7 C-0.38133299 5.0085944 -0.71325582 3.00720923 -1 1 C-0.67 0.67 -0.34 0.34 0 0 Z " fill="#616161" transform="translate(374,178)"/>
<path d="M0 0 C2.31 0.33 4.62 0.66 7 1 C7 1.99 7 2.98 7 4 C4.36 4 1.72 4 -1 4 C-0.67 2.68 -0.34 1.36 0 0 Z " fill="#929292" transform="translate(341,178)"/>
<path d="M0 0 C1.65 0 3.3 0 5 0 C5 0.66 5 1.32 5 2 C8.96 2 12.92 2 17 2 C13 4 13 4 10 5 C10 4.34 10 3.68 10 3 C6.7 2.67 3.4 2.34 0 2 C0 1.34 0 0.68 0 0 Z " fill="#6F6F6F" transform="translate(356,135)"/>
<path d="M0 0 C0.5534764 2.07553648 1 3.84365964 1 6 C0.01 6 -0.98 6 -2 6 C-2 6.66 -2 7.32 -2 8 C-2.99 7.67 -3.98 7.34 -5 7 C-5 5.35 -5 3.7 -5 2 C-3.35 2 -1.7 2 0 2 C0 1.34 0 0.68 0 0 Z " fill="#5B5B5B" transform="translate(333,170)"/>
<path d="M0 0 C1.65 1.65 3.3 3.3 5 5 C1.7 4.67 -1.6 4.34 -5 4 C-3 1 -3 1 0 0 Z " fill="#9D9D9D" transform="translate(395,184)"/>
<path d="M0 0 C0.33 0.66 0.66 1.32 1 2 C1.66 2.33 2.32 2.66 3 3 C2.67 3.66 2.34 4.32 2 5 C2.66 5.33 3.32 5.66 4 6 C0.7 6 -2.6 6 -6 6 C-5.195625 5.38125 -4.39125 4.7625 -3.5625 4.125 C-0.96125481 2.25835959 -0.96125481 2.25835959 0 0 Z " fill="#5D5D5E" transform="translate(333,183)"/>
<path d="M0 0 C0.33 0.99 0.66 1.98 1 3 C-3.12168689 4.62950412 -5.70700357 5.26264601 -10 4 C-9.67 3.34 -9.34 2.68 -9 2 C-6.93359375 1.3671875 -6.93359375 1.3671875 -4.4375 0.875 C-3.61121094 0.70742187 -2.78492188 0.53984375 -1.93359375 0.3671875 C-0.97646484 0.18542969 -0.97646484 0.18542969 0 0 Z " fill="#6C6D6C" transform="translate(355,171)"/>
<path d="M0 0 C0.99 0 1.98 0 3 0 C3 3.3 3 6.6 3 10 C2.01 9.67 1.02 9.34 0 9 C0 6.03 0 3.06 0 0 Z " fill="#737373" transform="translate(383,160)"/>
<path d="M0 0 C1.65 0 3.3 0 5 0 C5.33 1.65 5.66 3.3 6 5 C2.89448334 5 1.64738916 4.4606285 -1 3 C-0.67 2.01 -0.34 1.02 0 0 Z M6 0 C7 4 7 4 7 4 Z " fill="#7A7A7D" transform="translate(343,150)"/>
<path d="M0 0 C2.0625 0.4375 2.0625 0.4375 4 1 C3.67 1.33 3.34 1.66 3 2 C4.65 2.33 6.3 2.66 8 3 C7.67 3.99 7.34 4.98 7 6 C4.69 5.67 2.38 5.34 0 5 C-0.5625 3.0625 -0.5625 3.0625 -1 1 C-0.67 0.67 -0.34 0.34 0 0 Z " fill="#6B6B6B" transform="translate(355,138)"/>
<path d="M0 0 C6.75 -0.125 6.75 -0.125 9 1 C9 1.66 9 2.32 9 3 C6.09399739 4.25664978 4.20395416 5 1 5 C0.67 3.35 0.34 1.7 0 0 Z " fill="#6F6F72" transform="translate(337,156)"/>
<path d="M0 0 C0.99 0 1.98 0 3 0 C3.29296875 6.0546875 3.29296875 6.0546875 3 8 C2.01 8.66 1.02 9.32 0 10 C0 6.7 0 3.4 0 0 Z " fill="#46454A" transform="translate(296,128)"/>
<path d="M0 0 C1.65 0.99 3.3 1.98 5 3 C1.5647952 5.29013653 0.014669 5.17842973 -4 5 C-4.33 4.34 -4.66 3.68 -5 3 C-4.34 2.34 -3.68 1.68 -3 1 C-2.67 1.33 -2.34 1.66 -2 2 C-1.34 1.34 -0.68 0.68 0 0 Z " fill="#0A0A0A" transform="translate(182,70)"/>
<path d="M0 0 C0.88429688 -0.01417969 1.76859375 -0.02835938 2.6796875 -0.04296875 C5.125 0.1875 5.125 0.1875 8.125 2.1875 C6.16810341 2.40892255 4.20938048 2.6142568 2.25 2.8125 C0.61417969 2.98652344 0.61417969 2.98652344 -1.0546875 3.1640625 C-2.45074219 3.17566406 -2.45074219 3.17566406 -3.875 3.1875 C-4.535 2.5275 -5.195 1.8675 -5.875 1.1875 C-4.21846314 -0.46903686 -2.26849204 0.01643835 0 0 Z " fill="#080809" transform="translate(44.875,46.8125)"/>
<path d="M0 0 C0.99 0 1.98 0 3 0 C3 0.66 3 1.32 3 2 C3.99 1.34 4.98 0.68 6 0 C6.99 0.33 7.98 0.66 9 1 C8.34 2.32 7.68 3.64 7 5 C6.01 5 5.02 5 4 5 C4 4.34 4 3.68 4 3 C2.68 3 1.36 3 0 3 C0 2.01 0 1.02 0 0 Z " fill="#3A393C" transform="translate(298,184)"/>
<path d="M0 0 C1.5 1.375 1.5 1.375 3 3 C3 3.66 3 4.32 3 5 C4.65 5 6.3 5 8 5 C7.67 5.66 7.34 6.32 7 7 C6.01 7 5.02 7 4 7 C3.01 8.485 3.01 8.485 2 10 C0 3.375 0 3.375 0 0 Z " fill="#595A5A" transform="translate(316,167)"/>
<path d="M0 0 C0.99 0 1.98 0 3 0 C3 2.64 3 5.28 3 8 C1.68 7.67 0.36 7.34 -1 7 C-0.01 7 0.98 7 2 7 C0.68 6.01 -0.64 5.02 -2 4 C-1.34 4 -0.68 4 0 4 C0 2.68 0 1.36 0 0 Z " fill="#7B7B7B" transform="translate(383,128)"/>
<path d="M0 0 C2.475 0.99 2.475 0.99 5 2 C5 1.34 5 0.68 5 0 C5.99 0 6.98 0 8 0 C8 0.99 8 1.98 8 3 C6.68 3 5.36 3 4 3 C3.67 3.66 3.34 4.32 3 5 C3 4.34 3 3.68 3 3 C2.34 3 1.68 3 1 3 C0.67 3.66 0.34 4.32 0 5 C0 3.35 0 1.7 0 0 Z " fill="#727272" transform="translate(326,176)"/>
<path d="M0 0 C0.6875 2.0625 0.6875 2.0625 1 4 C0.01 4.495 0.01 4.495 -1 5 C-1 4.34 -1 3.68 -1 3 C-3.64 3 -6.28 3 -9 3 C-9 2.34 -9 1.68 -9 1 C-3.375 -1.125 -3.375 -1.125 0 0 Z " fill="#717176" transform="translate(319,152)"/>
<path d="M0 0 C1.98 0.495 1.98 0.495 4 1 C4 2.32 4 3.64 4 5 C2.35 5 0.7 5 -1 5 C-0.67 3.35 -0.34 1.7 0 0 Z " fill="#686868" transform="translate(326,138)"/>
<path d="M0 0 C1.98 0 3.96 0 6 0 C6 1.32 6 2.64 6 4 C4.02 4 2.04 4 0 4 C0 2.68 0 1.36 0 0 Z " fill="#919095" transform="translate(376,185)"/>
<path d="M0 0 C1.125 1.75 1.125 1.75 2 4 C1.125 6.25 1.125 6.25 0 8 C-0.66 8 -1.32 8 -2 8 C-2.625 6.1875 -2.625 6.1875 -3 4 C-1 1 -1 1 0 0 Z " fill="#5D5D60" transform="translate(320,159)"/>
<path d="M0 0 C2.99332739 0.9977758 3.94766315 1.7522025 6 4 C4.68 4 3.36 4 2 4 C2 6.31 2 8.62 2 11 C1.67 11 1.34 11 1 11 C1 8.69 1 6.38 1 4 C0.34 3.67 -0.32 3.34 -1 3 C-0.67 2.01 -0.34 1.02 0 0 Z " fill="#494949" transform="translate(324,172)"/>
<path d="M0 0 C0.66 0.33 1.32 0.66 2 1 C1.67 1.99 1.34 2.98 1 4 C1.66 4.33 2.32 4.66 3 5 C2.67 6.32 2.34 7.64 2 9 C0.35 9 -1.3 9 -3 9 C-2.01 8.67 -1.02 8.34 0 8 C-0.185625 7.236875 -0.37125 6.47375 -0.5625 5.6875 C-1 3 -1 3 0 0 Z " fill="#7E7E7E" transform="translate(356,166)"/>
<path d="M0 0 C0.99 0 1.98 0 3 0 C3.12375 0.969375 3.2475 1.93875 3.375 2.9375 C3.684375 4.4534375 3.684375 4.4534375 4 6 C4.66 6.33 5.32 6.66 6 7 C4.68 7.33 3.36 7.66 2 8 C1.34 5.36 0.68 2.72 0 0 Z " fill="#525356" transform="translate(303,162)"/>
<path d="M0 0 C2.51083114 1.25541557 2.87125446 2.50063488 4 5 C1.50907189 6.24546405 0.58919267 5.7767578 -2 5 C-2 3.68 -2 2.36 -2 1 C-1.34 0.67 -0.68 0.34 0 0 Z " fill="#7C7C7D" transform="translate(368,139)"/>
<path d="M0 0 C1.32 0 2.64 0 4 0 C4 2.64 4 5.28 4 8 C3.01 8 2.02 8 1 8 C0.67 5.36 0.34 2.72 0 0 Z " fill="#6C6D6F" transform="translate(313,164)"/>
<path d="M0 0 C-0.33 1.98 -0.66 3.96 -1 6 C-2.32 6 -3.64 6 -5 6 C-5 3 -5 3 -3.625 1.3125 C-2 0 -2 0 0 0 Z " fill="#6D7176" transform="translate(311,144)"/>
<path d="M0 0 C3 1 6 2 9 3 C6 5 6 5 2.8125 4.625 C1.884375 4.41875 0.95625 4.2125 0 4 C0 2.68 0 1.36 0 0 Z " fill="#444444" transform="translate(357,142)"/>
<path d="M0 0 C2.31 0 4.62 0 7 0 C7 0.99 7 1.98 7 3 C5.35 3.33 3.7 3.66 2 4 C1.34 2.68 0.68 1.36 0 0 Z " fill="#7E7E7E" transform="translate(351,176)"/>
<path d="M0 0 C2.375 -0.1875 2.375 -0.1875 5 0 C5.66 0.99 6.32 1.98 7 3 C3.37 3 -0.26 3 -4 3 C-2.68 2.67 -1.36 2.34 0 2 C0 1.34 0 0.68 0 0 Z " fill="#494949" transform="translate(366,134)"/>
<path d="M0 0 C1.98 0 3.96 0 6 0 C6.33 1.65 6.66 3.3 7 5 C6.21625 4.505 5.4325 4.01 4.625 3.5 C2.21447673 1.83462035 2.21447673 1.83462035 0 2 C0 1.34 0 0.68 0 0 Z " fill="#868686" transform="translate(393,183)"/>
<path d="M0 0 C0 1.98 0 3.96 0 6 C0.66 6.33 1.32 6.66 2 7 C1.01 7 0.02 7 -1 7 C-1 5.68 -1 4.36 -1 3 C-1.99 3.33 -2.98 3.66 -4 4 C-4.33 3.01 -4.66 2.02 -5 1 C-2 0 -2 0 0 0 Z " fill="#686869" transform="translate(363,178)"/>
<path d="M0 0 C1.32 0.33 2.64 0.66 4 1 C4 1.66 4 2.32 4 3 C3.01 3.495 3.01 3.495 2 4 C2 5.65 2 7.3 2 9 C0 5.25 0 5.25 0 3 C-0.66 2.67 -1.32 2.34 -2 2 C-1.34 2 -0.68 2 0 2 C0 1.34 0 0.68 0 0 Z " fill="#3D3D3D" transform="translate(334,171)"/>
<path d="M0 0 C1.32 0 2.64 0 4 0 C3.67 1.65 3.34 3.3 3 5 C2.01 4.67 1.02 4.34 0 4 C0 2.68 0 1.36 0 0 Z " fill="#8E8E8E" transform="translate(365,159)"/>
<path d="M0 0 C1.32 0 2.64 0 4 0 C3.67 1.32 3.34 2.64 3 4 C1.35 3.67 -0.3 3.34 -2 3 C-1.34 2.67 -0.68 2.34 0 2 C0 1.34 0 0.68 0 0 Z " fill="#919191" transform="translate(375,148)"/>
<path d="M0 0 C2.5 1.3125 2.5 1.3125 5 3 C5 3.99 5 4.98 5 6 C3.68 5.67 2.36 5.34 1 5 C0.67 3.35 0.34 1.7 0 0 Z " fill="#7B7B7E" transform="translate(334,143)"/>
<path d="M0 0 C1.32 0 2.64 0 4 0 C4.33 1.32 4.66 2.64 5 4 C3.68 4.33 2.36 4.66 1 5 C0.67 3.35 0.34 1.7 0 0 Z " fill="#373839" transform="translate(304,135)"/>
<path d="M0 0 C0.99 0 1.98 0 3 0 C3 2.31 3 4.62 3 7 C2.01 6.67 1.02 6.34 0 6 C0 4.02 0 2.04 0 0 Z " fill="#767676" transform="translate(322,176)"/>
<path d="M0 0 C1.32 0 2.64 0 4 0 C4 1.32 4 2.64 4 4 C2.35 4 0.7 4 -1 4 C-0.67 2.68 -0.34 1.36 0 0 Z " fill="#5B5B5B" transform="translate(374,154)"/>
<path d="M0 0 C1.0625 1.875 1.0625 1.875 2 4 C1.67 4.66 1.34 5.32 1 6 C-1.475 5.01 -1.475 5.01 -4 4 C-2.68 2.68 -1.36 1.36 0 0 Z " fill="#696969" transform="translate(385,140)"/>
<path d="" fill="#2A2A2A" transform="translate(0,0)"/>
<path d="M0 0 C2 1 2 1 2 1 Z " fill="#333333" transform="translate(380,130)"/>
<path d="" fill="#000000" transform="translate(0,0)"/>
<path d="" fill="#808080" transform="translate(0,0)"/>
<path d="" fill="#000000" transform="translate(0,0)"/>
<path d="" fill="#000000" transform="translate(0,0)"/>
<path d="" fill="#555555" transform="translate(0,0)"/>
</svg>
